<svg xmlns="http://www.w3.org/2000/svg" width="2666.667" height="2666.667" version="1.0" viewBox="0 0 2000 2000"><path d="M1440.3 228.7c.4.6.4 1.9.1 2.8-.5 1.3-.8 1.4-1.5.3-1-1.4-1.1-.5-1.3 6.6-.1 3 .3 4 1.7 4.4 1.5.4 1.6.7.5 1.3-1 .7-1 .9.3.9 1.2 0 1.5.7 1.2 2.4-.3 1.3 0 2.7.6 3 .7.5.8.1.4-1.1-.7-1.9-.5-1.8 1.7 1.1 1 1.3 1 1.7.3 1.2-.8-.4-1.3-.1-1.3.9s.5 1.3 1.2.9c.7-.5.8-.3.2.7-1.2 2-1.4 4-.3 3.3.5-.3.7-1 .4-1.5-.3-.5 0-.6.8-.3 1.5.5 1.6 3.1.2 5.3-.5 1-.4 1.2.3.7.7-.4 1.2-.1 1.2.6 0 .9.3.9 1-.2.5-.8 1-1 1-.5 0 .6-.5 1.6-1.1 2.2-.8.8-.5 1.3 1 1.8 1.3.4 1.8 1.1 1.4 1.8-1.1 1.8-1.2 3.8-.2 3.1.5-.3.9.2.9 1 0 .9.5 1.6 1 1.6.6 0 1 .5 1 1.1 0 .5-.4.8-.9.5-.5-.4-.4.5.2 1.8.7 1.3 1.5 2.2 1.9 2 .5-.3.8.5.8 1.8s.6 3 1.3 3.7c1 1.2.9 1.3-.7.7-1.5-.5-1.3-.1.7 1.8 2.4 2.2 2.6 2.9 1.6 4.7-.8 1.5-.8 1.9 0 1.5.7-.5 1.1.3 1.2 2.1 0 1.5.3 2.2.6 1.5 1-2.5 2.1-1.1 1.3 1.8-.5 1.8-.5 3.2.1 3.6.5.3.6 1 .3 1.6-.4.6-.3.9.2.5.5-.3 1.4.6 2.1 1.9.8 1.8.8 2.2 0 1.7-.7-.4-.6.1.2 1 .7.9 1.1 2.6.8 3.7-.3 1.1 0 2.3.5 2.7.7.3.8.1.4-.5-.4-.7-.2-1.2.3-1.2.6 0 1.1.9 1.1 1.9 0 1.1.3 2.7.7 3.7.5 1.3.3 1.5-.8.9-1.2-.8-1.2-.6 0 .8.7.9 1 1.7.5 1.7-.5.1.1.9 1.4 1.9 1.5 1.3 1.8 2.1 1 2.4-1 .4-1 .6 0 .6.6.1 1.2.6 1.2 1.2 0 .5-.5.7-1.2.3-.7-.5-.8-.3-.2.7.5.8.8 2.3.6 3.4l-.2 2 .9-2c.8-1.9.9-1.9 1.5.5.4 1.4.8 4.3.9 6.3.1 2.3.6 3.5 1.4 3.3 1.7-.7 2.4.5 1.2 2.1-.9 1-.8 1.3.1 1.3s.9.4-.1 1.7c-1 1.2-1.1 1.5-.1.9.9-.6 1.1-.1.8 1.8-.3 1.8 0 2.6 1 2.6.8 0 1.4.4 1.4 1 0 .5-.6.7-1.4.4-.8-.3-1.7-.1-2.1.5-.3.7 0 .8.9.5.9-.3 1.6-.1 1.6.6 0 .6.4.9.8.6.5-.3.6.8.4 2.5-.3 2 0 2.9.9 2.9 1.1 0 1.1.2-.1 1-1.2.8-1.2 1 .5 1 1.6 0 1.7.2.5.9-.8.6-1.9.7-2.5.4-.5-.4-.6-.2-.2.3.5.5 1.4.9 2 .9.7 0 1.1.8 1.1 1.8-.1.9.2 1.7.7 1.7.6 0 .5.8-.1 1.9-.7 1.4-.7 2.2.1 2.6.6.4.8 1.3.5 2-.5 1.5 1.7 3.9 2.7 2.9.4-.4.2.7-.3 2.5-.6 2.1-.5 3.1.2 3.1.6 0 .5.7-.3 1.7-.8.9-.9 1.4-.3 1 .6-.4 1.6.5 2.3 2.1 1.1 2.5 1 2.6-.4.8-.8-1.1-1.5-1.4-1.5-.8 0 .7.9 2.1 2 3.2s1.5 2 .9 2c-.8 0-.8.5.1 1.5 1 1.2 1 1.8 0 3-.7.8-.8 1.5-.2 1.5.5 0 1.2.9 1.5 2.1.5 1.8.3 1.8-1.1.7-1.5-1.1-1.5-1.1-.4.3.7.9 1.1 2.3 1 3-.2.7.3 1.4 1 1.5 2.6.3 2.7.5 1.2 1.4-.9.6-1 1-.3 1 .8 0 .9.9.3 3-.7 2.3-.5 3.2.8 4 .9.5 1.2 1 .7 1-1.4 0-1.7 4-.4 4 .6 0 .7-.5.4-1-.3-.6-.2-1 .3-1 .6 0 1.3.7 1.6 1.6.3.8.2 1.3-.2 1-.5-.3-.9.8-.9 2.4 0 1.7.3 3 .7 3 .4 0 .6 2.7.6 6-.1 3.3.2 6 .7 6 .4 0 .7-.5.7-1.2 0-.6.3-.8.6-.5.4.4.1 1.3-.5 2.1-.9 1.1-.9 1.6 0 2.2.8.5.9.3.4-.6-.5-.7-.4-1.1.1-.7 1.1.6 1.1 5.8 0 7.5-.4.8-.1 1.2 1 1.2 1.7 0 1.6.1-.1 1.3-1.4 1.1-1.5 1.6-.5 2.2.9.6 1.1.4.5-.5-.5-.9-.4-1.1.4-.6.6.4.9 1.1.6 1.6-.9 1.5-1.3 7-.4 6.4.9-.5 1.2.5 1.2 3.8 0 1 .4 1.8.9 1.8s.4 1-.3 2.1c-.9 1.7-.8 2 .3 1.3 1.1-.6 1.1-.5-.1.9-1.1 1.3-1.1 1.7-.1 1.7.8 0 1 .3.7.6-.3.4-.2 1.6.4 2.7.7 1.2.7 1.7.1 1.3-2.1-1.3-2 2.4.1 3.9 1.9 1.4 1.7 2-.7 1.6-.5-.1-.4.5.3 1.3.7.9 1.8 1.3 2.3 1 .6-.4.5.3-.1 1.5-.9 1.6-.9 2.1.1 2.1.9 0 .9.3-.2 1-1.3.9-1.3 1 0 1s1.3.1 0 1-1.3 1 0 1 1.3.1 0 1c-.8.5-1 1-.5 1 1.3 0 1.3 6.3 0 7.2-.5.4-.1.8 1 .8 1.7 0 1.7.2.5 1-1.1.7-1.1 1-.2 1 .7 0 1 .5.7 1-.4.6-1.1.7-1.7.4-.7-.4-.8-.2-.4.5.4.6 1.3.8 1.9.4.7-.4.5.2-.3 1.2-.9 1.1-1 1.6-.2 1.1 1.2-.7 1.4-.3 1.4 3.9 0 5-.2 5.5-1.9 4.8-1.1-.5-1.4-.3-.8.6.6 1.1.3 1.1-1.6 0-2.1-1.1-2.2-1-1.2.3 1.7 1.9.5 3-1.8 1.7-1.2-.6-1.9-.6-1.9 0 0 .5-.8.8-1.9.6-1.2-.2-1.8.2-1.7 1.2 0 .9-.7 1.7-1.7 1.8-.9.2-1.5-.1-1.1-.6.9-1.5-.3-1-2.1.7-1.3 1.4-1.9 1.4-2.8.4-.9-1-.9-1.1.3-.5.8.4.5-.2-.7-1.4-2.5-2.3-3.1-4.6-1-3.6.6.4.5 0-.5-.7-1.2-1-1.3-1.9-.7-3.1.6-1 .6-1.7.1-1.7-1.3 0-1-3.3.3-4.2.6-.4-.1-.8-1.4-.8-2.4 0-2.4 0-.5-1.5 1.4-1.1 1.5-1.4.2-.9-1.2.4-1.6.1-1.4-1.3.2-1 0-2.6-.5-3.5-.6-1.1-.5-1.8.4-2.1.9-.4.9-.6 0-.6-.7-.1-1.3-.6-1.3-1.2 0-.5.4-.7 1-.4.6.3.7-.1.4-.9-.3-.9-1.4-1.6-2.3-1.7-1.2 0-1.2-.2.4-.9 1.7-.7 1.7-.9.3-.9-1.2-.1-1.5-.6-1.1-1.8.5-1.2.3-1.4-.8-.8-1.2.8-1.2.6 0-.9 1.3-1.5 1.3-1.9 0-2.7-1.2-.7-1.2-.9.1-.9 1 0 1.1-.3.3-.8-.6-.4-1.4-2.4-1.8-4.4-.4-2.1-1.1-3.5-1.6-3.2-.5.3-.5-.6.1-2 .8-2.2.7-2.6-1-2.6-1.6 0-1.9-.5-1.4-3.3.4-2.4.3-2.8-.5-1.7-1.3 1.8-1.4.1-.2-1.9 1-1.5-.7-5.3-2-4.5-.4.2-1.1-.1-1.5-.7-.5-.8-.3-.9.6-.4 1 .6 1.2.4.7-.8-.4-1-.1-1.7.6-1.7s.8-.3.2-.8c-.5-.4-1.9-1.8-3-3.2-1.7-2-1.7-2.2-.2-1.1 1.7 1.3 1.7 1.3.6-1.2-.7-1.5-1.6-2.4-2.1-2-.6.3-.5-.3.1-1.4.8-1.6.6-2.5-1.1-4.3-1.7-1.8-1.9-2.6-1-4.1.9-1.5.9-1.7-.2-1.3-.8.3-1.7 0-2.2-.7-.4-.8-.3-1 .4-.5.7.4 1.2.1 1.2-.9 0-.9-.4-1.3-1-1-.5.3-1-.1-1-.9 0-.9-.5-1.6-1.1-1.6-.5 0-.7-.5-.4-1 .4-.6 1.2-.7 1.8-.4.7.4.1-.5-1.3-2-1.4-1.5-2.4-2.9-2.2-3.2.6-1.2.1-2.4-.9-1.8-.8.4-.9-.1-.4-1.6s.4-2-.4-1.6c-.7.4-1.1-.1-1.1-1.3 0-1-.6-2.2-1.2-2.4-1-.4-1-.6 0-.6.6-.1 1.2-.6 1.2-1.2 0-.5-.4-.7-1-.4-.5.3-1-.1-1-.9 0-.9-.5-1.6-1-1.6-.6 0-.9-.3-.9-.8.3-2-.2-3.3-1.1-2.7-.6.4-1 .3-.9-.2.4-2.6-.2-4.4-1.3-3.7-1 .6-1 .5-.2-.7.9-1.1.9-1.7-.1-2.6-.7-.6-1.5-1-1.8-.7-.2.3-.7-.4-1-1.6-.3-1.1-.1-1.8.3-1.5.5.3 1.1.1 1.5-.5.3-.5.1-1-.4-1-.6 0-2-.9-3.1-2s-1.5-2-1-2c.6 0 1-.5 1-1 0-.6-.9-1-2-1s-2-.5-2-1.1c0-.5.5-.7 1-.4.6.3 1 .1 1-.4 0-.6-.4-1.1-1-1.1-.5 0-1-.8-1-1.9 0-1-1-2.6-2.2-3.5-1.3-.9-1.8-1.4-1.1-1.1 2.2 1 .7-2.6-2.1-5-1.5-1.3-2.7-2.6-2.7-2.9.3-2.1-.1-2.6-1.1-2-.9.6-.9.3 0-.9 1.2-1.4 1.1-1.6-.7-1.2-1.8.3-2 .1-1.1-1.5 1.1-2.1-.2-3.6-2.2-2.4-1 .6-1 .4 0-.8 1-1.3 1-1.8.1-2.4-.8-.5-.9-.3-.4.6.6.9.4 1.1-.4.6-.7-.5-1-1.4-.7-2.1.2-.7-.4-2.1-1.4-3-1.1-1-1.7-2.2-1.4-2.6.3-.5-.2-.9-1.1-.9-.9 0-1.3-.5-1-1 .3-.6-.1-1-.9-1-.9 0-1.6-.9-1.6-2 0-1.2-.7-2-1.7-2-1.5 0-1.6-.2-.3-1 1.2-.8 1.2-1-.5-1s-1.7-.2-.5-1c1.3-.8 1.3-1-.2-1-.9 0-2-.5-2.4-1.2-.4-.7-.3-.8.4-.4.8.4 1 .2.6-.8-.3-.8-1.2-1.2-2-.9-.9.3-1.2 0-.9-.9.3-.8-.5-2.4-1.7-3.5-3-2.8-4.9-5.1-4.7-5.9 0-.3-.3-.9-.7-1.2-.4-.4-.4-.1 0 .5.5.9.2 1.1-.8.7-.8-.3-1.3-1.4-1.1-2.5.2-1.1 0-1.7-.6-1.4-.8.6-1.3-.8-1-2.7 0-.4-.7-.4-1.6-.1-1.1.4-1.4.3-.9-.5.4-.7.1-1.2-.9-1.2-.9 0-1.4-.4-1.1-.8.7-1.1-.8-3.3-2.5-3.5-2.2-.4-3.9-1.7-3.9-3 0-.7.4-.6 1 .3.5.8 1 1 1 .4 0-1.4-6.7-7.3-7.5-6.6-.3.4-.3-.2.1-1.2.5-1.4.4-1.7-.4-1.2-.7.4-1.2.1-1.2-.9 0-.9-.4-1.4-.9-1.1-.4.3-1.7-.2-2.7-1-1-.9-1.2-1.3-.4-.9.8.4.6 0-.4-.9-1-.8-2.4-1.2-3-.9-.6.4-.5-.1.2-1 1.2-1.4 1.1-1.6-.8-1.2-1.8.3-2 .2-1-1 .8-1 .8-1.3-.2-1.1-.7.1-1.8.5-2.5.9-.6.4-1.5.3-1.8-.3-.5-.8-1.2-.7-2.3.2-.9.7-1.3.8-.9.2.3-.6 0-1.1-.8-1.1s-1.3.3-1 .5c.3.3-.4 1.1-1.5 1.9-2.2 1.5-2.7 3.3-.9 3.3.5 0 .8-.4.4-.9-.3-.5 0-1.3.6-1.7.8-.4.9-.3.5.4s-.2 1.2.5 1.2.4.6-.7 1.4c-1.8 1.4-1.8 1.5-.1 2.2 1.5.5 1.6.9.5 1.5-1 .7-1.1.9 0 .9.7 0 1 .4.7 1-.4.6.1.7 1.2.3 1-.3 1.5-.2 1 .2-.4.5.1 1.7 1 2.7 1.6 1.8 1.6 1.8 0 1.2-1-.3-1.7-.1-1.7.5s.3 1 .8 1c2.2-.4 3.3.3 3 1.8-.2 1 .2 1.8.9 1.8.6 0 1.5.4 2 .9s.3.6-.4.2c-.7-.4-1.3-.3-1.3.2 0 .6.7 1.2 1.5 1.6 1 .4 1.4 1.4 1.1 3.1-.3 1.5-.1 2.3.5 2 .5-.4.7-1.1.4-1.6-.3-.5.1-.6.9-.3.9.3 1.3 1 1 1.6-.3.5.2 1.8 1.2 2.9.9 1 1.3 1.9.9 1.9-.5 0 .2 1.2 1.6 2.7 2.2 2.5 2.2 2.6.2.9-1.3-1.1-2.3-1.5-2.3-1s1.2 1.7 2.8 2.6c1.5 1 2.1 1.8 1.4 1.8-1 0-1 .3 0 1.4.7.8 1.8 1.1 2.3.8.6-.3.4.2-.4 1.2-1.2 1.5-1.2 1.7 0 1.4.9-.2 1.3.4 1.1 1.6-.2 1.1.1 1.5.7 1.1.6-.3 1.1.1 1.1 1 0 1 .5 1.4 1.3.9.9-.5.9-.4-.1.7s-.7 1.7 1.4 3.6c1.5 1.3 2.2 2.3 1.5 2.3-.8 0-.7.5.3 1.6.9.8 1.3 2.1.9 2.7-.5.8-.2.8.8 0 1.3-1 1.6-1 1.6.5 0 .9-.5 2.3-1.1 3.1-.7.9-.7 1.2-.1.9.6-.4 1.5-.4 2 0 1.7 1.2 5.1 5.6 3.8 4.8-.9-.5-1.1-.2-.7.8.3.9 1 1.3 1.5 1 .5-.3.9-.2.8.3-.4 2.2.3 3.3 1.9 3.4 1.4 0 1.4.2-.3.9-1.1.5-1.4.9-.7.9.6.1 1.2.8 1.2 1.7 0 .8.5 1.2 1 .9.6-.3 1 .1 1 1s.4 1.4.8 1.1c.5-.3.9.1.9.9s-.4 1.2-.9.9c-.4-.3-.8 0-.8.5 0 .6.7 1.1 1.5 1.1 1 0 1.5.7 1.3 1.7-.2 1 .2 1.7.8 1.6.7-.1 1 .6.7 1.6-.3 1 0 2.2.6 2.5.6.4.9.1.5-.7-.3-.8 0-1.8.7-2.3.8-.4 1-.3.5.5-.4.6-.3 1.8.4 2.6.8 1 .8 1.5-.1 2.1-.8.5-.9.3-.4-.6.5-.9.4-1.1-.4-.6-.9.6-.9 1.1 0 2.2.6.7 1.5 1.2 1.9.9.5-.3 1.2 0 1.6.6.4.8.3.9-.4.5s-1.2-.2-1.2.3c0 .6.4 1.1.9 1.1s1.2.7 1.5 1.6c.3.8.2 1.3-.3 1-.5-.4-.7.3-.4 1.3.3 1.1 1.3 2.1 2.3 2.4 1.2.3 1.7 1.2 1.5 3.1-.3 2.2-.1 2.5 1 1.6.8-.7 1.5-.7 1.9-.1.4.5.2 1.2-.4 1.6-.5.3-1 1.1-1 1.6 0 .6.4.7 1 .4.5-.3.7 0 .4.8-.3.8.2 1.7 1.1 2.1.9.3 1.3 1 1 1.6-.3.5-.2 1 .4 1 .7 0 .7.8.1 2.6-.6 1.4-.7 2.3-.2 2.1.4-.3 1.6.7 2.6 2.1 1.1 1.4 1.4 2.2.8 1.8-.7-.4-1.2-.2-1.2.3 0 .6.8 1.1 1.9 1.1 1.4 0 1.8.6 1.5 2.7-.1 1.5.2 3.3.7 4 .6.7.7 1.8.3 2.5-.6 1.1-.5 1.1.8 0 1.3-1 1.7-1 2.2.3.3.9.2 1.3-.3 1-.5-.3-1.2-.1-1.6.5-.3.5-.1 1 .4 1 .6 0 1 .3 1 .7-.1.5-.1 1.4 0 2.2.1 1.1.4 1.1 1.8 0 1.5-1.3 1.5-1.2.4.8-1 2-.9 2.3.6 2.3 1 0 1.4.4.8.8-1.4 1-1.6 4.4-.2 3.5.7-.4.8 0 .3 1.2-.6 1.6-.4 1.6 1 .4 1.6-1.3 1.6-1.2.5.8-.9 1.7-.9 2.3 0 2.3.7 0 1 1.3.7 3.4-.2 1.9-.1 3.4.2 3.4 2.7-.2 3.2.2 1.9 1.9-1.1 1.3-1.1 1.5-.1.9s1.3-.2 1.1 1.5c-.4 2.6.8 5.2 2 4.5.4-.3.8.1.8.9s-.5 1.1-1.1.8c-.6-.4-.4.1.4 1.1s1.3 3.1 1.2 4.5c-.2 2 .3 3.1 2 4 1.3.6 1.5.9.6.7-1-.3-1.8-.1-1.8.4 0 .6.4 1 1 1 .5 0 .7.7.3 1.5-.3.9.3 2.3 1.3 3.1 1.1.9 1.4 1.3.7 1-.6-.4-1.4-.2-1.8.4-.3.5.1 1 .9 1s1.8.4 2.1 1c.4.6-.1.7-1.2.4-1.6-.5-1.6-.4.1 1 1.1.9 1.6 1.6 1.2 1.6-.5 0-.2.8.5 1.7 1.2 1.4 1.2 1.6 0 .9-.9-.6-1.2-.5-.9.5.3.8.1 2.2-.4 3.2-.5.9-.5 1.7-.1 1.6 1.9-.3 3.3.2 3.3 1.2 0 .5-.6.7-1.2.4-.7-.4-.5 0 .5.8 1.8 1.5 2.4 3.2.7 2.2-.6-.3-.7.1-.4.9.3.9 1.1 1.3 1.8.9.6-.3.6-.1-.1.8-1.6 1.6-1.7 4.3-.2 3.3.7-.4.7.1-.1 1.6-.7 1.2-.8 2-.3 1.7.4-.3 1.5.2 2.3 1.1 1.3 1.4 1.2 1.5-.2.9-1.2-.4-1.5-.2-1.1.8.3.8 1 1.2 1.7.8.6-.4.6 0-.2.9-1 1.3-1 1.7 0 2.1 1.1.4 1 .7 0 1.5-1.1.7-1 1 .3 1.6 1.5.5 1.5.9.4 2.3-1.2 1.4-1.2 1.6.2 1.1.9-.4 1.6-.1 1.6.7 0 .7-.8 1-2.1.7-1.8-.5-1.8-.4-.5 1 .7.9 1.9 1.3 2.4 1 .6-.3.5.1-.2.9-1 1.2-.9 2 .3 3.7 1.1 1.6 1.2 2.2.3 2.2-.7 0-.5.9.7 2.2 1 1.2 1.3 1.8.5 1.3-1.1-.6-1.3-.4-.8.8.6 1.5-.3 2.2-2.5 1.8-.4 0-.5.5-.2 1.3s.1 1.7-.5 2.1c-.6.3-1.1 0-1.1-.7 0-1-.3-.9-.9.2-.6.8-.7 1.8-.5 2.2.3.5-.6.3-2-.4-1.4-.6-2.6-1.8-2.6-2.5 0-.8-.5-1.1-1.2-.7-1 .6-1 .4 0-.7.6-.7 1.2-1.8 1.2-2.3 0-.6-.5-.4-1 .4-.8 1.3-1 1.2-1-.3 0-1-.4-1.5-1-1.2-.5.3-1-.1-1-.9 0-.9-.6-1.6-1.2-1.6-.9 0-.8-.4.2-1s1.1-1 .3-1c-.7 0-1.3-.8-1.3-1.8 0-1.1-.3-1.3-.8-.5s-1.1.3-1.9-1.3c-1-2.1-.9-2.3.1-1.5.9.8 1.3.7 1.3-.4 0-.7-.3-1.4-.6-1.3-.3 0-1.5 0-2.6-.1-1.5-.1-1.6-.4-.7-1.3 1.5-1.5 1.5-2.9 0-2.6-.7.2-1.2-.2-1.3-.7-.1-2-1.7-3.6-3.2-3.1-.8.3-1.1.2-.8-.3.3-.5.1-1.3-.5-1.6-.8-.5-.7-1.2.2-2.2 1.1-1.4 1-1.5-1.1-.8-1.5.4-2.1.4-1.7-.3.8-1.3-.4-4.3-1.4-3.7-.4.3-1.3-.2-2-1-1.1-1.3-1-1.4.5-.9 1.3.5 1.6.4 1.1-.4-.4-.7-1.3-1.2-2-1.2-.8 0-2-.8-2.7-1.7-1-1.1-1-1.4-.1-.9 1.9 1.1 1.4-.3-.9-2.7-1.2-1.2-1.8-1.6-1.4-.8.6 1 .4 1.2-.4.7s-.9-1.2-.2-2c.7-.9.4-1.7-1-2.9-1.1-1-1.7-2.3-1.3-2.9.4-.7.3-.8-.5-.4-.6.4-.9 1.3-.5 1.9.3.7-.2.3-1-.8-.9-1.1-1.4-2.6-1.1-3.3.3-.9 0-1.2-.7-.9-.7.2-1.9-.2-2.6-.9-.7-.8-1-1.4-.7-1.4.3 0-.3-.8-1.2-1.8-1-1.1-2.2-1.7-2.7-1.4-.5.3-.6 0-.2-.6.4-.7.2-1.2-.3-1.2-.6 0-1.1-.5-1.1-1.1 0-.5.5-.7 1.2-.3.7.4.8.3.4-.5-.4-.6-2.1-1.8-3.7-2.6-1.6-.9-2.7-2-2.4-2.5.4-.6.1-1-.5-1s-.8-.4-.5-1c.3-.6-.1-.7-.9-.4-1.4.6-2.1-1-1.7-3.8 0-.4-.7-.4-1.6-.1-1.3.5-1.5.2-1-1.2.6-1.4.5-1.6-.6-.7-1.7 1.4-2.8.6-2-1.6.5-1 .3-1.3-.6-.8-.8.5-1.4.1-1.8-1.3-.3-1.2-.9-2.1-1.3-2.1-1.2 0-6.6-5.3-7.3-7.3-.3-.9-1.3-1.7-2.2-1.7-.8 0-1.5-.5-1.5-1 0-.6-.7-1-1.6-1-.8 0-1.3-.4-.9-.9.3-.5-.4-1.3-1.6-1.6-1.7-.6-1.9-.9-.8-1.7 1-.7.8-.9-.8-.5-1.7.4-2.1.1-1.8-1.5.4-1.7.2-1.8-1.1-.7-.8.7-1.4.8-1.3.3.5-2.7-.1-3.6-1.6-2.4-1.2 1-1.4.8-1-.9.2-1.2-.1-2.1-.6-2.1s-2.1-1.2-3.5-2.7c-1.9-2.1-2.4-2.3-1.9-.7.5 1.5.3 1.4-.7-.4-1-1.7-1.7-1.9-2.5-1.1-.9.9-1.1.7-.6-1 .4-1.7.1-2.1-1.7-2.1-2 0-2.1-.2-.9-1.7 1.3-1.5 1.2-1.5-.8-.4-1.8.9-2.2.9-1.8-.2.4-.8-.8-1.8-3-2.6-1.9-.7-3.3-1.7-3-2.2.4-.5.1-.9-.5-.9s-.9-.4-.6-.9c.4-.5-.4-.7-1.6-.5-1.3.2-1.7.2-1-.2.6-.3 1.2-1 1.2-1.5 0-.6-.4-.8-.9-.4-.5.3-1.6-.2-2.4-1-.9-.8-2.3-1.5-3.2-1.5-.9 0-1.3-.5-1-1 .3-.6-.1-1-.9-1-.9 0-1.6-.8-1.6-1.8 0-1.4-.2-1.5-1-.2-.7 1.1-1 1.1-1 .2 0-.7-.5-1-1-.7-1.3.8-.8-1.7.5-2.8.6-.5 0-.6-1.1-.2-1.3.3-2.8 0-3.7-1-1.2-1.1-1.7-1.2-2-.2-.3.6-.6.3-.6-.7-.1-1.1-.4-1.6-.8-1.2-.4.3-1.3-.4-2-1.6-.7-1.3-1.2-1.7-1.3-1.1 0 .8-.8.5-2-.7s-2.5-1.8-3-1.5c-.6.4-1 .1-1-.5s-.7-1.8-1.5-2.6c-1.5-1.6-2.1-.6-.7 1.2.4.5-.1 0-1.2-1.1-1-1.1-2.1-2-2.5-2-.3 0-.5-.3-.4-.7.1-.3-.4-.9-1.3-1.2-1-.4-1.3-.1-.9.7.4.6 0 .4-.8-.6-.8-.9-2-1.7-2.6-1.7-.6 0-2.4-.9-4-2-1.5-1.2-3.6-2.2-4.8-2.2-1.5-.2-1.9-.7-1.5-2.3.4-1.6.2-1.8-.8-.8-1 .9-1.6.8-2.9-.6-.9-.9-1.1-1-.6-.2.9 1.2.7 1.2-1.3.2-1.2-.7-2-1.6-1.7-2.1.3-.5.1-1.1-.4-1.4-.5-.4-1.2-.2-1.6.4-.3.5-1.2 1-1.8 1-.7 0-.6-.4.3-1 1.1-.7 1.1-1 .2-1-.7 0-1-.5-.6-1.1.4-.7-.1-.7-1.6.1-1.7.9-2.1.9-1.5 0 .5-.9.1-1-1.6-.6-1.3.3-1.8.3-1.1 0 3-1.4 1.2-2.4-4.8-2.6-1.4 0-1.9-.3-1.2-.5.6-.3 1-.9.7-1.3-.3-.5-1.2-.7-2-.3-.8.3-1.5 0-1.5-.6 0-.7-.6-1.1-1.2-1-2.5.3-3.8-.1-3.8-1.2 0-.8.5-.8 1.5.1s1.5.9 1.5.1c0-1.1-1.2-1.5-4.3-1.1-1 .1-2.5-.7-3.3-1.7-.7-1-1.4-1.4-1.4-.9 0 .5-.8.2-1.7-.5-.9-.8-1.4-.9-1-.2 1 1.7-1.9 1-4.1-1-1-.9-2.3-1.7-2.9-1.7-.6 0-1.3-.5-1.5-1-.2-.6-1.4-1.2-2.8-1.3-2.8-.1-5.3-2.1-4.2-3.2.4-.5.1-.5-.6-.1s-1 1.1-.7 1.6c.3.5.1 1.2-.5 1.5-.6.4-1 .3-.9-.2.4-2.2-.3-3.1-2.1-2.8-1.1.2-2.6-.2-3.4-1-.7-.8-1.6-1.1-2-.8-.3.4-.6.2-.6-.4 0-.6-.9-.9-2-.6-1.2.3-2 0-2-.7 0-.9-.4-.9-1.7.1-1.4 1.2-1.6 1.2-.8 0 .6-1.1.3-1.3-1.3-.9-1.5.4-1.9.2-1.5-1 .5-1.1.1-1.4-1.8-1-1.5.2-3.1-.2-3.9-1-1.2-1.3-1.5-1.3-2.1.4-.7 1.7-.8 1.7-.8.1-.1-.9-.6-1.7-1.2-1.7-.5 0-.7-.6-.3-1.3.6-.9.5-.9-.7 0-1.1.9-5.4 1.2-5.4.3 0-.1-.8-.3-1.8-.5-.9-.2-1.5.1-1.1.6.3.5 1 .6 1.6.3.7-.4.8-.2.4.4-.4.6-1.3.9-2.1.5-.8-.3-1.5 0-1.5.7 0 .6-.4.8-1 .5-.5-.3-1.2.7-1.6 2.2-.3 1.5-.7 3.4-1 4.1-.2.7.1 1 .6.7.6-.3 1 0 1 .8s.7 1.8 1.6 2.1c2.4.9 3.6.7 2.8-.6-.4-.7-.3-.8.4-.4.6.4.9 1.3.6 2-.3.8 0 1.7.7 2.2.8.5 1 .3.4-.7-.7-1.2-.6-1.2.7-.1 1.3 1 1.7 1 2.1 0 .3-.7.6-.4.6.7.1 1.7.3 1.7 1.1.5s1-1 1 1 .2 2.2 1 1c.9-1.3 1-1.3 1 0s.1 1.3 1 0c.7-1.1 1-1.1 1-.2 0 .8.5 1 1.2.6.7-.5.9-.2.6.7-.4 1 .3 1.5 2.5 1.6 1.7.1 3.6 1.1 4.4 2.3 1.3 1.8 1.7 1.9 3.1.8 1.1-.9 1.4-.9.9-.1-.6.9.1 1.1 2.3.8 1.7-.2 2.8 0 2.4.6-.3.5-1 .7-1.5.4-.5-.4-.6.2-.2 1.1.4 1.1.8 1.3 1.1.6.2-.8.9-.9 2.3-.2 1 .6 1.9.7 2 .3 0-.4.4.2.9 1.4.6 1.5 1.6 2.1 3.4 1.9 1.6-.2 2.6.2 2.6 1 0 .7.5 1.6 1.2 2 .8.5.9.2.4-1.1-.6-1.8-.6-1.8 1.5.1 1.1 1 2.4 1.8 2.8 1.6.3-.1.7.2.7.8.3 2.3.5 2.4 1.4 1 .9-1.3 1-1.3 1.1 0 .1.8.1 1.9 0 2.3-.1.5.3.6.8.2.6-.3.7-1.3.4-2.3-.6-1.6-.6-1.6 1.1 0 .9 1 1.5 2.2 1.2 2.7-.3.5.4.7 1.6.3 1.3-.3 1.9-.1 1.5.5-.6 1 1.1 2.2 4 2.9.6.1 2.4 1.4 4 2.8 1.5 1.4 3.5 2.6 4.5 2.6.9 0 2.2.8 2.7 1.7.8 1.3 1 1.4 1.1.4 0-1.1.4-1 1.3.4.8 1 1.9 1.5 2.4 1.2.6-.4 1.3.3 1.6 1.4.4 1.6 1.1 2 2.7 1.6 1.7-.4 1.9-.3 1 .8-.9 1-.5 1.3 1.8 1.1 2.1-.1 2.8.3 2.9 1.6.1 1.1-.3 1.6-.9 1.2-.7-.4-.8-.2-.4.4.4.6 1.2.9 1.9.6.7-.2 2.1.4 3.1 1.5s2.5 1.7 3.3 1.4c1-.4 1.3 0 1.1 1.2-.2 1 .4 2 1.2 2.2 1.3.4 1.3.3 0-.7s-1.2-1.1.3-.6c1 .3 2.1.6 2.3.6.3 0 .2.5-.2 1.2-.5.8-.2.9 1 .5 1.1-.5 1.5-.3 1 .5s-.2.9 1 .5c1.3-.5 1.5-.3.7 1.2-.9 1.6-.7 1.8 1.5 1.5 1.6-.1 2.9.5 3.7 1.7.6 1 1.7 1.9 2.4 1.9s1.3.6 1.3 1.4c0 .8.5 1.8 1.2 2.2.6.4.8.3.5-.3-.3-.5 0-1 .6-1 .7 0 1.4.9 1.4 1.9.1 1.1-.3 1.6-.9 1.2-.7-.5-.8-.2-.3.6.6 1 1.1.9 2.2-.5 1.1-1.6 1.3-1.6 1.3-.3 0 .9.7 1.9 1.6 2.2.8.3 1.3 1 1 1.5-.3.5.1 1.2 1 1.5 1 .4 1.3.2.9-.7-.4-.6 1.1.8 3.3 3.2 2.7 2.9 4.5 4.1 5.4 3.5.9-.6.9-.3-.2 1.2-.8 1-1.1 1.6-.6 1.2.5-.4 1.4-.2 2.2.5 3.4 3 4.2 3.5 5 2.9.5-.4.2.1-.6 1.1-.7 1-.9 1.7-.4 1.6 3.3-.5 6 2 5.6 5.2-.1.4.9.4 2.1.1 1.2-.3 1.9-.2 1.5.3-.4.4-.1 1.3.5 2 .9 1 1.5 1 2.6.2 1.1-1 1.3-.8.7 1.1-.5 1.6-.3 2.2.7 2.2 1.3 0 3.1 3.3 2.8 5.2 0 .4.7.4 1.6.1 1.1-.4 1.4-.3.9.5-.5.8-.1 1 1 .5 1.2-.4 1.5-.3 1 .5-.4.8 0 1.2 1.1 1.3 1 0 1.3.3.6.6-1 .3-1 .7 0 1.8.9.9 1.4 1 1.9.1.5-.6.8-.2.8 1.1 0 1.4.6 2.3 1.6 2.3.8 0 1.2.4.9 1-.3.6.4 1 1.7 1.1 2.2 0 2.2.1.3.9-1.9.8-1.9.9.2.9 1.7.1 2.1.5 1.6 1.8-.4 1.1-.3 1.4.5.9.7-.4 1.2-.2 1.2.4 0 .6.5.8 1.3.4.8-.6.8-.3-.1.9-1.2 1.4-1.1 1.6.7 1.2 1.3-.2 1.8.1 1.5 1-.3.7 0 1.6.7 2.1.8.4 1 .3.5-.4-1.5-2.4.1-1.1 2.3 1.9 1.3 1.8 1.9 2.9 1.2 2.5-.7-.5-.9-.1-.5.8.3.9.9 1.5 1.2 1.4 1.8-.2 3.2.3 3.2 1.2 0 .5-.8.7-1.7.4-1.7-.5-1.7-.5 0 .6.9.6 2.3.8 3 .4.7-.5.6 0-.3 1.1-.9 1.1-1 1.6-.2 1.1.7-.4 1.2-.1 1.2.9s.5 1.3 1.2.9c.8-.5.9-.2.5 1-.4 1-.3 1.5.4 1.1 1.5-1 3.9 1.4 3.2 3.2-.5 1.3-.2 1.5 1.2 1 1.5-.6 1.6-.5.5.8-1 1.2-.8 1.6 1.4 2.6 1.4.7 2.3 1.6 2 2-.3.5 0 .9.6.9s.8.5.4 1.2c-.5.8-.2.9 1 .5 1-.4 1.5-.3 1.1.3-.7 1.1.7 4.1 2.1 4.3.5.1.8 1 .8 1.9-.1 1 .5 1.8 1.3 1.8 1.4 0 3.4 3.9 2.6 5.2-.2.5 0 .8.6.8.5 0 1.2-.6 1.5-1.3.3-.6.3 0 .1 1.5-.2 1.5.1 3.1.7 3.4.7.4.8.2.4-.4-.4-.8-.2-1 .8-.6.8.3 1.2 1.2.9 2-.3.8.1 1.4 1.1 1.4.9 0 1.6.5 1.6 1.1 0 .5-.4.8-.9.4-.5-.3-1.2-.1-1.5.4-.4.5.5.8 2 .6 1.7-.2 2.2.1 1.5.8-.7.7-.5 1.5.7 2.4.9.8 1.2 1.2.5.9-.6-.4-1.5-.2-1.8.4-.4.6-.3 1 .2.9 2.3-.4 4.3.2 3.8 1.1-.4.6-1.1.7-1.7.4-.7-.4-.8-.2-.4.5.4.6 1.1.9 1.6.6.4-.3 1.3.2 2 1s.9 1.5.4 1.5-.3.4.5.9c1.3.8 1.3 1.2 0 2.7-.8 1-.9 1.5-.3 1.1 1.4-.8 5.4 2 5.4 3.9 0 1 .5 1.2 1.3.8.8-.5.7-.2-.2 1-1.3 1.5-1.2 1.8.8 2.3 1.7.4 1.9.8.9 1.4-1 .7-1 .9 0 .9.6 0 1.2.5 1.2 1.1 0 .5-.5.7-1.2.3-.7-.4-.8-.3-.4.5.6.8 1.2.9 2 .2.9-.8 1.2-.6 1.1.7-.1 2.3-4.2 6.4-5 5.2-.4-.6-1.2-1-1.8-.9-.8 0-.8.2.1.6 1.6.6-.3 3.3-2.5 3.3-.9 0-1.1.5-.7 1.2.4.7-.2.4-1.4-.6-1.2-1.1-2.2-1.4-2.2-.8 0 .6.6 1.2 1.3 1.5.9.3.9.8-.2 1.8-1.2 1.2-1.3 1.2-.6 0 .6-1.1.4-1.3-.9-.8-1 .4-2 .7-2.2.7-.3 0-.2.6.2 1.2.5.9.2.8-.9-.1-1.5-1.2-1.7-1.2-1.1.3.4.9.3 1.6-.2 1.5-1.6-.2-5.4 1.3-5.4 2.2 0 .5-.5.9-1.1.9-.5 0-.7-.6-.4-1.3.4-.6.1-.5-.7.4-.7.9-1.8 1.4-2.4 1.2-.6-.2-1.4.5-1.7 1.6-.4 1.7-1 1.8-4.1 1.1-3.3-.7-3.5-.6-2.4.8s1 1.5-.6.9c-1.5-.6-1.6-.5-.8.6.9 1 .4 1.2-2.5.9-2.5-.3-3.4-.1-2.9.7.4.7 0 1.1-1.1 1.1s-2.5.6-3.2 1.2c-1.1 1.1-1.2 1-.6-.2.7-1.2.6-1.3-.6-.4-.8.6-2.5 1-3.9.8-1.4-.1-1.9 0-1.2.2 1.7.8 1.5 2.5-.3 1.8-.8-.4-1.5-.1-1.5.6 0 1-.3 1-1.5 0-.9-.7-1.8-1-2.2-.6-.3.3 0 .6.8.6 1 .1.9.4-.4 1.1-.9.6-1.4 1.5-1.1 2.1.4.7.2.8-.5.4-.6-.4-.9-1.1-.6-1.6.3-.5 0-1.2-.6-1.6-.8-.4-.9-.3-.5.4.6 1.1-1.2 1.7-3.6 1.3-.5 0-.8.4-.8 1 0 .7-1.1.9-2.7.5-1.6-.3-2.2-.3-1.5 0 1.9.8 1.4 2-.8 2.1-1.3.1-1.8-.2-1.3-1 .4-.7.1-.7-1 .1-.9.8-2.1 1.1-2.7.7-.5-.3-1-.1-1 .4 0 .6-.5 1.1-1.1 1.1-.5 0-.7-.6-.3-1.3.6-.9.5-.9-.8 0-.8.7-1.9.9-2.3.5-.5-.4-.5-.1-.1.6s1.2.9 1.8.6c.6-.4.8-.2.4.4-.3.6-1.6.9-2.8.7-1.2-.3-2.7 0-3.4.6-.8.7-1.4.7-1.9-.1-.3-.6-1.1-.8-1.6-.4-.5.3-.7 1-.4 1.5.9 1.4-.2 1.1-1.9-.7-1.4-1.3-1.6-1.3-1.6-.1 0 .9.6 1.7 1.3 2 .6.2-.9.3-3.5.2-3-.1-4.8.2-4.8.9s-.3.7-.8.1c-.9-1.3-4.2-1.6-4.2-.4 0 .5-.5.9-1.1.9-.5 0-.7-.5-.4-1.1.4-.6-.2-.5-1.4.3-1.2.7-2.1 1.6-2.1 2 0 .5-.4.8-1 .8-.5 0-.8-.6-.6-1.3.1-.6.1-.9-.1-.5-.3.5-1.1.8-1.9.8-.9 0-1.2.5-.8 1.2.5.7.3.8-.7.3-1.2-.8-3.2-1-7-.6-.5.1-.7.7-.4 1.3.4.7-.1.4-.9-.6-1.6-1.9-1.6-1.9-1.6.3 0 2-.1 2.1-1.6.7-2-2.1-2.5-2-1.7.1.6 1.6.5 1.7-1.2.3-1.3-1-1.6-1.1-1.1-.2 1 1.6-2.5 1.3-3.6-.3-.4-.6-.8-.2-.8.7 0 1-.5 1.8-1.1 1.8-.5 0-.7-.5-.4-1 .8-1.2.8-1.2-3.3 0-3 .8-3.3.7-2.8-.8s.5-1.5-.6-.1c-1.8 2.1-4.6 3-5.4 1.7-.5-.7-.2-.8.6-.3.9.5 1.1.4.6-.4-.6-.8-1.2-.9-2-.2-.7.6-1.7.7-2.1.3-.5-.4-.5-.1-.1.6s1.1 1 1.5.8c.4-.3.8.1.8.9 0 .9-.4 1.1-1.1.6-1.4-1.1-11.6-1.9-10.9-.8.2.4-.8.5-2.3.1-1.9-.5-2.5-.4-2 .5.4.6.3 1.1-.3 1.1-.5 0-1.1-.5-1.3-1.1-.2-.7-1.2-.7-3.2.1-2.5.9-2.8.8-2.2-.7.6-1.4.4-1.5-.5-.6-.6.6-1.8.9-2.7.6-1.1-.5-1.3-.3-.7.8.7 1.2.6 1.2-.7.1-1.3-1-1.7-1-2.1 0-.4 1-.6 1-.6-.1-.1-1.1-.4-1.1-1.6-.1-1.2 1-1.5 1-1.5-.1 0-.8-.6-.5-1.5.7-1.3 1.6-1.4 1.6-.9.1.3-.9.3-1.7-.1-1.7s-1.4.8-2.2 1.7c-.8 1.2-1.2 1.3-1.1.4.2-.7-.5-1.5-1.5-1.6-1.4-.3-1.6 0-.7 1 .9 1.1.7 1.2-.8.8-1.1-.2-2.3 0-2.6.6-.4.7-1.9.3-4.2-1-2-1.1-3.3-1.5-2.9-.9.8 1.3-.8 1.3-2.1 0-.7-.7-1.1-.6-1.1.4 0 .8.4 1.3.9 1 .4-.3.8 0 .8.5 0 1.4-1.7 1.4-2.5.1-.4-.6-1.2-.7-1.8-.3-1.9 1.2-5.1 1.1-5.9-.1-.5-.7-1.1-.8-1.5-.1-1 1.3-3.3 1.8-3.3.7 0-.4-.9-.8-1.9-.8-1.6 0-1.8.3-.8 1.5s.9 1.3-1.1.2c-1.2-.7-3.6-1-5.2-.7-1.7.2-3 .1-3-.3s-.9-.7-1.9-.7c-1.1 0-1.7.4-1.5.8.3.4 0 .8-.5.8-.6 0-1.1-.5-1.1-1.2 0-.9-.3-.9-1.2 0-.8.8-1.7.8-3.1.1-1.1-.7-1.7-.7-1.3-.1.3.5-.5.9-1.9.9s-2.2-.4-1.8-1c.4-.6.1-.7-.8-.1-1.9 1.2-5.1 1.6-4.5.6.3-.5-.1-.9-.9-.9s-1.2.4-.9.9c.3.4.1.8-.5.8-.5 0-1.2-.6-1.4-1.3-.3-.6-.6-.3-.6.8-.1 1.6-.3 1.7-1 .6-1-1.6-4.1-2.4-4.1-1.1 0 1-2 .8-3.9-.4-1-.6-1.2-.5-.7.2.5.8-.2 1.2-1.9 1.2-1.4 0-2.4-.4-2.1-.9.7-1-2-.9-3 .2-1.2 1.2-2.6.8-1.8-.6.5-.8.2-.8-.9.2-1.4 1.1-2 1.1-3.4 0-.9-.8-1.4-.9-1-.3.4.7-.2 1.4-1.4 1.7-1.6.4-1.8.3-.8-.9 1.1-1.4-.1-2-1.5-.7-1 1-4.8 1.5-4.2.5.2-.4-.4-.8-1.4-.8-1 0-1.7.3-1.4.7.2.4-.7.6-2.1.6-1.4 0-2.2-.4-1.8-1 .4-.6.1-.7-.8-.1-2 1.2-5.1 1.6-4.5.5.3-.5-.2-1.5-1.2-2.2-1.5-1.3-1.6-1.2-.3.3 1.2 1.6 1.1 1.8-.3 1.9-.9.1-2.2.2-2.8.3-.7.1-1.9-.3-2.7-.8-1.1-.8-1.3-.8-.7.1.4.7.3 1.3-.3 1.3-.5 0-1.2-.6-1.4-1.3-.3-.6-.6-.3-.7.8-.1 1.9-.1 1.9-1.1.2-.7-1.2-1.5-1.5-2.2-.9-.7.4-3.2.8-5.7.7-2.5-.1-5.4.3-6.5.8-1.7.9-1.8.8-.8-.5 1-1.2 1-1.5-.2-1.5-.8 0-1.5.4-1.5.8s-.7 1-1.6 1.3c-1.5.6-1.5.4-.3-1.1 1.5-1.8 1.4-1.8-3.8.4-.7.3-1.3-.1-1.3-.8 0-1.1-.3-1.1-1 .1-.8 1.3-1 1.3-1 .1 0-1.1-.4-1-1.3.4-1.1 1.4-1.6 1.5-2.2.5-.6-.9-.4-1.1.5-.5.9.5 1.1.4.6-.4-.6-.9-1.1-.9-2.2 0-.8.6-1.4.8-1.4.4s-.8-.1-1.7.6c-.9.8-1.4.9-1 .3.4-.7 0-1.5-.9-1.8-.8-.3-1.3-.2-1 .3.3.5-.1 1.2-1 1.5-.8.3-1.3.2-1-.3.3-.5-.1-1.2-1-1.5-.9-.3-1.2-.2-.8.5.4.7-.6.9-3.1.5-2.7-.5-3.4-.3-2.9.6.6 1 .4 1-.8 0-1.1-.9-1.8-1-2.3-.2-.3.6-1.2.7-1.8.3-1.6-1-4.8-1-7.1 0-1.3.7-1.6.6-1.1-.3.9-1.4-2.7-1-3.7.5-.5.6-.8.5-.8-.3 0-1.7-2.9-1.5-3.6.3-.6 1.6-2.4 1.1-2.4-.6 0-.6.5-.7 1.2-.3.7.5.8.3.3-.6-.6-1-1-1-1.9.3-.9 1.1-1.7 1.2-2.9.6-1.2-.7-1.7-.6-1.7.3 0 .9-.3.9-1-.2-.8-1.2-1-1.2-1 .5 0 1.1-.3 1.6-.8 1-1.2-1.8-5.4-1.5-6.8.3-1.2 1.5-1.3 1.4-.9-.8.4-2.3.3-2.3-.9-.8-1.3 1.8-3.2 2.6-2.2 1 .9-1.5-2.8-1-4.6.5-1.3 1.1-2.1 1.2-3.7.3-1.2-.6-2.1-.7-2.1-.2 0 .4-2.1.7-4.7.7-2.7-.1-5.3.3-6 .7-.6.5-1.4.5-1.8-.2-1-1.7-2.5-1.1-1.9.7.5 1.5.4 1.5-.4.4-1.2-1.6-4.2-2.4-4.2-1.1 0 1-3.5 2.3-6.7 2.4-1.2.1-1.9-.2-1.7-.6.3-.4 0-.8-.5-.8-.6 0-1.1.4-1.1 1 0 .5-.7 1-1.6 1-.9 0-1.2-.5-.8-1.3.5-.8.2-.8-.9.2-1.4 1.1-2 1.1-3.4 0-.9-.8-1.4-.9-1-.3 1.1 1.9-6 2.3-7.9.4-.9-.8-1.4-.9-1-.3.4.7.2 1.3-.5 1.3-.8 0-.8.4-.1 1.2.8 1-.1 1.3-3.9 1.2-3-.1-4.9.3-4.9 1 0 .8-.3.8-.8 0-.8-1.1-5.3-1.4-4.6-.3.2.4-.3.9-1.1 1.2-1 .4-1.2.1-.9-1.1.5-1.3.4-1.4-.4-.3-.6.8-1.5 1-2.3.5-1.1-.6-1.2-.5-.2.7s.8 1.5-.7 1.5c-1 0-1.6-.5-1.3-1 .4-.5.1-.6-.7-.1-.8.5-3.4.9-5.9 1.1-2.7.1-4.5.7-4.4 1.3.4 1.4-1.4 1.4-2.2 0-.5-.7-1.4-.3-2.7 1-1.1 1.3-2.4 1.8-3.1 1.4-2-1.3-3.6-1.2-3.1.2.3.7 0 1.6-.7 2.1-.7.4-1 .3-.6-.3s0-1.4-.9-1.7c-.8-.3-1.2-.2-.9.3.3.5.1 1.2-.5 1.6-.5.3-1 .1-1-.6 0-.8-.3-.9-1.4 0-1.4 1.2-4.2 1.1-6.6-.3-1.2-.7-1.2-.6-.3.4 1.2 1.3.7 4-.9 4-.5 0-.6-.5-.3-1 .3-.6.1-1-.4-1-.6 0-1.1.5-1.1 1.2 0 .6-.3.8-.7.5-.3-.4-1.3-.1-2.1.6-.9.6-1.3.7-.9.1.3-.6 0-1.1-.8-1.1s-1.2.4-.9.9c.3.4 0 .8-.6.8s-.9.4-.6.8c.2.4-.4.8-1.4.8-1.5 0-1.7-.3-.7-1.5s.9-1.2-1-.1c-1.2.8-1.9 1.9-1.5 2.5.3.5-.3.3-1.3-.5-1.7-1.4-1.8-1.3-1.2.3.6 1.5.4 1.6-1.3.7-1.6-.9-2.2-.7-2.6.5-.4.9-1.3 1.4-2.1 1.1-.8-.3-1.1-.1-.8.4.3.6.2 1-.4 1-.5 0-1.2-.6-1.4-1.3-.3-.6-.6-.1-.7 1.3-.1 1.4-.4 1.9-.7 1.2-.2-.6-.9-1.2-1.4-1.2-.6 0-.8.4-.5.8.3.5-.1.9-.9.9s-1.5-.4-1.5-.9c0-.4-.8 0-1.8.9-1.1 1-1.7 2.2-1.4 2.6.2.5-.5.4-1.7-.2-1.7-1-2.2-.9-2.7.4-.3.8-1 1.5-1.6 1.5-.5 0-.6-.5-.2-1.2.5-.7.3-.8-.5-.4-.7.5-1 1.4-.7 2.1.3.9-.4 1.2-2.5 1.1-2.2-.2-2.8.1-2.4 1.2.5 1.3.3 1.3-1.2.1s-1.6-1.2-1 .5c.6 1.6.5 1.7-.8.6-1.2-1-1.5-1-1.5 0 0 .7-.7 1-1.6.6-1-.4-1.8 0-2.1 1.3-.5 1.9-1.8 2.2-4 .8-.7-.5-1-.1-.6 1.1.3 1.2-.2 1.8-1.6 2-5.1.4-5.1.4-3.8 2.1.8.9.8 1.2.1.8-1.5-.9-6.6 1.7-5.6 2.9.4.4-.1.2-1.1-.5-1.5-1.2-1.7-1.2-1.1.3.5 1.2.2 1.5-1.2.9-1.3-.5-1.5-.3-.9.7.5.9.4 1.1-.4.6-.6-.4-1.4 0-1.7.9-.6 1.3-.8 1.4-1.5.3-.7-1-.9-1-.9-.1 0 .7-.7 1.3-1.5 1.3s-1.9.9-2.5 2.1c-.7 1.2-1.8 1.8-2.6 1.5-.9-.3-1.2-.1-.9.4.3.6.1 1-.5 1s-.8.6-.4 1.2c.4.7-.3.4-1.6-.7l-2.3-2 1.2 2.2c.8 1.6.8 2.4-.1 2.9-.7.4-.8.3-.4-.4 1.2-1.9-.8-1.4-2.6.7-.9 1.1-1.3 2.3-1 2.7.4.5 0 .3-.9-.4-1.4-1-1.7-.9-2.1.6-.3 1.1-1.9 2.5-3.6 3.3-1.7.7-2.9 1.6-2.7 1.9.1.3-.9 1.4-2.4 2.4-2.6 2-2.6 2-.8 0 .9-1.2 1.7-2.4 1.7-2.7 0-1.2-3.5 2.7-4.7 5.3-.6 1.4-1.2 1.9-1.2 1.2-.1-.6-.6-1.2-1.2-1.2-.5 0-.7.4-.4 1 .3.5.1 1-.5 1s-.8.4-.5 1c.4.6-.1.7-1.2.3-1.6-.6-1.7-.5-.3 1.2s1.4 1.8-.5.8c-1.7-1-2.3-.6-4.3 2.3-1.2 1.9-2.9 3.4-3.6 3.4-.8 0-1.7.7-2 1.6-.3.9-1.1 1.2-1.8.8-1-.6-1-.5-.1.7 1 1.3 1 1.6-.2 1.7-.8.1-2.2.3-3 .4-1 .1-1.2.5-.5 1.3 1.2 1.5-1.5 2.9-3.2 1.8-.7-.3-.8-.1-.4.5.4.7.2 1.2-.4 1.2-.6 0-.8.4-.5 1 .3.5-.1 1-.9 1s-1.8.5-2.2 1.2c-.4.6-.3.8.4.4.6-.3 1.4-.1 1.8.6.4.7.4 1-.1.6-1.1-1.1-4.7 1.1-3.9 2.4.4.7.3.8-.4.4s-1.2-.2-1.2.4c0 .6-.4.8-1 .5-.9-.5-1.5 1.6-1.1 3.8.1.5-.3.6-.8.2-.6-.3-.8-1.3-.5-2.3.5-1.5.5-1.5-.6.1-.6.9-.8 2.3-.4 3 .5.7 0 .6-1.1-.3-1.1-.9-1.6-1-1.1-.3.4.7.2 1.3-.3 1.3-.6 0-1.1.5-1.1 1.1 0 .5.5.7 1.2.3.7-.4.8-.3.4.5-.6.9-1.1.9-2.2 0-1.2-1-1.3-.9-.8.6.6 1.4.4 1.6-.6 1-1-.6-1.2-.4-.7 1 .6 1.4.3 1.6-1.3 1.2-1.8-.5-1.9-.3-.8 1.1 1.1 1.4 1 1.5-.6.9-1.4-.6-1.7-.4-1.2.8.3.9.2 1.3-.4 1-.6-.3-1-.2-1 .2 0 .5-1.2 1.6-2.7 2.6l-2.8 1.7 3-.5 3-.6-3.1 1.4c-1.7.8-3.4 2.2-3.8 3.2-.4 1.1-1.2 1.5-2.2 1.1-1.4-.6-1.5-.4-.4.9.7.9.9 1.5.4 1.4-2.1-.4-2.8.2-1.4 1.1 1.2.8 1 1-.8 1-1.6 0-2.6.7-2.9 2.1-.5 1.6-.8 1.8-1.5.7-.7-.9-.8-.7-.5 1 .3 1.2.1 2-.4 1.6-.5-.3-.9.1-.9 1 0 .8-1.3 2.6-3 3.9-1.6 1.4-3 3.1-3 3.7 0 .6-.4.8-1 .5-.5-.3-1 .1-1 1s-.4 1.4-.8 1.1c-.5-.3-1.6.8-2.6 2.5-.9 1.6-2.4 2.9-3.2 2.9-.8 0-1.2.5-.9 1 .4.6 1.1.7 1.7.4.7-.4.8-.2.4.4-.4.6-1.4.8-2.3.5-1.1-.4-1.4-.2-.9.5.4.6-.4 1.8-1.9 2.8-1.3.9-2.3 1.9-2.1 2.3.5.8-2 3.1-2.8 2.4-.3-.3-.3.4-.1 1.7.4 1.9.2 2-1.2.8-1.2-.9-1.5-.9-.9-.1.4.7.3 1.3-.3 1.3s-.8.6-.5 1.4c.3.8 0 1.7-.7 2.2-.8.5-1 .3-.4-.5.6-1 .3-1.1-1.4-.2-1.1.7-2.1 1.4-2.1 1.7 0 .3.6.2 1.3-.2.9-.6.9-.5 0 .8-.7.8-1.1 1.8-.8 2.1.3.4.2.5-.1.3-1.1-.8-5.6 4.4-5 5.9.4 1.2.2 1.4-1.3.5-2.1-1-2.3.2-.7 2.8.7 1.1.4 1.2-1.2.3-1.5-.8-2.3-.8-2.8.1-.4.7-.3.8.4.4 2.1-1.3 1.3.6-1.2 2.9-1.4 1.3-2.2 2.6-1.8 3.1.4.4-.1.4-1 .1-1.2-.4-1.5-.2-1.2.8.3.7-.8 2.3-2.5 3.6-1.7 1.3-3 2.8-2.8 3.4.2.5-.8 1.6-2.2 2.3-1.4.7-1.8 1-.8.7 1-.3 1.5-.1 1.2.5-.3.6-1.6 1-2.8 1-1.5 0-1.8.3-.9.9 1 .6.9 1.1-.4 2.2-1.5 1.2-1.7 1.2-.9 0 .5-.9.4-1.2-.3-.7-.6.4-.8 1.4-.5 2.4.3.9.3 1.4-.1 1.1-1.2-1.1-6.9 4.8-6.1 6.3.5.7.5 1 0 .6-.4-.4-1.4 0-2.2 1-.8.9-1.2 1.1-.8.4.9-1.7 0-1.5-1.6.5-1 1.1-1 1.4-.1.9.6-.4 1.2-.2 1.2.3 0 .6-.5 1.1-1.1 1.1-.5 0-.8.4-.4.9.3.5.1 1.2-.4 1.5-.5.4-1.3.1-1.7-.5-.5-.8-.3-.9.6-.4.9.5 1.1.4.6-.4-1-1.6-2.7-.3-2.4 1.7.2.9-.2 1.7-.9 1.7-.6 0-1.5.4-2 .9s-.3.6.5.2c.6-.4 1.2-.3 1.2.2 0 .9-3.6 2.5-5.1 2.3-.4 0-.5.8-.2 1.8s-.1 2.2-.8 2.6c-.8.6-1 .4-.4-.5s.4-1.1-.4-.6c-.7.5-1 1.4-.7 2.2.3.9 0 1.1-1.1.7-1.1-.4-1.4-.2-.9.5.4.7.1 1.2-.8 1.2s-1.5.3-1.4.7c.5 1.6-5.2 6.5-6.7 5.9-1.3-.5-1.4-.2-.4 1.5.6 1.2.7 1.9.2 1.6-1.2-.7-4.4 2.9-3.5 3.9.4.4.2.4-.4.1-1.1-.6-3.7 1.4-3.1 2.4.1.2-.4-.3-1.2-1.1-1.1-1.3-1.2-1.2-.6.9.4 1.5.3 2.1-.3 1.7-.5-.3-1.6.2-2.3 1.1-1.2 1.4-1.2 1.6.1.8s1.3-.7.1.8c-1.5 1.8-2.6 2.3-1.6.7.3-.6.1-1-.4-1-.6 0-1.1.7-1.1 1.6 0 .8-.4 1.2-1 .9-.9-.6-1.4.7-1.1 2.7 0 .4-.6.5-1.3.2-.8-.3-1.9.4-2.6 1.6-.7 1.2-1.8 1.9-2.6 1.6-.8-.3-1.3 0-1.1.7.1.7-.4 1.1-1.1.9-.8-.1-1.1.2-.8.6.3.5-.3 1.7-1.3 2.6-1.5 1.3-2 1.4-2.4.4-.4-.8-.6-.6-.6.5-.1 1-.5 1.5-1.1 1.2-.9-.6-1.4.8-1.1 2.8.1 1-2.2.4-3.2-.8-.5-.6-.7-.1-.4 1.2.4 1.6.1 2.1-1.3 1.8-1-.2-2.6.5-3.5 1.6-1 1-2.1 1.6-2.5 1.4-1.1-.7-3.3 2.2-2.6 3.3.3.5-.6.8-1.9.6-1.6-.1-3 .5-3.9 1.8-1 1.4-1.5 1.6-1.9.6-.3-.7-.6-.4-.6.8-.1 1.2-.7 2.2-1.3 2.1-.7 0-2.2.1-3.3.2-1.7.1-1.8.3-.5 1.1s1.2 1-.3 1c-1.2 0-1.6.5-1.1 1.2.6 1 .4 1-.7 0-.7-.6-1.8-1.2-2.3-1.2-.6 0-.4.5.4 1 1.3.8 1.2 1-.3 1-1 0-1.6.4-1.2.9.3.6-.3 1-1.2 1-4.9.2-5.3.4-4 1.9 1 1.3.9 1.4-1 .3-1.7-.9-2.3-.9-2.3 0 0 .7-.9.9-2.1.6-2-.5-2-.5-.2 1.6 1.4 1.6 1.4 1.9.1.9-1.1-.9-1.8-1-2.3-.2-.4.6-1.4 1-2.3.8-1-.2-2.7.8-4 2.2-1.3 1.4-2.1 1.9-1.7 1.2.4-.7 0-1.2-1-1.2s-1.3.5-.9 1.2.3 1-.1.5c-.5-.4-1.7 0-2.7 1-1 .9-1.8 1.1-1.8.5 0-.6.6-1.2 1.3-1.5.6-.2.8-.8.4-1.3-.5-.5-1.3-.1-1.8.9-.6.9-1.7 1.7-2.4 1.7-.8 0-1.5.5-1.5 1.1 0 .8-.4.8-1.4 0-1-.9-1.5-.9-1.8 0-.2.6-1.8 1.7-3.6 2.5-2.4 1-3.1 1-2.5.1.5-.8.2-.8-.9.1-1.3 1-1.7 1-2.1 0-.4-.9-.6-.8-.6.3-.1 1.8-2.9 2.9-7.3 2.9-1.5 0-3.7 1-4.9 2.2-1.2 1.3-1.9 1.7-1.5 1 .9-1.5-.6-1.6-2.2 0-.9.9-1.2.9-1.2 0 0-.6-.7-.9-1.5-.6-.8.3-1.3 1.1-1.2 1.7.1.6-.7 1.2-1.8 1.4-1.6.3-1.7.2-.5-.6 1.1-.8 1.1-1.1.2-1.1-.7 0-1.5.7-1.9 1.6-.5 1.3-.7 1.3-1.4.2-.7-1-.9-1.1-.9 0 0 .8-.5 1-1.2.6-.7-.5-.9-.2-.6.8.4.8 0 1.5-.8 1.5-.7 0-1-.5-.7-1.1.4-.6-.2-.4-1.3.5-1 .9-2.5 1.4-3.3 1.1-.9-.3-1.2 0-.8 1 .4 1.2-.1 1.5-2.4 1.3-2.6-.2-2.8-.1-1.7 1.4.7.9.9 1.3.4.9s-2.2 0-3.8.8c-2.3 1.2-2.8 1.2-2.2.2.6-1 .5-1-.9.1-.9.7-1.4 1.8-1 2.4.3.6.1.7-.5.3-.6-.3-1.6.2-2.2 1.1-.9 1.5-1 1.4-.6-.7.3-1.4.3-1.9 0-1.2-.3.6-.9 1-1.4.7-.4-.3-.7.3-.6 1.3 0 1-.5 1.6-1.3 1.4-.8-.2-1.1.3-.8 1.2.4.9.1 1.8-.5 2.2-.6.4-.8.3-.5-.3.4-.6 0-1.3-.8-1.7-.8-.3-1.4-.2-1.4.2.3 1.9-.2 3.2-1.2 3.2-1.6 0-5.8 4.7-5 5.7.3.4-.2.1-1.2-.6-1.5-1.2-1.7-1.2-1.1.4.6 1.4.4 1.6-.6 1-1-.6-1.2-.4-.7.8.4 1 .2 1.6-.5 1.4-.5-.1-1.2.6-1.3 1.6-.2 1.1-.7 2.2-1.1 2.5-.4.4-.4-.1-.1-1 .3-1 .1-2-.5-2.4-.6-.4-.9-.3-.6.2.9 1.5-1 5.4-2.7 5.4-.8 0-1.5.4-1.5 1 0 .5.5 1 1.2 1 .6 0 .2.8-.9 1.7-1.1 1-1.8 2.5-1.5 3.3.4 1.3.3 1.3-1.1.2-1.4-1.2-1.6-1.1-1.2.6.2 1.1-.3 2.3-1 2.6-.8.3-1.1 1.3-.8 2.5.4 1.6 0 2.1-1.3 2.2-1.1 0-1.4.3-.6.6.6.2 1.2.9 1.2 1.4 0 .6-.5.7-1.2.3-.8-.5-.9 0-.6 1.4.4 1.2.2 2.2-.2 2.2-.5 0-.7.9-.5 2 .2 1.2-.2 2.3-1 2.7-.8.3-1.5.9-1.5 1.5 0 .5.6.6 1.3.2 1-.6 1-.4 0 .7-1.6 1.7-1.7 4.3-.1 3.3.7-.4.8-.3.4.5-.4.6-1.2.9-1.7.6-1.3-.9-1.1.9.4 2.4.6.8.8 1.1.2.9-.5-.3-1.6 0-2.3.8-1 1.1-1 1.4 0 1.4.9 0 .9.3 0 1.2-1.7 1.7-1.5 2.8.6 2.9 1.6 0 1.6.1-.1.8-2.3.9-2.3 1.9 0 3.7 1.5 1.2 1.5 1.3.1.8-1.8-.6-1.9 1-.4 3.5.6.9.5 1.2 0 .8-1.2-.7-1.1 6.3.1 8.2.5 1 .4 1.2-.3.7-.7-.4-1.2-.2-1.2.5s.9.9 2.3.6c2.1-.6 2.1-.6.3.8-1.1.8-1.4 1.5-.8 1.5.7 0 1.2.5 1.2 1.1 0 .5-.4.8-.9.4-.5-.3-1.3 0-1.7.6-.4.8-.3.9.4.5s1.2-.2 1.2.4c0 .6.4.9.8.6.5-.3.9.1.9.9s-.5 1.1-1.1.8c-.8-.5-.8-.3 0 .8 1.5 2 2.6 5.1 1.5 4.5-.5-.3-.5.9-.1 2.9.4 1.9.5 3.7.1 4.1-.3.4.2.5 1.1.1 1-.3 1.9 0 2.2.9.3.9.1 1.2-.4.9-1.4-.9-1.2.8.3 2.4.6.8.7 1.1.1.8-.6-.3-1.1 0-1.1.8s.4 1.2.9.9c.4-.3.8.1.8.8 0 .9.3.9 1-.2.5-.8 1-1.1 1-.5 0 .5-.5 1.7-1 2.5-.6 1-.3 2 1.1 3.3 1.7 1.6 2.4 3.6 2 5.9 0 .5.4.8.9.8.6 0 1 .7 1 1.5s.4 1.5.9 1.5 1.2.7 1.5 1.6c.5 1.2.3 1.4-.7.8-.7-.5-.5-.2.5.8 1 .9 1.8 2.3 1.8 3.2 0 .8 1 2.2 2.2 3 1.2.9 1.8 1.6 1.3 1.6-.6 0-.2.5.8 1.1.9.5 1.7 1.7 1.7 2.5s.5 1.2 1 .9c.6-.4 1-.3.9.2-.3 2 .2 3.4 1.1 2.8.5-.3 1 .3 1 1.4 0 1.2.5 2.1 1.1 2.1.5 0 .7-.6.3-1.3-.5-.8-.2-.8.9.2 1.8 1.5 2.3 2.6.7 1.6-1.8-1.1-1 .7 1.1 2.6 1.2 1 2.7 1.6 3.3 1.3.6-.3.3.1-.7.9-1.6 1.3-1.6 1.5-.2 2.1.9.3 1.3.2 1-.4-.3-.6-.1-1 .4-1 .6 0 1.1.8 1.1 1.8 0 1.1.9 2.7 2 3.7 1.8 1.7 2 1.7 1.4.2-.3-.9-1-1.7-1.5-1.7s-.9-.5-.9-1.2c0-.6.9-.3 2 .7s2 2.4 2 3.2c0 .7.7 1.3 1.6 1.3 1 0 1.4.6 1.1 1.5-.4.8-.1 1.7.5 2.1.7.4.8.3.4-.4s-.1-1.2.8-1.2 1.5.5 1.3 1.1c-.1.6.6 1.3 1.6 1.4 1.1.2 2.2.7 2.5 1.1.4.4-.1.4-1 .1-1-.3-2-.2-2.3.4-.4.5-.3.8.2.7.4-.2 2.3.3 4.1 1.1 2.5 1.1 3 1.6 2 2.3-.9.7-.6.8 1 .5 1.4-.3 2-.1 1.5.6-.4.6-.1.8.8.5 2.1-.8 1.9 3.2-.3 5.6-.9 1-1.5 2.2-1.3 2.6.3.4-.3.7-1.3.6-1.2-.1-1.7.6-1.6 2.6.1 2.3-.2 2.6-1.6 1.8-1.2-.6-1.7-.5-1.7.5 0 .8.5 1.2 1.1.9.6-.3.2.2-.9 1.1-1.1.9-2 2.4-2 3.5 0 1-.4 2.2-.9 2.7s-.6.3-.2-.5c.4-.6.3-1.2-.2-1.2s-1.2 1.4-1.6 3.1c-.3 1.7-1 2.8-1.6 2.4-.5-.3-1.1-.1-1.1.4-.1.6-.3 1.5-.4 2.1-.1.5-.3 1.5-.4 2.1 0 .5-.6.7-1.2.3-.7-.4-1-.1-.7.7.3.8-.2 2-1.1 2.7-1 .8-1 1.1-.2.6 1-.5 1.2-.3.7.5-.5.7-1.5 1-2.3.6-1.4-.5-1.4-.3-.2 1.2 1.3 1.5 1.2 1.6-.6.9-1.6-.6-1.7-.5-.8.5 1 1 .8 1.6-.9 3.1-1.2 1-1.8 1.8-1.4 1.8.4 0 .2.9-.4 1.9-.5 1.1-.7 2.1-.2 2.4.4.2.2.2-.5.1-1.7-.4-2.6 1.3-1.1 1.9 1 .4 1 .6 0 .6-.7.1-1 .5-.7 1.1.3.5-.2 1-1.2 1-1.5 0-1.6.2-.3 1s1.3 1-.1 1c-1.1 0-1.5.8-1.4 2.5.2 1.4-.2 2.8-.7 3.2-.7.3-.8.1-.4-.5.4-.7.5-1.2.2-1.2s-1 1-1.7 2.1c-.7 1.5-.8 1.9 0 1.5.7-.5.9-.1.5.8-.3.9-1.1 1.6-1.6 1.6-.6 0-.5.6.2 1.5 1 1.2.8 1.4-.8 1-1.5-.3-1.9.1-1.5 1.6.3 1.2 0 1.9-.8 1.9-1.2 0-1.2.2-.1.9 1.1.6 1 1.2-.4 2.6-1 1-1.9 2.9-2.1 4.4-.5 4.7-.9 6.2-2 6.9-.5.4-.9 1.6-.7 2.7.2 1-.2 2.5-.8 3.2-.8.9-.7 1.3.2 1.3.8 0 1 .3.7.6-.4.4-1.4.1-2.2-.6-1.3-1.1-1.6-1.1-1.3.1.2.8 1 1.7 1.8 2.1 1.3.6 1.3.7 0 .7-1.1.1-1.6 1-1.5 2.8 0 1.6-.6 3.4-1.5 4.1-.8.8-1 1.1-.4.8.7-.3 1.4.1 1.7.9.4 1 .1 1.2-1 .8-1.2-.5-1.5-.2-1 .9.3 1 0 1.9-.9 2.2-1 .4-1.2 1.1-.7 1.8 1.4 2.2 1 8.3-.6 8.9-.8.3-1.5 1.3-1.7 2.2-.1 1.1.2 1.4.9 1 .7-.4.6.1-.2 1-.7.9-1 1.7-.6 1.7s.2.7-.5 1.5c-1.1 1.3-1 1.4.6.8 1.5-.5 1.7-.4.8.8-1.2 1.6-1.2 2.9-.1 4.6.6.9.3 1.1-1 .6-1.6-.6-1.6-.5-.4 1 1.1 1.4 1.1 1.7 0 1.7s-1.1.2.1 1c1.1.7 1.1 1 .2 1-1 0-1 .5-.1 2.2 1.2 2.2 1.1 2.2-.6.8-1.7-1.4-1.7-1.3-.8.5 1.7 3.4 1 10.3-1.2 12.1-1.1.8-1.5 1.3-.8 1 .6-.4 1.4-.2 1.8.4.3.5 0 1-.7 1-1 0-1 .2.1.9.9.6 1 1 .2 1.6-.9.5-.9 1.1.1 2.3.9 1.1.9 1.4.1.9-.9-.6-1.1.3-.9 3 .2 2 .9 3.9 1.5 4.1.8.3.8.9 0 2.3-.6 1.1-.8 2.5-.6 3.2.2.7-.3 1.8-1.2 2.5-1.5 1.1-1.4 1.2 0 .6 1-.3 2 0 2.4.5.3.6 1.1.8 1.7.5.7-.4.8-.2.4.5-.4.6-1.2.9-1.7.6-.5-.4-.9-.1-.9.4 0 .6.6 1.1 1.3 1.1.9 0 .8.3-.2.9-1 .6-1 1-.1 1.6.9.6.9.9-.1 1.6-1.1.6-1 .9.4 1.5 1.7.6 1.7.7 0 2.1-1 .8-1.3 1.2-.7.9 1.5-.7 2.7 2.1 1.2 3-.7.4-.6.9.3 1.5 1.1.7 1.1.9-.1.9-1.3 0-1.3.1 0 1 1.1.7 1.1 1 .2 1-1 0-1 .3 0 1.4.7.8 1.5 1.2 1.8 1.1.3-.2.7.5.7 1.6.1 1-.3 1.9-.8 1.9-.6 0-.6.8.1 2 .6 1.1.9 3.5.7 5.4-.3 2.6-.1 3.3.9 2.9 1.3-.5 1.9 2 1.4 5.6-.1.8.4 1.7 1.1 2.2 1 .6 1 1.1 0 2.3-1 1.2-1 1.6-.2 1.6.7 0 .9.4.6 1-.3.5 0 .7.9.4 1.2-.5 1.4.2 1.2 3.4-.3 3.5-.1 3.9 1.8 3.5 1.5-.3 1.7-.2.8.5-1 .7-1 1.1.3 2.2.8.7 1.5 1.8 1.5 2.4 0 .6-.5.4-1-.4-.7-1.2-.9-1-.7.7 0 1.2.5 1.9 1.1 1.6.5-.4.7.1.2 1.2-.5 1.5-.4 1.6.8.6 1.1-1 1.4-.9 1.2.1-.1.7-.6 1.9-1 2.7-.7 1-.6 1.2.4.6.9-.6 1.2-.4.8.7-.4.8-.2 2.1.4 2.9.8 1.1.9 1.1.5-.2-.3-.9 0-1.6.7-1.6.8 0 1.1.9.8 2.4-.3 1.6.2 2.9 1.4 3.9 1.1.9 1.4 1.3.8 1-.6-.3-1.1.1-1.1.9 0 .7.8 1.2 1.7 1 .9-.2 1.7.3 1.7 1 0 .8-.4 1.2-.9.9-.4-.3-.5.2-.2 1 .3.9 1 1.3 1.5 1 .9-.5 1.4 2.5.9 5.5-.1 1.1.2 1 1.5-.3 2-2 2.2-2 2.2-.1 0 .8-.4 1.2-.8 1-1.2-.8-.4 2.2 1.1 3.9.7 1 1.9 1.5 2.7 1.2.9-.4 1.1-.2.6.7-1.1 1.8-1.3 3.8-.2 3.1.5-.3.9 0 .9.6s.5.8 1.2.4c.8-.5.9-.2.5.9s-.1 1.7.8 1.7c.8 0 1.5.8 1.5 1.7 0 1 .5 2.5 1.1 3.3.9 1.3 1 1.2.5-.3-.4-1.1-.2-1.6.5-1.1.6.3.8 1.5.6 2.6-.4 1.5-.3 1.7.8.8 1.1-.9 1.2-.7.7 1.2-.5 2-.3 2.1 1 1 1.3-1 1.5-.9 1.5.5 0 3.4.3 4.3 1.3 4.3 2 0 5.2 3.8 4.4 5.2-.6 1.1-.5 1.1.8 0 1.3-1 1.7-1 2.2.3.4 1.1.2 1.4-.6.9-.7-.4-.8-.3-.4.4s1.3 1.2 2.1 1.2c.7 0 1.6.9 2 1.9.3 1 1.7 2.2 3.1 2.5 1.9.5 2.5 1.2 2.1 2.5-.3 1.5 0 1.7 1.7 1.4 1.7-.4 1.8-.3.6.6-1.1.8-1.2 1.1-.2 1.1.8 0 1 .5.6 1.2-.6 1-.4 1 .7 0 1.4-1.3 3-1.6 2.8-.5-.5 2.9.3 4.2 2.2 3.8 1.7-.3 2 0 1.6 1.5-.3 1.1-.2 1.9.2 1.8 2.5-.3 5.1.4 4.6 1.2-.3.5-.1 1 .5 1s.8.5.4 1.2c-.5.8 0 .7 1.1-.2 1.1-.9 1.6-1 1.1-.3-.4.8-.2 1.3.4 1.3.6 0 .8.5.4 1.3-.5.8-.2.7.9-.2 1.5-1.2 1.7-1.2 1.1.4-.5 1.3-.4 1.6.4 1.1.7-.4 1.2-.2 1.2.3 0 .6.9 1.1 1.9 1.1 1.1 0 2.3.9 2.6 2.1.6 1.7.9 1.8 2.3.7 1.2-1 1.4-1 .8 0-.7 1.1.5 1.7 2.7 1.3.5-.1.6.3.2.9-.3.5.1 1 .9 1 .9 0 1.6.5 1.6 1.1 0 .5.5.7 1 .4.6-.3 1.3.1 1.6 1 .4 1 1.4 1.5 2.5 1.2 1.3-.4 1.9 0 1.9 1.3s.6 1.6 2.6 1.2c1.9-.3 2.5-.1 2 .7-.4.6-.1 1.1.9 1.1.9 0 1.4.4 1.1.8-.3.5.1.9.9.9s1.2-.4.9-.9c-.4-.5.3-.4 1.5.4 1.2.7 2.1 1.6 2.1 2 0 .5.8.8 1.9.8 1 0 2.4.6 3.1 1.4.6.8 1.9 1.2 2.7.9 1-.4 1.4-.2 1 .4-.8 1.2 1.1 1.2 3.1 0 .7-.5 1.4-.2 1.8.7.3.9 1 1.4 1.4 1.1 1-.6.7 1.5-.4 3.4-.6 1-.5 1.2.2.7.7-.4 1.2-.3 1.2.3 0 .5-.6 1.2-1.2 1.4-1 .4-1 .8.1 1.5 1.1.8.9 1.1-.8 1.7-1.2.3-1.9 1.1-1.6 1.6.4.5.1.9-.6.9-.8 0-.7.5.2 1.7 1.2 1.5 1.2 1.6-.5 1-1.6-.6-1.7-.5-.6.8.7.8.8 1.5.3 1.5s-1.5 1.2-2.1 2.6c-.7 1.4-.8 2.3-.2 1.9.6-.3.7.1.4.9-.3.9-1.2 1.6-1.9 1.6-.8 0-1.2 1.1-1.1 3 .2 2.2-.2 2.9-1.1 2.5-.9-.3-1.1-.1-.6.8 1.6 2.6 1.2 3.9-.7 2.2-1.9-1.7-2.3-.4-.7 2.2.5.8.3 1.3-.3 1.3s-.8.4-.5 1c.3.5.1 1-.4 1-.6 0-1.1.5-1.1 1.1 0 .5.5.7 1.2.3.7-.4.8-.3.4.5-.6.9-1.1.9-2.4-.1-1.3-1.1-1.4-1.1-.8 0 .8 1.4-1 6-2.9 7.4-.6.5-.5.8.3.8.7 0 1 .5.7 1-.4.6-1.2.7-1.8.3-.8-.4-.8-.2.1.9 1 1.3.9 1.6-.7 2.1-1.4.3-1.8 1.1-1.4 2.5.2 1.1-.1 2.3-.8 2.7-.8.6-1 .4-.4-.5.5-.8.4-1.1-.3-.7-.5.4-.8 1.6-.5 2.7.3 1.2 0 2-.7 2s-1 .7-.6 1.6c.5 1.4.4 1.5-.8.4-1.3-1-1.5-.7-1.2 2.4.2 3 0 3.4-1.3 2.3-1.2-1-1.4-.9-.9 1 .4 1.5.2 2-.8 1.6-.9-.3-1.2.2-.9 1.6.2 1.3-.3 2.2-1.6 2.6-1.5.5-1.7 1-.9 2.6.6 1.1.7 1.9.3 1.8-2.1-.3-3.4.2-2.8 1.2.6.9-2.7 5.1-3.7 4.6-.2-.1 0 .2.4.8 1.1 1.3 1 2.7-.2 2-.6-.3-1.3.2-1.7 1.2-.4 1-1 2.1-1.5 2.4-.4.3 3.4.6 8.6.6 5.1 0 9.9.4 10.6.8.8.5 1.1.4.7-.2-.4-.6.4-1.1 1.8-1.1s2.2.4 2 .9c-.3.4.7.4 2.3 0 1.7-.5 3.6-.5 4.7.1 1.2.7 1.6.7 1.2.1-.4-.6.4-1 1.8-1s2.2.3 2 .8c-.3.4.7.4 2.3 0 1.7-.5 3.6-.5 4.7.1 1.2.7 1.6.7 1.2.1-.4-.6.4-1.1 1.8-1.1s2.2.4 2 .9c-.3.4.7.4 2.3 0 1.7-.5 3.6-.5 4.7.1 1.2.7 1.6.7 1.2.1-.4-.6.4-1.1 1.8-1.1s2.2.4 2 .9c-.3.4.7.4 2.3 0 1.7-.5 3.6-.5 4.7.1 1.2.7 1.6.7 1.2.1-.4-.6.4-1.1 1.8-1.1s2.2.5 1.9 1c-.4.6.1.7 1.2.1 2.2-1 35.2-1 37.8 0 .9.4 1.5.3 1.2-.2-.3-.5.5-.9 1.9-.9s2.2.4 2 .9c-.3.4.7.4 2.3 0 1.7-.5 3.6-.5 4.7.1 1.2.7 1.6.7 1.2.1-.4-.6.4-1.1 1.8-1.1s2.2.4 2 .9c-.3.4.7.4 2.3 0 1.7-.5 3.6-.5 4.7.1 1.2.7 1.6.7 1.1 0-.7-1.1 5.6-.8 7.5.4.7.4.9.3.6-.3-.4-.6.4-1.1 1.8-1.1s2.2.4 2 .9c-.3.4.7.4 2.3 0 1.7-.5 3.6-.5 4.7.1 1.2.7 1.6.7 1.2.1-.4-.6.4-1.1 1.8-1.1s2.2.4 2 .9c-.3.4.7.4 2.3 0 1.7-.5 3.6-.5 4.7.1 1 .6 1.5.7 1.2.2-.6-1.1 41.6-1 43.3.1.8.5 1.1.4.7-.2-.4-.6.4-1.1 1.8-1.1s2.2.4 2 .9c-.3.4.7.4 2.3 0 1.7-.5 3.6-.5 4.7.1 1.2.7 1.6.7 1.2.1-.4-.6.4-1 1.8-1s2.2.3 2 .8c-.3.4.7.4 2.3 0 1.7-.5 3.6-.5 4.7.1 1.2.7 1.6.7 1.2.1-.4-.6.4-1.1 1.8-1.1 1.4.1 2.2.4 2 .9-.3.4.7.4 2.3 0 1.7-.5 3.6-.5 4.7.1 1.2.7 1.6.7 1.2.1-.4-.6.4-1.1 1.8-1.1s2.2.4 2 .9c-.3.4.7.4 2.3 0 1.7-.5 3.6-.5 4.7.1 1.2.7 1.6.7 1.2.1-.4-.6.4-1.1 1.8-1.1s2.2.5 1.9 1c-.4.6.1.7 1.2.1 2.2-1 35.2-1 37.8 0 .9.4 1.5.3 1.2-.2-.3-.5.5-.8 1.9-.8s2.2.3 2 .8c-.3.4.7.4 2.3 0 1.7-.5 3.6-.5 4.7.1 1.2.7 1.6.7 1.2.1-.4-.6.4-1.1 1.8-1.1s2.2.4 2 .9c-.3.4.7.4 2.3 0 1.7-.5 3.6-.5 4.7.1 1.2.7 1.6.7 1.1 0-.7-1.1 5.6-.8 7.5.4.7.4.9.3.6-.3-.4-.6.4-1.1 1.8-1.1s2.2.4 2 .9c-.3.4.7.4 2.3 0 1.7-.5 3.6-.5 4.7.1 1.2.7 1.6.7 1.2.1-.4-.6.4-1.1 1.8-1.1s2.2.4 2 .9c-.3.4.7.4 2.3 0 1.7-.5 3.6-.5 4.7.1 1 .6 1.5.7 1.2.2-.6-1.1 41.6-1 43.3.1.8.5 1.1.4.7-.2-.4-.6.4-1 1.8-1s2.2.3 2 .8c-.3.4.7.4 2.3 0 1.7-.5 3.6-.5 4.7.1 1.2.7 1.6.7 1.2.1-.4-.6.4-1.1 1.8-1.1s2.2.4 2 .9c-.3.4.7.4 2.3 0 1.7-.5 3.6-.5 4.7.1 1.2.7 1.6.7 1.2.1-.4-.6.4-1 1.8-1s2.2.3 2 .8c-.3.4.7.4 2.3 0 1.7-.5 3.6-.5 4.7.1 1.2.7 1.6.7 1.2.1-.4-.6.4-1.1 1.8-1.1 1.4.1 2.2.4 2 .9-.3.4.7.4 2.3 0 1.7-.5 3.6-.5 4.7.1 1.2.7 1.6.7 1.2.1-.4-.6.4-1 1.8-1s2.2.4 1.9.9c-.4.6.1.7 1.2.1 2.2-1 71.2-1 73.8 0 .9.4 1.5.3 1.2-.2-.3-.5.5-.9 1.9-.9s2.2.4 2 .9c-.3.4.7.4 2.3 0 1.7-.5 3.6-.5 4.7.1 1.2.7 1.6.7 1.2.1-.4-.6.4-1.1 1.8-1.1s2.2.4 2 .9c-.3.4.7.4 2.3 0 1.7-.5 3.6-.5 4.7.1 1.2.7 1.6.7 1.2.1-.4-.6.4-1 1.8-1s2.2.3 2 .8c-.3.4.7.4 2.3 0 1.7-.5 3.6-.5 4.7.1 1.2.7 1.6.7 1.2.1-.4-.6.4-1.1 1.8-1.1s2.2.4 2 .9c-.3.4.7.4 2.3 0 1.7-.5 3.6-.5 4.7.1 1.2.7 1.6.7 1.2.1-.4-.6.4-1 1.8-1s2.2.4 1.9.9c-.4.6.1.7 1.2.1 2.2-1 35.2-1 37.8 0 .9.4 1.5.3 1.2-.2-.3-.5.5-.9 1.9-.9s2.2.4 2 .9c-.3.4.7.4 2.3 0 1.7-.5 3.6-.5 4.7.1 1.2.7 1.6.7 1.2.1-.4-.6.4-1.1 1.8-1.1s2.2.4 2 .9c-.3.4.7.4 2.3 0 1.7-.5 3.6-.5 4.7.1 1.2.7 1.6.7 1.1 0-.7-1.1 5.6-.8 7.5.4.7.4.9.3.6-.3-.4-.6.4-1.1 1.8-1.1s2.2.4 2 .9c-.3.4.7.4 2.3 0 1.7-.5 3.6-.5 4.7.1 1.2.7 1.6.7 1.2.1-.4-.6.4-1 1.8-1s2.2.4 1.9.9c-.4.6.3.5 1.5-.1 1.6-.9 2.1-.9 2.1.1.1.7.7.2 1.4-1.2 1-1.6 1.1-3 .5-4.2-1.2-2.2-1.1-3.1.2-2.2.8.4.8.1.1-1.3-.7-1.2-.7-2.5-.1-3.6.6-1 .7-1.7.2-1.6-2 .3-2.7-.2-1.3-1.1 1.3-.8 1.3-1 .1-1-1.1 0-1-.4.4-1.3 1.4-1.1 1.5-1.6.5-2.2-.9-.5-1.1-.4-.6.3.4.7.2 1.2-.3 1.2-1.4 0-1.4-1.3.1-2.8.9-.9.9-1.2 0-1.2-.7 0-1.2-.5-1.2-1.1 0-.5.4-.8.9-.5.5.3 1.1-.1 1.4-.9.4-.9.1-1.2-.9-.8-1.4.5-1.4.3-.2-1.6 1.1-1.8 1.1-2.3 0-3-1.1-.7-1-.9.3-1.5 1-.4 1.3-1 .8-1.8-1.3-2.1-.9-8.2.6-9.4 1.1-.9 1.2-1.2.1-1.9-.9-.6-1.1-.4-.5.5.5.8.4 1.1-.3.6-1.3-.8-.5-3.6 1-3.3.6.1 1.2-1 1.3-2.6.2-1.5 0-2.7-.5-2.7-.4 0-.7 1.1-.6 2.5.2 1.3-.1 2.2-.5 1.9-1-.6-.7-3.3.4-5.2.5-.7 1.2-1 1.6-.8.4.3.8-.2.8-1 0-.9-.6-1.3-1.6-.9-1.1.4-1 0 .5-1.6 1.1-1.4 1.3-1.9.4-1.4-1.2.7-1.3.6-.3-.6.9-1.2 1-1.8.1-2.7-.8-.8-.5-.9 1.3-.5 2.3.6 2.3.6.7-1.1-2-2-2.4-3.1-.7-2 2 1.2 2.9-1.9 1.4-4.3-1.4-2-1.4-2.2.2-1.6 1.6.6 1.6.5.5-1-1.2-1.4-1.1-1.6.7-1.2 1.2.2 1.9 0 1.6-.5-.3-.4.1-1.1.7-1.4.7-.3.2-.3-1.2 0-2.1.4-2.2.3-.7-.6.9-.6 1.5-1.5 1.2-2.1-.4-.5 0-.9.7-.9.9 0 .9-.3-.2-1-.9-.6-1-1-.3-1 1.1 0 2.4-2.5 2.2-4.4 0-.5.5-1.3 1.3-1.7.8-.6.9-.9.1-.9-.6 0-1-.8-.8-1.8.1-.9.9-1.6 1.7-1.4.8.1 1.5-.4 1.5-1.3 0-.8-.5-1.2-1.1-.9-.6.3-.2-.2.8-1 1.1-.9 1.4-1.6.7-1.6s-.9-.5-.6-1c.4-.6 1-.8 1.5-.5.5.3 1.2 0 1.6-.6.4-.7.3-.9-.3-.6-.6.4-1.3 0-1.6-.7-.4-1 0-1.3 1.4-1.1 1.7.4 1.9.2.9-1-1-1.2-1-1.5 0-1.5s1-.3 0-1.5c-1.1-1.3-1-1.4.4-.9 1.2.5 1.5.2.9-1.2-.5-1.3-.3-1.5.7-.9s1.2.4.7-.9-.3-1.7.7-1.3c1 .4 1.3.1.9-.8-.3-.8-1-1.2-1.6-.8-.6.4-.7.1-.3-.6.5-.7 1.4-1 2.2-.7.8.3 1.4.1 1.4-.3 0-.5-.6-1.2-1.2-1.4-.8-.3-.6-.6.4-.6 1.1-.1 1.5-.6 1.2-1.6-.4-.8-.1-1.5.5-1.5s1.1-.5 1.1-1.1c0-.5-.5-.7-1.2-.3-.7.4-.8.3-.4-.5.4-.6 1.1-.9 1.4-.7.4.2 1.6-1 2.6-2.7.9-1.8 1.2-2.6.5-2-.7.7-1.8 1.3-2.4 1.3-.5 0 .2-.8 1.7-1.8 2.1-1.4 2.4-2.1 1.7-3.5-.6-1-.7-1.7-.2-1.6 1.8.3 3.6-.1 3-.8-.4-.3-.1-1.3.6-2.1 1-1.3.9-1.4-.3-.7-1.2.6-1.3.6-.2-.6s1.4-1.2 2.2.1c.7 1.2.9.9.8-1-.2-4.9.2-6.2 1.6-5.7 1 .4 1.3 0 1.1-1.4-.3-1.6 0-1.9 1.2-1.4 1.4.5 1.3.2-.3-1.6l-1.9-2.2 2.4 1.3c2.1 1.1 2.3 1 1.8-.4-.4-.9-.2-1.6.3-1.6.6 0 1-.7 1-1.6 0-.9.8-2.3 1.8-3.1.9-.8 1.2-1.2.6-.9-.6.3-1.1-.1-1.1-.8 0-.7.7-1.3 1.6-1.2 1 .1 1.7-.9 1.9-2.6.2-1.4 1.1-3.2 2-3.9 1.4-1.1 1.5-1.1.5.1-.7.8-1.3 1.8-1.3 2.4 0 .5.6.1 1.4-1 1.1-1.5 1.2-2.2.3-3.3-.9-1.2-.9-1.3.1-.7.7.4 1.2.1 1.2-.9 0-.8.7-1.8 1.5-2.1.8-.4 1.3-1 1-1.4-.3-.4.7-1.5 2.1-2.5 2.1-1.3 2.3-1.9 1.3-3.1-1-1.2-1-1.5.2-1.2.8.2 1.4-.5 1.4-1.7 0-1.4.7-2 2.2-1.9 1.8 0 2-.2 1.2-1.3-1.1-1.2-.5-1.7 1.4-1.4.4.1.3-.8-.4-2-.7-1.4-.7-1.9 0-1.5 1.2.8 3.4-2.8 2.3-3.8-.3-.4.1-.4 1-.1 1.6.7 3.3-1.9 2.2-3.6-.3-.5 0-.8.8-.7.7.2 1.2-.5 1.2-1.4-.1-1 .2-1.6.6-1.3.4.2 1.6-.5 2.6-1.7 1.1-1.2 1.3-1.8.7-1.4-.9.5-1.1.2-.7-.8.3-.8 1.2-1.2 2-.9.8.3 1.4.2 1.3-.3-.4-2.3.2-3.5 1.4-2.8.7.5.7.1-.3-1.2-.8-1-1-1.6-.6-1.2.5.4 1.5 0 2.3-1 .8-.9 1.1-1.1.7-.3-.5 1-.3 1.2.5.7.9-.6.9-1.2-.1-2.4-.7-1-.8-1.4-.4-1 1.2 1 4.7-3.2 3.9-4.5-.3-.6-.1-.7.5-.3.7.4 1.2.2 1.2-.4 0-.6.4-.9.9-.5.5.3 1.3 0 1.7-.6.5-.8.3-.9-.6-.4-.8.5-1.1.3-.8-.6.3-.8 1.1-1.3 1.8-1.1 1.1.3 1.1 0 0-1.3s-1-1.4.5-.9c1.2.5 1.6.4 1.2-.3-.4-.6 0-1.4.8-1.7.8-.3 1.4-1.1 1.3-1.8-.2-.7.2-1.2.9-1.1 1.2.3 1.2-1.4-.1-3.7-.7-1.2-.6-1.3.5-.3 1.9 1.9 3.2 1.6 2.6-.6-.4-1.5 0-1.9 1.5-1.6 1.7.4 1.8.2.7-1.1-1-1.2-1-1.5.1-1.2.7.2 1.5-.3 1.8-1.1.3-.9 0-1.1-.8-.6-.9.5-1.1.4-.6-.4.6-.9 1.1-.9 2.1-.1 1.1.9 1.3.6 1.1-1.4-.3-1.9.1-2.4 1.6-2.1 1.7.4 1.8.2.6-1.2-.7-.9-.8-1.4-.3-1.1.6.3 1.9-.4 3-1.5s1.4-1.6.6-1.2c-1 .6-1.2.4-.7-.4.5-.7 1.4-1 2-.8.9.4 1.1-.3.8-2.1-.4-2.6-.4-2.6 1.1-.7 1.6 2 1.6 2 1.2-.3-.3-1.9.4-2.6 2.5-2.4.3 0 .6-.8.6-1.8s-.4-1.6-.8-1.4c-.4.3-.8.3-.8-.1 0-.3 1.2-1 2.6-1.5 2.2-.9 2.4-1.3 1.3-2.6-.7-.8-.8-1.4-.3-1.3.5.2 1.9-.1 3.2-.5 2.2-.7 2.2-.8.5-2.1-1.7-1.3-1.6-1.4.5-.8 1.8.4 2.1.2 1.5-1.2-.5-1.4-.3-1.6.7-1 1 .6 1.2.4.7-.8-.4-1.2-.1-1.5 1.4-1.2 1.6.3 1.8.1.8-1.6-1-1.9-.9-2 1.1-.9s2.1 1 1-1c-.8-1.5-.8-2-.1-1.6.6.4 1.5-.4 2.1-1.8.5-1.4 1.4-2.6 2-2.6.6 0 .8-.5.4-1.2s-.3-.8.4-.4 1.2.3 1.2-.3c0-1.4 6-7.2 6.9-6.6.4.2.7-.8.6-2.4-.1-1.6.4-2.8 1.1-2.8.7 0 1 .7.7 1.6-.4 1.3-.3 1.3.5.2.6-.8.8-2.1.4-2.9-.4-1.1-.1-1.4 1.1-.9 1.1.4 1.4.2 1-.9-.3-.7 0-1.4.7-1.4.6 0 .8-.5.4-1.2-.5-.7-.2-.9.8-.6 1.1.5 1.4 0 1.2-1.8-.1-1.3.2-2.2.7-1.8.5.3.6 1 .3 1.6-.4.7-.2.8.5.4.6-.4.9-1.2.5-1.7-.9-1.5 1.5-3.8 3.4-3.2 1.3.4 1.4.3.3-.5-1.1-.8-.2-2.1 4-6.2 3-2.9 4.6-5 3.6-4.6-1.1.3-1.6.2-1.2-.4.3-.6 1.2-1 2-1s1.7-.5 2.1-1.2c.4-.7.3-.8-.4-.4-.8.5-1 .2-.6-.9.5-1.2.9-1.3 2-.4 1.2 1 1.3.8.8-.6-.5-1.3-.4-1.6.5-1.1.6.4 1.1.4 1-.1-.4-2.1.2-3.4 1.3-2.7.7.5.9.1.6-1.3-.4-1.7-.1-2 1.6-1.7 1.1.2 1.6.2.9-.2-1-.4-1-.8 0-1.9.7-.7 1.5-1.1 1.9-.9.9.6 2.1-3.4 1.3-4.6-.4-.6-.3-.9.2-.8.4.1 1.8-.2 3.1-.6 1.9-.6 2.1-1 1.1-2.2-1-1.2-.9-1.3.6-.8 1.4.6 1.6.4 1-.6-.6-1-.4-1.2.7-.8 1.1.5 1.4 0 1.2-1.8-.2-2.1 0-2.3 1.2-1.3 1.2 1 1.3.9.8-.6-.6-1.4-.4-1.6.6-1 1 .6 1.2.4.6-1.1-.4-1-.4-1.5 0-1.1 1.2 1.2 4.4-2.4 4.4-5 0-1.3.4-2.2.8-1.9.5.3 1.4-.4 2.2-1.4.8-1 1.7-1.7 2.2-1.4.4.3.8-.2.8-1.1 0-1-.5-1.3-1.2-.9-.9.5-.9.2.1-.9.7-.9 1.9-1.7 2.7-1.7.7 0 1.6-.5 2-1.2.4-.6.3-.8-.4-.5-.6.5-.8-.1-.5-1.4.4-1.5.8-1.7 1.4-.8.6 1 1 .7 1.7-1.1.5-1.4.8-2.8.5-3.2-.2-.4.2-.5 1-.2s1.8 0 2.3-.7c.5-.8.3-1-.6-.4-.9.6-1.1.4-.6-.4.5-.7 1.4-1 2.1-.7.9.3 1.1-.2.8-1.5-.4-1.5-.2-1.8 1.1-1.3.9.3 1.6.2 1.6-.4 0-.6-.6-1.3-1.2-1.5-.8-.3-.5-.6.5-.6 1-.1 1.5-.6 1.2-1.2-.4-.6.3-1.3 1.5-1.6 1.3-.4 1.9-1.1 1.5-2-.3-1.1-.1-1.3 1-.9 1 .4 1.5-.1 1.5-1.5 0-1.3.4-1.8 1.3-1.3.8.5.7.2-.2-.9-1.2-1.5-1.2-1.7.2-1.2.8.4 1.8.1 2.3-.6.4-.8.3-1-.4-.5-.7.4-1.2.2-1.2-.3 0-.6.7-1.1 1.6-1.1 1 0 1.4-.6 1.1-1.4-.4-1.1-.1-1.3 1-.9 1.3.5 1.5.2 1-1.1s-.3-1.7.7-1.3c1.1.4 1.3.1.9-1-.4-.9-.2-1.4.3-1.1.5.3 1.8-.4 2.9-1.5l2-2-2.5 1.3c-2.5 1.3-2.5 1.3-.6-.8 1-1.2 2.4-1.9 3-1.5.6.4.5-.1-.3-1-1.2-1.5-1.1-1.7.3-1.7.9 0 1.6.5 1.6 1.2 0 .6.3.8.6.5.4-.4.2-1.3-.5-2.1-.9-1.1-.8-1.5.4-2 1-.3 1.3-1.1.9-1.8-.6-1-.5-1 .8 0s1.5.9 1.2-1.4c-.2-1.8.2-2.4 1.1-2 2.1.8 3.7-1.8 2.2-3.4-.9-1-.9-1.1.1-.6.6.4 1.2.2 1.2-.4 0-.6.5-.8 1-.5.6.3 1-.4 1-1.7 0-1.8-.2-2-1-.8-.5.8-1 1-1 .4s.7-1.7 1.5-2.4 1.5-.9 1.5-.5c0 .5.9-.2 2-1.5 1.9-2.1 2.5-4.1 2.1-6.4-.1-.5.5-.3 1.4.4 1.3 1.1 1.5 1 1-.3-.4-.8-.1-1.8.6-2.3.8-.5 1-.3.4.6-.5.9-.4 1.1.3.6.9-.5.9-1.3.2-2.6-.8-1.6-.8-1.8.5-1.4.9.4 1.9-.3 2.6-2 .7-1.4 1.6-2.3 2-2 .5.3.9 0 .9-.5 0-.6-.5-1.1-1-1.1-.6 0-.5-.6.2-1.4.7-.8 1.7-1.1 2.2-.9.5.3.6 0 .4-.8-.3-.8.2-2 1.1-2.7 1-.8 1-1.1.2-.6-1 .5-1.2.3-.7-.5.5-.7 1.4-1 2-.8.7.3 1.3-.1 1.3-.9 0-.7-.5-1-1.1-.7-.6.3-.6.1.1-.7.6-.7.9-2 .6-2.9-.4-1.2-.1-1 1.1.4 1 1.1 1.5 1.4 1.1.7-.3-.6-.2-1.2.3-1.2.6 0 .9-.8.8-1.7 0-1 .4-1.8 1.1-1.8.6 0 1.5-.4 2-.9s.3-.6-.4-.2c-1.8 1-1.6-.5.3-3.2.8-1.2 2-1.9 2.6-1.6.6.4.5-.3-.2-1.6-.8-1.5-.8-2-.1-1.6.6.4 1.1.2 1.1-.4 0-.6.5-.8 1.3-.4.9.6.9.5 0-.8-1.3-1.5-.8-2.8 1.1-2.8.6 0 .4.5-.4 1s-1 1-.4 1c1.9 0 2.4-1.3 1.1-2.8-.9-1.3-.9-1.4.1-.8.7.4 1.2.2 1.2-.6 0-.7.9-1.9 2-2.6 1.2-.7 1.7-1.8 1.3-2.8-.4-1 0-2 1.1-2.6.9-.5 1.3-1.4 1-2-.5-.8-.1-.9 1.1-.4 1.5.5 1.6.4.5-.9-1-1.2-.9-1.6.4-2.1.9-.3 1.3-1 1-1.5-.3-.5.2-.9 1.1-.9 1.3 0 1.4-.4.4-2.1-.9-1.7-.8-2 .2-1.4.9.6 1.1.3.6-.8-.3-.9-.3-1.6.1-1.6 2.7.4 3.4-.1 2.2-1.7-1.1-1.3-1-1.6.8-2.1 1.2-.3 2.2-1 2.2-1.5s-.6-.6-1.2-.2c-.7.4-.5-.2.5-1.3.9-1.1 1.7-2.5 1.7-3.2 0-.7.4-1 .9-.7.5.3 1.2-.1 1.5-1 .3-.8.2-1.3-.2-1-.4.2-.8-.4-.8-1.4 0-1.5.4-1.7 2.1-.8 1.8 1 1.9 1 .6-.5-1.2-1.5-1.1-1.7.5-1.7s1.7-.2.4-1.1c-1.1-.8-1.2-1.2-.2-1.6.6-.2.9-1 .5-1.6-.4-.7 0-.7.9.1 1.4 1.1 1.6 1 1.1-.9-.5-1.7-.3-2 .8-1.4 1.1.6 1.1.5.2-.5-.8-.9-.7-1.6.8-3.1 1.1-1.1 1.6-2.5 1.2-3.5-.5-1.3-.3-1.5.7-.9s1.2.4.7-.7c-.4-1.1.1-1.8 1.6-2.2 2-.5 2-.6.3-2.5-1.6-1.8-1.6-1.9.1-1.7 1.1 0 1.8-.5 1.7-1.7-.1-.9.4-1.7 1.2-1.7.8 0 1.4-.5 1.4-1.1 0-.5-.5-.7-1.1-.4-.6.4-.5-.2.2-1.3.7-1.2 1.8-1.8 2.4-1.4.5.3.3-.3-.5-1.3-.9-1.2-1-1.6-.2-1.1.9.6 1.1.1.8-1.8-.3-1.8-.1-2.3 1-1.9.9.3 1.4-.2 1.4-1.7 0-1.1.4-1.9.8-1.6.5.3.9-.1.9-.9s-.5-1.1-1.1-.8c-.6.4-.5 0 .1-.9.7-.8.9-1.9.5-2.4-.4-.4 0-.3.9.4 1.5 1.1 1.7.9 1.5-2.2-.1-1.9.3-3.2.8-2.8.5.3.7-.2.3-1.1-.4-1.1-.1-1.7.8-1.7s1.2-.6.8-1.7c-.5-1.1-.3-1.4.6-.8 1 .6 1.1.3.2-1.3-.8-1.6-.7-2.3.7-3.3 1.6-1.3 1.6-1.3.2.5-.9 1.2-1 1.7-.3 1.2.7-.4 1.8-1.6 2.4-2.8.8-1.5.8-1.9 0-1.4-1.4.9-1.4 0 0-2.5.5-1.1 1.5-1.7 2-1.3.7.4.6-.3-.1-1.6-.7-1.2-.8-2-.3-1.7 1 .6 4.8-6.2 3.9-7-.2-.2-.7.5-1.1 1.6-.3 1.2-1.1 2.1-1.7 2.1-1.1 0 .6-2.6 3.1-4.7.9-.8 1-1.3.3-1.3-.6 0-.9-.7-.6-1.5.4-.8 1-1.2 1.5-.9.5.3.9.1.9-.5 0-.5-.5-1.3-1.1-1.6-.7-.5-.5-1.2.5-2.3.8-1 1.5-2.2 1.6-2.7.1-.6.4-1.2.7-1.5.4-.3.3.1-.1.7-.5.9-.2 1.1.9.7 1.4-.6 1.4-.8-.1-1.9-1.4-.9-1.4-1.4-.4-2 .9-.5 1.1-.4.6.3-.4.7-.5 1.2-.2 1.2s1-1 1.7-2.1c.9-1.7.8-2-.2-1.4-.9.6-1.1.3-.6-.9.4-1 .7-2.2.7-2.7 0-.6.5-.7 1-.4.9.6 1.2-.1.9-2.3-.1-.4-.6-.6-1.2-.4-.6.2-.4-.5.6-1.6.9-1 1.4-2.3 1-2.7-.5-.5.1-.3 1.1.5 1.8 1.4 1.9 1.4.8-.7-1.4-2.6-1.6-4.4-.2-2.3.5.8 1.2 1.1 1.6.7.4-.4.3-1.2-.3-1.8-1.2-1.2-.6-4.2.7-3.4.4.3.7-.8.6-2.5-.2-2.5 0-2.7 1.3-1.7 1.2 1 1.3.9.2-1.1-1-1.9-.9-2.2.6-2.3 1.1 0 1.3-.3.5-.6-1-.4-1-.8 0-2.1.7-.9.8-1.3.2-.9-1.2.7-1.2-2.9.1-4 .4-.5.5-.3.1.4-.3.6-.2 1.4.3 1.8 1.2.7 2.6-7.9 1.5-9.6-.5-.8-.3-1 .6-.4 1 .6 1.2.4.7-.8-.4-1.1-.1-1.7.8-1.7s1.2-.6.9-1.5c-.4-.8 0-2.3.7-3.2 1.2-1.4 1.2-1.6-.1-.8-1.2.7-1.3.6-.3-.6.9-1.1.9-1.9.2-2.6-.8-.8-.7-1.3.2-1.8.7-.5 1-.4.6.2-.4.6-.1 1.3.6 1.6 1.5.5 1.6-2 .3-4.1-.4-.7-.1-1.5.8-1.8 1.7-.6 2.3-2.6.7-2.2-.5.2-1.1-.1-1.2-.6-.2-.5.6-1.1 1.8-1.2 1.8-.3 2.1 0 1.6 1.4-.3.9-.3 1.4.1 1 .5-.4 1.4-.1 2.1.5 1 .9 1 1.5.1 2.6-.8 1.2-.8 1.3.2.7.7-.4 1.2-.2 1.2.4 0 .6.5.8 1.1.4.8-.5.8-.1 0 1.4-1.5 2.7-1.4 3.2.5 3.2.8 0 1.3.4.9.9-.3.5.3 1.2 1.3 1.5 1 .4 1.9 1.3 1.9 2.1s-.4 1.2-.8 1c-1.2-.8-.4 2.1 1 3.9.7.9 1.7 1.4 2.1 1.1.5-.3.7.8.5 2.5-.3 1.8 0 2.8.5 2.5.6-.4 1 .1 1 .9 0 .9.5 1.6 1.1 1.6.5 0 .9.8.8 1.7-.4 2.9 1.1 6.3 2.9 6.3 1.2 0 1.3.3.4 1.2-1.5 1.5-1.6 3.1 0 2.2.8-.5.9-.2.4 1.1-.5 1.5-.4 1.6.8.6 1.1-1 1.4-.9 1.2.1-.1.7-.6 1.9-1 2.7-.6 1-.5 1.2.2.7.7-.4 1.2-.2 1.2.4 0 .6.4.9.9.6.5-.4.7.4.3 1.6-.4 1.6-.2 1.9.8 1.3 1-.6 1.1-.4.4.6-1.2 2-1.4 4-.3 3.3.5-.3.6-1 .3-1.6-.4-.7-.2-.8.4-.4.9.5.9 1.3.2 2.6-1.5 2.8-1.2 3.7.5 1.4 1.4-1.8 1.4-1.8.8.3-.3 1.5-.1 2.3.7 2.3.9 0 .9.4-.1 1.7-.8.9-.9 1.4-.4 1.1.6-.4 1.7.3 2.5 1.5 1.2 2 1.2 2.1-.4.8-1.4-1.2-1.6-1.2-1 .3.3.9 1.4 1.6 2.3 1.6 1.4 0 1.4.2.1 1-.9.6-1.1 1-.3 1 .7 0 1 .7.6 1.7-.4 1.1-.3 1.4.5.9 1.2-.7 1.6.5 1.3 3.3-.2.8.2 1 1.1.5.9-.5.8-.2-.2 1.1-.8 1-1 1.6-.4 1.2.7-.4 1.5 0 1.8.9.3.8.2 1.3-.3.9-1.8-1-.4 2.5 1.5 4 1.9 1.4 1.9 1.4-.1 1.5-1.9.1-1.9.2.3 1.2 1.2.6 2.2 1.5 2.2 2s-.4.7-.8.4c-.5-.3-.9.1-.9.9s.4 1.2.9.9c.4-.3.8 0 .8.6s.5.8 1.1.4c.8-.4.8 0 0 1.5-.8 1.4-.8 2.1-.1 2.1.7 0 .8.6.1 1.8-.7 1.4-.6 1.9.4 1.9.8 0 1.1-.5.8-1-.3-.6-.1-.7.6-.3.9.6.9 1.1-.1 2.4-.8.9-.8 1.3-.2.9 1.5-.9 2.4 1.5 1.7 4.2-.3 1.3-.1 2.1.7 2.1.8 0 1 .8.7 2.1-.5 1.7-.3 1.8 1.1.7.9-.7 1.3-.8.9-.2-1.7 2.8-1.5 6.5.4 7.7 1.2.8 1.9 2.3 1.9 4.4 0 1.8.5 3.3 1 3.3.6 0 1 .9 1 2.1 0 1.3-.4 1.8-1.2 1.3-.7-.4-.8-.3-.4.5.4.6 1.1.9 1.6.6 1.5-.9 2.2 3.5.8 5.2-.7.9-.8 1.4-.3 1.1 1.3-.8 3.8 1.9 2.5 2.7-.6.3-1 1.2-1 1.8 0 .7.4.6 1-.3.8-1.2 1-1.1 1 .7 0 1.3 0 2.6-.1 2.9 0 .4.5 1.1 1.3 1.5 1 .7 1 .9-.2.9-.9.1-.6.6 1 1.6 1.4.8 1.7 1.3.8 1-1-.3-2 0-2.4.7-.4.7-.4.9.1.5.4-.4 1.4-.1 2.1.7 1.7 1.7 1.8 2.9.2 1.9-1-.6-1-.4 0 .7.6.7 1.2 1.7 1.2 2.2 0 .4-.6.5-1.2.2-.7-.4-.5 0 .5.8 1.8 1.5 2.4 3.2.7 2.2-.5-.3-.7 0-.4.9.3.8 1.2 1.7 2 2 .8.3 1.1 1.2.7 2.2-.3.9 0 2 .8 2.5 1 .6 1 .9.2.9-.7 0-1.3.5-1.3 1.1 0 .6.9.8 2.3.4 2.1-.7 2.1-.6.3.7-1.3 1.1-1.6 1.7-.7 2.2.6.4.9 1.2.6 1.7-.4.5-.1.9.5.9.8 0 .8.5.1 1.8-.8 1.3-.4 2.2 1.7 4 2.7 2.3 2.7 2.3.2 1.1l-2.5-1.2 2 2.3c1.1 1.3 1.5 2 .8 1.7-.6-.4-1.5-.2-1.9.4-.4.8-.3.9.4.5.6-.4 1.8.6 2.7 2.3 1.9 3.8 1.9 5.1 0 2.5-1.5-1.9-1.5-1.9-.8.1.3 1.1 1.3 2.4 2 2.8.7.5 1.1 1.2.8 1.8-.4.5 0 .9.7.9.9 0 .9.3-.2 1-1.2.8-1.2 1-.1 1 1 0 1.1.3.2 1.4-.8 1-.9 1.6-.1 2.1.6.3.8 1.1.5 1.6-.4.5-.1.9.4.9.6 0 1.1.4 1.1 1 0 .5-.8.6-1.7.3-1.7-.7-1.7-.6-.1 1.1 1 .9 2.4 1.4 3 1.1.7-.4.4.1-.6.9-1.7 1.4-1.8 1.6-.3 1.6 1.3 0 1.5.5.7 2.5-.5 1.4-.6 2.4-.2 2.4 2.1-.3 2.4.3.6 1.5-2.1 1.6-.1 1.7 2.6.2 1.2-.7 1.3-.6.3.5-1.6 1.7-1.7 5.3-.1 4.3.7-.5.8-.3.3.7-.5.7-1 2.5-1.1 3.8-.3 2-.1 2.3.7 1.1.8-1.1.9-.7.6 1.8-.2 2.2 0 3.1.8 2.8 1.2-.4 1.5.6 1.5 6.2 0 2.3.4 3.1 1.3 2.6.7-.4.9-.4.5.1-.4.4-.3 1.7.3 2.9 1 2 1 2-.5.2-2.1-2.7-2-1.3.3 3.4 1.3 2.7 1.6 4.2.9 4.7-.7.4-.4 1.1.7 2 1.2.8 1.4 1.3.5 1.3-.9 0-.8.6.5 2 1.7 1.8 1.7 2 .2 1.4-1.3-.5-1.6-.2-1.1 1 .3.9 1.1 1.3 1.6 1 .6-.4.9.6.8 2.2-.3 4.7-.1 5.6 1.3 4.8.9-.6.9-.4.1.7-1.3 1.6-1.5 5.1-.2 4.3.9-.6.9-.4 1.2 4.1 0 1.6.5 3.3 1 3.7.6.4.4 1.4-.5 2.4-1.2 1.5-1.2 1.6 0 .9 1.1-.6 1.3-.3.8 1.4-.3 1.2.1 2.8 1 3.6 1 1 1.4 2.9 1.1 5.4-.2 2.8 0 3.7.9 3.4.8-.3 1.3.3 1.3 1.6s.5 1.9 1.3 1.5c.8-.3 2 .2 2.7 1 .7.9 1.6 1.3 2.1 1 .5-.3.9 0 .9.6 0 .8.6.8 2 0 1.5-.8 2-.8 2 .1 0 .8.4.8 1.5-.1.8-.7 2.2-1 3-.6 1 .3 1.4.2.9-.5-.3-.6.4-1.8 1.6-2.6 1.6-1.1 1.9-1.8 1.1-2.6-1.4-1.4-1.4-2.7 0-2.7.5 0 .8.4.5.8-.3.5.1.9.9.9 1.3 0 1.3-.3.1-1.6-.7-.9-1.1-2.2-.8-3 .3-.9 0-1.1-.8-.6-.9.6-.9.3 0-1.5s.9-2.4 0-3c-.9-.6-.9-.9.1-1.3s1-.6.2-.6c-.7-.1-1.3-.6-1.3-1.2 0-.5.6-.7 1.3-.3.9.6.9.5 0-.7-1-1.2-1-1.8-.1-2.7.7-.7.8-1.2.2-1.2-.6 0-1.1-.7-1.1-1.5s.3-1.5.7-1.5c.4 0 .7-.7.7-1.5 0-1.2-.3-1.2-1.5-.2-1.3 1-1.4.9-.5-.7.7-1.3.8-2.9.2-4.4-.5-1.4-.5-2.1 0-1.7 2.1 1.2 2-1.5-.1-2.9-1.8-1.3-1.9-1.6-.5-1.6.9 0 1.7-.4 1.7-1 0-.5-.6-.7-1.4-.4-1 .4-1.3 0-1.1-1.3.2-1 .4-1.8.5-1.8.1 0 .3-.8.5-1.8.2-.9-.1-1.5-.6-1.1-.5.3-.6 1-.3 1.6.4.7.2.8-.5.4-.9-.6-.8-1.4.4-3.3 1-1.4 1.3-2.3.7-1.9-.5.3-1.2-.8-1.4-2.4-.3-1.7 0-3 .5-3 .6 0 .6-.5 0-1.3-.5-.6-.8-2.4-.7-4 .3-2.5-.6-3.2-3.1-2.7-.5.1.1-1.1 1.5-2.6s1.9-2.4 1.3-2c-.7.4-1.3.2-1.3-.4 0-.6-.5-.8-1.2-.4s-.8.3-.4-.5c.4-.6 1.1-.9 1.6-.6 1.1.7.7-2.2-.5-3.2-.4-.4-.5-.2 0 .6.5 1 .4 1.2-.3.7-.9-.5-.9-1.3-.1-2.8.9-1.6.8-2.3-.2-2.9-1.2-.7-1.1-1.1.1-1.9.8-.5 1-1 .4-1-.7 0-1.5-.7-1.8-1.6-.5-1.2-.2-1.5 1-1 1.3.5 1.4.4.6-.7-.7-.8-.8-1.8-.4-2.2.4-.5.1-.5-.7 0-1 .6-1.1.2-.6-1.5.4-1.4.3-2-.3-1.6-.5.3-1.2-.1-1.6-.9-.3-.8-.2-1.4.2-1.2.4.1.7-.3.7-.8 0-.6-.4-.9-.9-.7-.5.2-.4-.4.4-1.2 1-1.3 1-1.6-.1-1.6-1.2 0-1.2-.2-.1-.9 1.1-.6 1-1.1-.3-2.5-.9-.9-1.2-1.6-.6-1.6s1.1-.5 1.1-1.1c0-.5-.6-.7-1.2-.3-1 .6-1 .4 0-.7.6-.7 1.2-1.8 1.2-2.3 0-.6-.5-.4-1 .4-.8 1.3-1 1.2-1-.3 0-1.1-.4-1.5-1.2-1.1-.7.4-.8.3-.4-.5 1.2-1.9 1.4-6.1.3-6.1-.5 0-.4-.7.3-1.5 1.2-1.4.7-2-1.4-1.6-.5.1-.1-.9.8-2.4 1.8-2.8 1.5-3.3-.7-1-1.3 1.2-1.4 1-1.3-1.5 0-1.5.4-2.6.9-2.3.4.2.4.9.1 1.5-.5.7-.2.8.5.4.9-.6.9-1.2-.3-2.5-.9-1-1.6-2.7-1.6-3.9 0-1.1-.5-2.4-1-2.7-.7-.4-.6-1.3.1-2.7 1-1.8.9-2-.5-1.5-1 .4-1.5.3-1.1-.2.3-.5-.1-1.2-.7-1.5-.7-.4-.4-.5.7-.3 1.6.3 2.1-.1 2.2-1.7.1-1.2-.1-1.5-.4-.9-.3.7-.9 1.3-1.4 1.3-.6 0-.7-.5-.4-1 .3-.6.2-1-.3-1s-.9-.7-.9-1.5.5-1.5 1.1-1.5c.6 0 .5-.4-.3-.9-1.1-.7-1.2-1.3-.3-2.4.9-1.1.9-1.4-.3-1.4-.8 0-1.2.3-1 .7.2.4-.2.7-1 .7-1.1 0-1.1-.4.1-2.3 1.2-1.7 1.2-2.4.3-3-.8-.5-.9-.3-.4.6.5.9.4 1.1-.3.6-.9-.5-.9-1.3-.2-2.6 1.3-2.4.4-4.8-2.1-5.5-2-.7-2-.7.1-2.5 1.7-1.5 1.8-1.9.5-2.4-1.1-.4-1.4-.2-.9.6.4.7.3.8-.4.4-.9-.5-.9-1.3-.2-2.7 1.2-2.2.4-4.3-1.4-3.6-.7.3-1.2-.7-1.3-2.7-.2-6.9-1.1-11.8-2.4-12.9-1-.9-1-.8.1.8 1.2 1.7 1.2 1.8 0 .8-1.5-1.4-2.3-4.6-.9-3.7.5.3.9.1.9-.4 0-.6-.6-1.2-1.4-1.5-.9-.4-1.2-1.4-.9-2.6.3-1.2.1-2.1-.6-2.1s-1-1-.7-2.5c.3-1.3 0-2.8-.6-3.1-.7-.5-.8-.2-.3.6.6.9.4 1.1-.5.5-1-.6-.9-1.1.5-2.2 1.1-.7 1.3-1.3.6-1.3-.7 0-.9-.5-.5-1.2s.3-.8-.5-.4c-.6.4-.9 1.2-.6 1.7.4.5.1.9-.5.9s-.8-1-.4-2.6c.5-2 .4-2.5-.6-1.9-1 .6-1 .3-.2-1 1.1-2-.3-6.5-2-6.5-.5 0-.6.5-.2 1.2.5.7.3.8-.5.3-.9-.5-1-1-.2-1.8 1.3-1.3 1.5-3 .2-2.3-.5.4-.7-.4-.3-1.6.4-1.6.2-1.9-.9-1.3-1.1.7-1.1.5.1-1 .9-1.1 1-1.6.3-1.1-1.2.6-1.8-1.1-1.4-3.7 0-.4-.4-.7-1-.7-.5 0-.7-.5-.4-1 .3-.6.1-1-.4-1-.6 0-1.1-.5-1.1-1.1 0-.5.4-.7 1-.4.6.3.7-.1.4-.9-.3-.9-1-1.3-1.5-1-.6.3-.8-.6-.5-2 .3-1.4 0-2.8-.5-3.2-.5-.3-.6-1-.3-1.6.4-.7.2-.8-.5-.4-.9.6-.9 1.2.1 2.4 1.1 1.5 1.1 1.5-.2.5-.9-.7-1.5-2.6-1.4-4.7.2-2.7-.2-3.6-1.5-3.6-1.4 0-1.4-.2-.1-1 1.2-.8 1.2-1-.5-1s-1.7-.2-.5-1c.9-.6 1-1 .3-1-.6 0-1-.9-.8-2 .2-1.1.1-1.9-.3-1.6-.4.2-1.4-.3-2.2-1.2-1.3-1.4-1.2-1.5.3-.9 2.4.9 2.1-.9-.5-2.7-1.2-.9-1.7-1.6-1-1.6.6 0 1.2-.5 1.2-1.2 0-.6-.3-.8-.7-.5-.3.4-1.2-.1-1.9-1.1-1.9-2.5-1.7-4 .2-1.6 1.4 1.6 1.4 1.5 0-.9-.9-1.5-1.4-3.3-.9-4 .4-.7-.1-.6-1.3.3-1 .8-1.6 1-1.1.5.4-.4-.1-1.7-1-2.8-1-1.1-1.3-1.7-.6-1.4 1.5.9 1.1-3.6-.5-5.6-.7-.8-.9-1.7-.5-2 .3-.4.1-.7-.6-.7-.8 0-1.1-.8-.8-1.9.3-1.5 0-1.9-1.3-1.6-1.4.3-1.6-.1-1.2-1.7.4-1.6.2-1.9-.9-1.3-1.2.8-1.2.6 0-.8.9-1.1 1-1.7.2-1.7-.6 0-1.1-.7-1.1-1.6 0-.9.5-1.2 1.2-.8.7.4.8.3.4-.4-.4-.6-1.4-.8-2.3-.5-1.3.5-1.5.1-1.1-2 .4-2.2.1-2.7-1.4-2.7s-1.8-.5-1.3-2c.4-1.2.2-2-.6-2s-.8-.5.2-1.7c1-1.1 1-1.4.2-.9-.7.4-1.3.2-1.3-.3 0-.6-.8-1.1-1.7-1.2-1.5 0-1.5-.2.2-.9 1.9-.8 1.8-1.1-.4-1.4-.5 0-1.3-.5-1.8-1s-.3-.6.5-.2c.7.4 1.2.1 1.2-.9 0-.9-.4-1.3-1-1-.9.5-1.5-1.5-1.1-3.8 0-.4-.4-.7-1-.7-.7 0-.9-.9-.6-2.1.5-1.7.3-1.8-1.1-.7-1.3 1.1-1.5 1-1-.9.3-1.2 0-3-.9-4-.8-1-1.1-1.1-.7-.3.4.9.3 1.2-.2.7s-.9-1.8-.9-3c-.1-1.3-.6-2.1-1.4-1.9-.7.1-1-.2-.6-.8.3-.5 0-1-.7-1-.9 0-.9-.3.2-1 1.3-.9.8-1.4-1.1-1.2-.4.1-.5-.8-.2-1.8.3-1.2 0-2-.6-2-.7 0-.9.4-.6 1 1 1.6-.1 1.1-1.6-.7-1-1.1-1-1.4-.1-.9.7.4 1.2.1 1.2-.8s-.6-1.6-1.2-1.6c-.9 0-.8-.4.2-1.1 1.2-.9 1.1-1-.6-.6-1.3.3-2.1-.1-2.1-.9 0-.7.4-1.1.9-.8.4.3.8.2.8-.1 0-.9-2.3-3.1-3.5-3.3-.5-.1-1-.5-1-1 0-.4-.4-1.3-.9-2.1-.7-1.1-.5-1.3.8-.8 1.4.5 1.5.3.6-1.3-.6-1-1.8-2.4-2.8-2.9-1.4-.9-1.4-1.2-.4-1.9 1.1-.8 1.1-1-.2-1.5-2.1-.8-2-2.7.2-2.7.9 0 1.3-.4.7-.8-1.5-1.1-1.7-3.2-.2-3.2.9 0 .8-.3-.2-.9-1.1-.7-.8-1 .9-1.6l2.3-.7-2.4-1.5c-2-1.2-2-1.4-.4-1 1.5.3 2-.2 2-2 0-1.2-.4-2.3-.9-2.3-.6 0-.5-.5.2-1.2 1.6-1.6 1.5-3.1 0-2.2-1 .5-1 .4-.1-.6.6-.7.9-1.9.6-2.8-.4-.9-.2-1.3.4-.9.5.3 1 0 1-.8s-.3-1.2-.7-1c-.4.2-.7-.9-.6-2.4.1-1.6.4-2.7.9-2.4.4.2.7-.1.7-.7s.4-.9.9-.6c.9.6.6-4.3-.5-7.3-.3-.9.1-1.1 1.3-.7 1.5.5 1.5.4-.1-.9-1.2-.9-1.5-1.5-.7-1.5.7 0 1.1-.6.8-1.5-.4-.8-.2-1.7.4-2 .5-.4.6-1.2.2-1.8-.4-.7-.8-2.6-.9-4.2-.1-1.7.1-2.4.3-1.7.3.6.9.9 1.5.6.6-.4.6.2-.1 1.4-.8 1.5-.8 2.3.1 2.8.6.4.8.3.5-.3-.4-.6.1-1.7 1-2.4 1.2-1 1.4-1 .9-.2-.4.8-.2 1.3.4 1.3.6 0 .8.4.5 1-.3.5.2 1 1.2 1 1.5 0 1.6.2.3 1-1.2.8-1.1 1 .7 1 2.9 0 3.8 1.6 1.6 3-1.6 1-1.6 1 .4.5 1.2-.3 2.5-.1 2.9.6.4.8.3.9-.4.5s-1.2-.2-1.2.3c0 .6.5 1.1 1 1.1.6 0 2.1 1 3.3 2.2 1.2 1.3 1.8 2 1.3 1.5-1.8-1.3-2.8-.7-1.2.8.8.8 1.9 1.5 2.5 1.5.6 0 .7.7.4 1.7-.4.9-.2 1.4.3 1.1.5-.3 1.8.4 2.9 1.5 1.1 1.1 1.5 1.7.9 1.4-.6-.3-1.1 0-1.1.7 0 .8.6 1.2 1.4.9.7-.3 1.3 0 1.3.7 0 .6.5.8 1.1.4.8-.4.9 0 .4 1.5-.5 1.6-.3 2 1 1.5.9-.4 1.5-.3 1.3.2-.5 1.4 2.8 5.5 3.8 4.6.4-.4.3 0-.4.9-1.5 2-.3 3.3 1.6 1.6 1-.8 1.3-.8.9-.1-.4.7 0 1.5.9 1.8 1.3.5 1.4.9.3 2.2-.7.8-.8 1.4-.3 1.3.5-.1 1.6-.1 2.4 0 1.3.1 1.3.2 0 1.1-1.3.9-1.3 1 0 1.1.8.1 1.9.1 2.4 0s.3.5-.4 1.4c-1.1 1.3-1 1.5.4.9 1.2-.4 1.5-.2 1.1.9-.4.8.1 1.7 1 2.1.9.3 1.3 1 1 1.6-.3.5-.1 1 .5 1s.8.5.4 1.2c-.5.8-.1.8 1.2-.2 1-.8 1.6-1 1.2-.6-.4.5 0 1.5 1 2.3.9.8 1.1 1.2.5.8-.7-.3-1.3-.1-1.3.4 0 .6.5 1.1 1.1 1.1.6 0 .8.7.5 1.6-.6 1.5-.4 1.5 1.1.3.9-.8 1.4-.9 1-.2-.4.6-.1 1.8.7 2.6.8.8 1.2 1.7.9 2.1-.4.3.2.6 1.3.6 1.6 0 1.7.2.4 1-1.3.8-1.3 1 .2 1 1.2 0 1.5.5 1.1 1.7-.4 1.1-.3 1.4.5.9.7-.4 1.2-.2 1.2.4 0 .6.5.8 1.3.4.7-.5.6 0-.3 1.1-.9 1.1-1 1.6-.2 1.1.7-.4 1.2-.1 1.2.8s.5 1.6 1.1 1.6c.6 0 .9.7.6 1.5-.4.8-.1 1.7.5 2.1.7.4.8.3.4-.4s-.2-1.2.3-1.2c.6 0 1.1.7 1.1 1.6 0 .8.3 1.3.8 1 .4-.2 1.3.7 1.9 2.1 1.2 2.5 1.2 2.5-1 .7-1.4-1.2-1.1-.7.6 1.2 1.5 1.7 2.4 3.3 2 3.7-.3.4-.1.7.5.7.5 0 1.3-.6 1.6-1.3.3-.6.3-.1 0 1.2-.4 1.7-.3 2.1.6 1.6.9-.6 1-.1.5 1.6-.7 2.2-.7 2.3 1.1.9 1-.8 1.6-1 1.2-.6-.4.5-.3 1.5.3 2.2.6.8.9 2.1.5 2.9-.3.9-.2 1.4.2 1.1.4-.2 1.4-.1 2.2.5 1.3.7 1.3.9 0 .9-1.2.1-1.1.3.3 1.1.9.6 1.5 1.4 1.2 1.9-.3.5.4 1.2 1.6 1.5 1.9.6 2 .7.2 2-1.3 1-1.4 1.3-.3 1.2.8-.1 1.6.2 1.7.6.3 1.2 2.6 3.3 4.3 4 1.2.4 1.1.6-.3.6-1 .1-1.5.6-1.2 1.1.4.6 1.1.8 1.6.4.5-.3.8 0 .7.8-.2.7.3 1.2 1 1 .6-.1 1.1.1 1 .5-.3 1.6 1.5 4.3 2.5 3.6.6-.3.7-.1.3.6-.4.6-1.1.9-1.6.6-.5-.3-1.2 0-1.6.6-.4.7-.3.9.4.5.6-.3 1.3-.2 1.7.4.4.6 1.1.8 1.6.5.5-.4.5.5-.1 2-.7 1.7-.7 2.4 0 2 .5-.3 1.8-.1 2.7.4 1.3.7 1.4 1 .4 1.1-1 0-.7.6.7 1.9 1.2 1 1.9 2.1 1.5 2.5-.3.3 0 .6.8.6 1.1 0 1.1.2-.1 1-1.3.8-1.3 1 .2 1 .9 0 2 .5 2.4 1.2.5.7.2.9-.7.4-.8-.4-.6-.1.4.7 1.9 1.6 2.4 3.2.5 2.1-.7-.4-.8-.3-.4.4.4.6 1.3.9 2.1.5 1.1-.4 1.3-.1.9 1.1-.3.9-.1 1.6.6 1.6.6 0 .8.4.5 1-.3.5-.1 1 .4 1 .6 0 1.1.9 1.1 1.9 0 1.1.9 2.3 2.1 2.6 1.5.5 1.8 1 .9 1.5-.8.5-.7.9.6 1.4.9.3 1.4.9 1.1 1.3-.4.3.3 1.4 1.5 2.4 1.2 1.1 1.6 1.9.8 1.9-.7 0-.3.9 1 2s2 2 1.5 2c-.4 0-.2.6.4 1.4.9 1.1.9 1.5-.1 2-.7.3-.2.3 1.1 0 1.6-.4 2.1-.3 1.7.5-.4.6-.2 1.1.5 1.1.8 0 .7.5-.2 1.7-1.2 1.5-1.2 1.6.5 1 1.3-.5 1.7-.3 1.3.7-.4 1.1-.1 1.3 1 .9 1-.4 1.4-.2 1 .4-.9 1.4 1.6 6.4 2.9 5.9.7-.3.9.5.6 2.1-.3 1.8-.1 2.4.7 1.9.6-.4 1.1-.1 1.1.9 0 .9.5 1.3 1 1 .6-.3 1 .3 1 1.4 0 1.1 1 2.7 2.3 3.7 1.4 1.1 1.6 1.4.5 1.1-1-.4-2-.2-2.3.4-.4.5-.3.9.2.8 2.1-.4 3.3.2 3.3 1.7 0 1 .5 1.4 1.6 1 .8-.3 1.3-.2.9.3-.3.5-.2 1.1.2 1.4.5.2.3.2-.4.1-.7-.2-1 .3-.6 1.2.3.8 1.2 1.3 1.9 1 .7-.3 1.6 0 2 .6.4.7.3.8-.4.4s-1.2-.2-1.2.3c0 .6.4 1.1 1 1.1.5 0 .7.7.3 1.5-.3.9-.2 1.5.3 1.4 2.1-.3 3.2.2 3.9 1.8.5 1.5.4 1.6-.6.5-2.4-2.3-3-1.2-.7 1.2 1.3 1.3 2.8 2.1 3.3 1.8.6-.3.4.2-.3 1.1-1.2 1.4-1.1 1.6.7 1.2 1.5-.3 1.9 0 1.4.8-1.1 1.8-1.2 3.8-.2 3.1.5-.3.7-1 .4-1.5-.4-.5-.4-.9-.1-.9.3 0 1 1 1.7 2.1.9 1.7.8 2.4-.2 3.1-1 .6-.6.7 1 .3 1.5-.5 2.1-.3 1.7.3-.3.5.1 1.3.9 1.6.8.3 1.4 1.1 1.3 1.8-.2.7.3 1.2 1 1 .6-.1 1.2.4 1.2 1.2 0 .8-.6 1.7-1.2 1.9-.7.3.2.4 1.9.3 2.1-.2 3 .1 2.6.7-.4.6 0 .8.9.4.9-.3 2.5.1 3.6.9 1.9 1.3 2 1.2 1.5-.9-.5-2.2-.5-2.2 1.1-.2 1 1.1 1.5 1.5 1.2.9-.3-.7.1-1.4.9-1.8.8-.3 1.5-.1 1.5.4 0 .6.5 1 1.1 1 .5 0 .7-.5.4-1-.3-.6.1-1.3 1-1.6 1.3-.6 1.4-.8.3-1.5-1.1-.7-1.1-.9.1-.9.8 0 1.1-.6.7-1.6-.3-.8-.2-1.2.3-.9.5.3 1.3 0 1.7-.6.4-.8.3-.9-.4-.5s-1.2.2-1.2-.4c0-.6-.4-.9-.8-.6-.5.3-.9-.1-.9-.9s.4-1.2.9-.9c.4.3.8 0 .8-.5 0-.6-.5-1.1-1.1-1.1-.6 0-.9-.7-.6-1.5.4-.8.1-1.7-.5-2.1-.7-.5-.8-.2-.3.6.6.9.4 1.1-.4.6-.9-.6-.8-1.3.6-2.9 1.3-1.6 1.4-1.8.2-.9-1.9 1.4-2.7.3-2.4-3.5.1-1.2-.1-2-.4-1.9-.3.2-1.4-.7-2.4-1.9-1.6-2.3-1.6-2.4 0-3.5 1.6-1 1.5-1.1-.5-.7-1.2.3-2 .1-1.7-.3.3-.5-.1-1.1-.7-1.4-.7-.3-.3-.3 1 0 1.2.3 2.2.1 2.2-.5s-.3-1-.7-1c-2.6.4-3.5-.2-2.4-1.5.9-1.1.9-1.6 0-2.2-.8-.5-.9-.3-.4.6.5.9.4 1.1-.3.6-1.6-1-1.5-3.9.1-3 .6.3 0-.5-1.5-2-3.3-3.1-3.5-3.7-1-3 .9.2.7-.1-.5-.7-1.3-.7-2.3-2-2.3-3.1 0-1-.4-1.8-.9-1.8s-1.2-.7-1.5-1.6c-.5-1.3-.4-1.4.7-.6 1 .9 1.4.8 1.4-.3 0-.8-.9-1.5-2.1-1.5-1.7 0-1.8-.2-.6-1 1-.6 1.1-1 .3-1-.7 0-1.3-.7-1.3-1.6 0-.8-.4-1.2-1-.9-.5.3-1.1.1-1.1-.4-.3-2.1-.4-2.6-1.3-4-.7-1-.6-1.2.3-.6 1 .6 1.1.3.2-1.4-.7-1.1-1.4-2.1-1.7-2.1-.3 0-.2.6.2 1.2.4.8.3 1-.2.5-1-.9-1.1-1.3-1.3-5-.1-1.8-.3-1.9-1.2-.7-.8 1.2-.9.8-.7-1.5.2-3.2-.7-5.5-2.2-5.5-.5 0-.7.7-.4 1.5.4.8 1.1 1.2 1.7.8.6-.4.7-.1.2.7-1.3 2.1-3.7-1.8-2.5-4.1 1-1.8-.2-3.5-1.8-2.5-.5.3-.9-.1-1-.9-.1-.8-.3-2.2-.4-3-.1-.8-.5-1.5-1-1.5-.4 0-.8-.5-.8-1.1 0-.5.5-.7 1.2-.3.7.4.8.3.4-.4-.4-.6-1.3-.9-2.1-.5-.8.3-1.5.1-1.5-.5s.6-1.3 1.3-1.5c.9-.4.9-.6-.1-.6-.8-.1-1-.6-.6-1.4.5-.7 0-.6-1.1.3-1.1.9-1.6 1-1.1.2.4-.7.2-1.2-.6-1.2-.9 0-.9-.3.2-1 1.2-.8 1.2-1-.5-1s-1.7-.2-.5-1c1.3-.9 1.3-1 0-1.1-.8-.1-1.9-.1-2.3 0-.4.1-.3-.8.4-2 .8-1.5.8-1.9 0-1.5-.6.4-1.1.2-1.1-.4 0-.6-.7-1.8-1.5-2.7-.8-.8-1.3-1.9-1-2.4.4-.5.1-.9-.5-.9s-.8-.5-.4-1.2c.5-.8.2-.9-1-.5-1 .4-1.5.3-1.1-.3.3-.6 0-1-.7-1-.9 0-.9-.3.2-1 1.3-.9.7-1.4-1.2-1.1-.5 0-.8-1.1-.8-2.5s-.4-2.3-1-1.9c-.5.3-1-.1-1-1s-.4-1.4-.9-1.1c-.5.3-.8-.2-.7-1.1 0-1-.6-1.8-1.4-1.8-1 0-1.4-.8-1.2-2.2.2-1.2-.2-2.5-.9-2.9-.8-.5-.9-.3-.4.6.5.8.4 1.1-.3.6-.6-.4-.8-1.4-.5-2.3.5-1.2.3-1.4-.7-.8-1 .6-1.2.4-.7-.8.4-1.1.1-1.7-.9-1.7-.8 0-1.2-.5-.9-1 .3-.6.1-1-.5-1s-.8-.5-.5-1c.3-.6.2-1-.2-1-.5 0-1.3-1-1.8-2.3-.6-1.2-1.5-2.1-2-2-.6.1-1.1-1-1.2-2.3-.4-4.6-.6-5.3-1.5-4.8-.5.3-.5 1.1-.1 1.7.4.7 0 .6-1-.2-1.9-1.5-2.4-4.6-.5-3.5.7.4.8.3.4-.4-.4-.6-1.4-.8-2.3-.5-1.2.5-1.5.2-1.1-.8.3-.8 0-2.3-.8-3.4-.8-1-1.4-1.4-1.4-.9 0 .6.6 1.6 1.3 2.3 1 1.1.8 1.1-.9.1-1.4-.8-2-2-1.6-3.2.3-1.2-.1-1.8-1.2-1.8-.9 0-1.6-.8-1.6-1.8 0-1.7-3.8-4.8-5.3-4.4-.5.1-.6-.2-.2-.8.5-.8 1.2-.7 2.3.2 1.5 1.1 1.5 1.1.5-.3-.7-.9-1-1.9-.6-2.3.4-.4-.1-.4-1.2 0-1.5.6-1.7.4-1.2-1s.3-1.7-.8-1.2c-1.4.5-1.9-.5-1.6-3.2.1-.7-.2-1.2-.6-1.1-1.9.3-3.6-.2-2.9-.8.3-.4-.4-1.3-1.6-2l-2.3-1.4 2.5.7c2.2.6 2 .2-1.7-3.4-2.6-2.6-3.7-4.3-3-4.6.7-.4 0-.4-1.6-.2-2 .2-2.5 0-1.7-.8.6-.8.3-1.7-1-2.6-1-.7-1.7-1.7-1.4-2.2.3-.4 0-.8-.6-.8s-.8-.5-.5-1c.3-.6-.1-1-1-1s-1.9-.9-2.2-2c-.3-1.1-.9-1.7-1.4-1.4-.5.3-.9-.1-.9-.9s-.7-2-1.5-2.7c-.8-.7-1.2-1.7-.8-2.3.4-.6-.1-.8-1.4-.5-1.2.3-2 0-2.1-.8-.1-.8-.3-2.1-.4-2.9-.1-.8-.5-1.2-1-.9-.4.3-.8 0-.8-.6s-.4-.9-.9-.5c-.5.3-1.3 0-1.7-.6-.4-.7-.3-.9.4-.5.6.3 1.3.2 1.7-.4.3-.5-.3-1-1.4-1-1.9 0-2.6-1-2.2-3.2 0-.4-.8-1-1.9-1.3-1.1-.4-1.7-1.2-1.3-2.1.4-1 0-1.2-1.1-.8-1.1.4-2-.3-2.9-2.6-.8-1.7-1.7-3.1-2-3.1-2 .2-2.5 0-3.1-1.5-.5-1.4-.4-1.5.9-.4.9.7 1.8 1.1 2 .8.3-.3-.6-1.1-2-1.8s-2.5-1.9-2.5-2.7c0-.7-.5-1.3-1.1-1.3-.5 0-.7.4-.4 1 1 1.6-.1 1.1-1.6-.7-1-1.1-1-1.4-.1-.9.6.4 1.2.2 1.2-.3 0-.6-.6-1.1-1.4-1.1-1.4 0-3.1-2.7-2.7-4.3.1-.5-.2-.6-.7-.3-.5.3-1.5-.4-2.2-1.5-.8-1-2-1.9-2.7-1.9-.6 0-1-.9-.8-1.9.3-1.5-.1-1.8-1.2-1.4-1.2.5-1.4.3-.8-.7.6-1 .4-1.2-.9-.7-1 .4-1.5.3-1.1-.3.3-.6.1-1-.4-1-.6 0-1.1-1-1.1-2.2 0-1.2-.3-1.9-.6-1.5-1.1 1.1-4.7-3.1-3.8-4.5.6-1 .4-1-.9.1-1.5 1.2-1.7 1.2-1.1-.3.5-1.2 0-1.6-1.6-1.6-2 0-2.1-.2-.9-1.7.8-.9.9-1.4.3-1-.7.4-1.5 0-1.8-.9-.3-.8-1.1-1.2-1.7-.8-.8.4-.9.3-.5-.5.4-.6 1.1-.9 1.6-.6.4.3 1-.2 1.3-1 .4-.9.1-1.2-.7-.9-.7.3-1.9-.3-2.7-1.3-1.3-1.7-1.3-1.7.5-.3s1.8 1.3 1.1-1c-.6-2.3-.6-2.3.6-.7 1.3 1.6 1.4 1.6 1.4-.7 0-1.3-.3-2.2-.7-2-.3.2-.4-1.5-.1-3.8.5-3.3.3-4-.8-3.4-.8.4-.3-.2 1.1-1.4 1.4-1.2 2-1.9 1.3-1.6-.6.4-1.4.2-1.8-.4-.3-.5-.1-1 .5-1 .8 0 .7-.6-.1-2.1-.8-1.5-.8-1.9 0-1.5 1.4.9 1.4 0-.1-2.7-1-2-.9-2.1.5-.9 1.3 1.1 1.5 1 1.2-.5-.1-1-.9-1.7-1.6-1.5-1.1.3-1.1.1-.2-.9.6-.6.9-1.8.6-2.7-.5-1.1-.3-1.3.8-.7 1.1.7 1.2.6.2-.6-.9-1.1-.9-1.9-.2-2.6.8-.8.8-1.3 0-1.7-.8-.5-.8-1.3 0-2.8 1-1.8.9-2-.7-1.4-1.5.6-1.6.4-.7-.5.6-.6.9-1.8.6-2.7-.5-1.1-.3-1.3.8-.7 1.2.7 1.2.6.1-.7-1-1.3-1-1.7 0-2.1 1-.4 1-.6.1-.6-.7-.1-1.3-.6-1.3-1.2 0-.5.6-.7 1.3-.3.9.6.9.4-.1-.8-.9-1.1-1-1.8-.2-2.3.6-.3.8-1 .6-1.4-.3-.4.1-.8.9-.8s1.5.7 1.5 1.4c0 .8-.4 1.1-1 .8-.5-.3-1-.1-1 .4 0 1.4 1.3 1.4 2.8-.1.9-.9 1.2-.9 1.2.1 0 .7.4 1 .9.6.6-.3 2.5.8 4.4 2.5 1.9 1.6 3.7 2.7 4.1 2.3.3-.3.6 0 .6.8 0 1.1.2 1.1 1-.1.8-1.2 1-1 1.1 1 0 2.3.1 2.3.9.5.7-1.5.9-1.6.9-.4.1.9.9 2.3 1.9 3 1.5 1.3 1.6 1.2.3-.4-1.3-1.7-1.3-1.7 1.3-.6 1.8.8 2.3 1.5 1.4 2-.7.4.3 1 2.5 1.4 2.4.5 3.4 1.1 3.1 2-.4 1 .1 1.2 1.7.8 1.4-.4 2-.2 1.5.5-.3.6.6 1.3 2.3 1.7 2 .4 2.8 1.1 2.5 2-.4 1 0 1.3 1.5 1 1.1-.2 2.4.1 2.7.7.5.7.2.8-.6.3-.9-.5-1.1-.4-.6.3.4.7 1.6 1.2 2.7 1.2 1 0 1.9.5 1.9 1.1 0 .5-.4.7-1 .4-1.6-1-1.1.1.7 1.6 1 .8 1.4.9 1 .2-.4-.6-.3-1.4.3-1.8.5-.3 1 .1 1 .9 0 .9.9 1.6 2 1.6s2 .6 2 1.4c0 .8.5 1.8 1.2 2.2.7.4.8.3.4-.4s-.2-1.2.3-1.2c.6 0 1.1.7 1.1 1.6 0 .8.5 1.2 1 .9.6-.3 1-.1 1 .4 0 .6.7 1.1 1.5 1.1s1.5.7 1.5 1.5c0 1.3 1.8 2 4.2 1.6.4 0 2.3 2 4.3 4.6 1.9 2.5 3.5 4.2 3.5 3.6 0-.5-.6-1.5-1.2-2.3-.7-.7.2-.3 2 .9 1.7 1.2 3.2 2.9 3.2 3.8 0 .9.6 1.3 1.5.9.8-.3 1.5-.1 1.5.5s.5.7 1.2.3c.7-.4.8-.3.4.5-.4.6-1.2.9-1.7.6-.5-.4-.9-.2-.9.3s.9 1.2 2 1.5c1.1.3 1.8.1 1.4-.4-.3-.5.2-.6 1-.3.9.3 1.4.9 1.2 1.3-.3.4-.1 1.3.5 2.1.7 1.3.9 1.3.9 0 .1-.8.5-.4 1.1.9.6 1.6 1.4 2.1 2.6 1.7 1-.4 1.4-.4 1 0-.9.9 1.2 3.6 2.3 2.9.4-.3 1.3.2 2 1 1.1 1.3 1 1.5-.6 1-1-.4-.2.3 1.9 1.5 2 1.1 3.7 2.8 3.7 3.6 0 1.3.3 1.4 1.4.4 1.3-1 1.4-.7 1 1.7-.3 2.1-.2 2.4.5 1.3.9-1.3 1.2-1.3 2.3-.1 1.1 1.2 1 1.3-.2.7-.8-.4-.7-.1.3.7 1 .9 2.5 2.4 3.4 3.4.8 1 1.2 1.2.8.3-.4-1-.2-.9.8.2.8 1 1.7 1.5 2 1.1.4-.3.7.1.7 1.1 0 .9.4 1.4 1 1.1.6-.4.7.1.3 1.1-.4 1.1-.2 1.5.4 1.1.6-.4 1.9.4 2.9 1.8 1 1.3 2.1 2.2 2.5 1.9 1-.6 2 2.6 1.2 3.9-.4.7.2.5 1.2-.3s1.6-1.1 1.3-.5c-.7 1.3 1.7 3.6 2.8 2.7.5-.4.2.2-.6 1.2-1 1.3-1 1.7-.2 1.2s1.2-.1 1.3 1.1c0 1 .3 1.3.6.5.2-.6.9-1.2 1.4-1.2.6 0 .7.4.4 1-.3.5 0 1 .7 1 .9 0 .9.3-.2 1-1.3.8-1.3 1 .1 1 .9 0 2 .7 2.3 1.6.3.8 1 1.3 1.5 1 .5-.3 1.1.8 1.4 2.4.5 2.3 1 2.8 2.3 2.3 1.3-.5 1.6-.2 1.1 1-.3.9-.3 1.7.1 1.7s1.8 1 3.2 2.3c1.4 1.2 2.1 1.8 1.4 1.4-.7-.5-1.5-.3-2 .4-.4.8-.3.9.4.5.6-.4 1.7.2 2.4 1.3.9 1.4 1.6 1.7 2.4 1 .9-.8 1.1-.5.7 1-.4 1.6-.1 2.1 1.5 2.1s2 .6 1.8 3c-.1 2 .1 2.7.8 2 1.3-1.3 2.9-1.3 2.1 0-.7 1.2 4 7.2 4.9 6.3.3-.4.6.1.6 1s.5 1.7 1.1 1.7c.5 0 .7.4.4 1-.3.5 0 1 .8 1 1.4 0 4.2 4.7 3.8 6.4-.1.5.6.6 1.5.2 1.2-.4 1.5-.2 1.1.9-.4.9.4 2.1 2.3 3.1 2.2 1.3 2.7 2.2 2 3.4-.6 1.1-.4 1.6.8 1.7 3.2.3 4.7.8 5.8 2.2.9 1.1 1.2 1.2 1.9.1.6-.9.4-1.1-.6-.5-.8.5-1 .4-.6 0 1.2-1.4 3.8-1.5 3.1-.2-.3.7.1.4.9-.6 1.1-1.4 1.6-1.5 2-.5.4 1.1.6 1.1.6 0 .1-.7.5-1.1 1-.8.5.3 1.5-.2 2.2-1.1 1-1.2 1-1.4.2-.9-.7.4-1.3.3-1.3-.2 0-.6.8-1.3 1.7-1.6 1.2-.5 1.3-1 .5-1.8-.7-.7-.8-1.7-.1-2.9.7-1.5.6-1.7-.6-1.3-1.1.5-1.4.2-.8-1.2.5-1.3.3-1.5-.8-.9-1.1.7-1.1.5.1-1 .9-1.1 1-1.6.3-1.1-1.2.6-1.8-.5-1.4-2.6 0-.5-.3-.7-.7-.5-1.4.4-5.9-5.7-5.7-7.5.2-.9-.3-2.2-1.1-2.9-1.2-1-1.3-.8-.8.7.9 2.4 0 1.6-1.6-1.5-.7-1.5-.8-2.1-.1-1.7.7.5.9.1.5-.8-.3-.9-1-1.3-1.5-1-.5.3-.9 0-.9-.6s-.5-.8-1.2-.4c-.8.5-.7 0 .2-1.1.9-1.1 1-1.6.3-1.1-.8.4-1.3.2-1.3-.4 0-.6-.7-1.8-1.5-2.7-.8-.8-1.2-2-.8-2.6.4-.7.1-.7-.9.1-1.4 1.1-1.6 1-1.4-1.2.2-1.4-.1-2.3-.5-2-.5.3-.9 0-.9-.6s-.5-.8-1.1-.4c-.6.3-1-.1-.9-1.2.4-3.2.1-3.7-1.4-2.5-1.2 1-1.4.8-1.2-1.3.2-1.4 0-2.4-.4-2.1-.3.2-1.2-.5-2-1.5s-1.8-1.6-2.3-1.3c-.6.3-.7.1-.3-.6.4-.6 0-1.4-.8-1.7-.9-.3-1.6-1-1.6-1.6 0-.5.5-.6 1.2-.2.7.4.8.3.4-.4-.4-.6-1.4-.8-2.3-.5-1 .4-1.4.2-1-.4.4-.6.1-1.8-.7-2.6-.8-.8-1.2-1.7-.9-2.1.4-.3-.1-.6-1-.6s-1.7-.6-1.7-1.3c0-.8-.4-.7-1.1.3-.8 1.2-.9.9-.4-.9.6-1.9.4-2.3-.8-1.8-1.1.4-1.4.2-1-.9.3-.9-.1-1.4-1.2-1.4-1.5 0-1.6-.2-.4-1.7 1-1.1 1-1.4.2-.9-.7.4-1.3.2-1.3-.3 0-.6-1-1.1-2.2-1.2-1.3 0-1.7-.3-1.1-.6 1-.3 1-.8-.1-1.9-.8-.8-1.9-1.4-2.4-1.4s-1.5-.7-2.2-1.5c-1.1-1.3-1-1.4.5-.9 1.3.5 1.6.4 1.1-.4-.4-.7-1.6-1.2-2.7-1.2s-1.7-.5-1.4-1c.3-.6-.1-1-1-1s-1.4-.4-1.1-.8c.3-.5-.4-1.4-1.4-2.2-1-.8-1.7-1.7-1.4-2.2.3-.4-.3-.5-1.2-.1-1.3.5-1.5.3-.9-.7s.4-1.2-.9-.7c-.9.4-1.5.3-1.1-.2.8-1.4-2.5-4.2-3.8-3.4-.8.4-.7.1.1-.9 1-1.3 1-1.8.1-2.4-.8-.4-.9-.3-.5.4s.3 1.2-.3 1.2c-.5 0-1.3-.9-1.6-2-.3-1.1-1.1-2-1.6-2-.6 0-.7.5-.3 1.2.4.6.3.8-.4.4-.6-.3-.9-1.5-.7-2.5.3-1.5-.2-1.8-1.9-1.7-1.8.2-2.2-.1-1.8-1.6.5-2.1-.8-2.4-2.8-.6-1.2 1.1-1.2 1-.2-.4 1.4-1.7.1-3.5-1.7-2.4-1.2.8-2.3-2.2-1.5-3.7.5-.9.3-.8-.6 0-1 .9-1.9.6-4.1-1.8-1.6-1.7-3.3-2.8-3.9-2.4-.6.4-.7-.1-.3-1.1.4-1.2.3-1.5-.6-1-.8.5-1.4 0-1.8-1.4-.4-1.6-.8-1.8-1.4-.8-.6 1-.9.8-.9-.7 0-1.7-.2-1.7-1-.5s-1 1-1-1-.2-2.2-1-1c-.8 1.3-1 1.3-1-.1 0-1.7-4.6-4.3-6-3.4-.4.3-.7-.3-.6-1.3 0-1.1-.7-1.8-2.1-2-1.3-.2-2.3-.8-2.3-1.4 0-.5-.6-.8-1.4-.5-1 .4-1.4 0-1.1-1.3.2-1.2-.1-1.7-.9-1.4-.7.3-1.8-.5-2.5-1.8-.9-1.8-1-1.9-.6-.3.4 1.7.2 1.6-1.6-.5-1.1-1.4-1.8-1.9-1.4-1.3.4.9.1 1.1-.9.7-.9-.3-1.4-.9-1.2-1.3.2-.3-.2-1.2-1-1.8-.8-.8-1.5-.9-1.9-.3-.4.6-1.1.8-1.6.4-.6-.3-.5-1.2.3-2.2.7-1 .8-1.4.4-1-.5.4-1.5 0-2.3-1-1.2-1.6-1.3-1.6-.7.1.5 1.3.2 1.6-1 1.1-1-.4-1.5-1.2-1.2-1.9.3-.8-.2-1.2-1.2-1-.9.1-2.3-.7-3-1.9-.8-1.3-1.1-1.5-.8-.4.3 1.2.1 1.5-.9 1.1-.8-.3-1.2-.9-.9-1.4.3-.5-.2-.9-1-.9-.9 0-1.6-.5-1.6-1.1 0-.8-.5-.7-1.6.2-1.4 1.1-1.5 1-1.2-.7.2-1.4-.2-1.9-1.9-1.8-1.2.1-2.2-.1-2.1-.5 0-.3 0-1.3-.1-2.1-.1-1.3-.2-1.3-1.1 0-.6.9-1 1-1 .3s-1-1-2.2-.8c-2.3.4-2.3.4-.3-1.1 2-1.6 2-1.6-.2-.9-1.4.4-2.3.2-2.3-.4 0-.6-.8-.7-1.7-.4-1.3.5-1.5.2-1-1.2.6-1.5.5-1.6-.8-.5-1.2 1-1.5.9-1.5-.6 0-1.6-.2-1.7-1-.4-.7 1.2-1 1.2-1 .1 0-.8-.6-1.1-1.6-.7-1.1.4-1.5.2-1.1-.8.4-1.1.1-1.3-1-.9s-1.4.2-.9-.5c.4-.7.2-1.2-.3-1.2-.6 0-1.1.6-1.1 1.2 0 .9-.3.8-.9-.2-.6-.8-.7-1.8-.4-2.3.3-.5-.3-.4-1.3.1-1.4.7-2.5.6-3.8-.4-1-.7-2.4-1-3-.7-.6.4-.5-.1.3-1 1.2-1.5 1.2-1.7-.2-1.2-.8.4-1.8.2-2.2-.4-.3-.6-1.5-1.1-2.6-1.1-1 0-1.9-.4-1.9-1 0-.5-.3-.9-.7-.9-2 .3-5.7-.3-4.5-.8.6-.2 1.2-.9 1.2-1.4 0-.6-.4-.8-.9-.5-.5.3-.9-.9-1-2.7-.1-4.1-.4-5.8-1.6-7.7-.8-1.3-.7-1.3.8-.1.9.7 1.5 1.7 1.2 2.1-.3.5-.1 1.1.4 1.4 1.1.7.9-1.3-.3-3.2-.4-.7-.3-1.9.4-2.7.9-1.1.7-1.2-1-.8-1.6.4-1.9.2-1.4-1.1.3-.9 1.1-1.3 1.8-1 .6.3.3-.1-.6-.9-1.4-1.1-1.5-1.6-.5-2.7.9-1 .9-1.3 0-1.7-.7-.3-1.3-1.1-1.3-1.9 0-1 .5-1.2 1.3-.8.9.6.9.4.1-.7-.6-.8-.9-2.7-.7-4.2.2-1.8 0-2.6-.6-2.2-.7.3-.8 0-.5-.9.3-.9 1.1-1.3 1.8-.9s.6.1-.2-.9c-.7-.8-.9-2.4-.5-3.3.4-1.3.3-1.6-.5-1.1-.7.4-1 .2-.7-.6.3-.8.7-3 .8-5 .3-3.4.2-3.6-1.7-2.6-2.1 1.1-2.1 1.1-.2-1.1 1.2-1.3 1.4-2.1.7-2.1s-1-.4-.6-.9c.3-.5.1-1.2-.4-1.6-.6-.3-.7-1.5-.2-2.8.5-1.4.3-3.7-.5-6.1-1.2-3.4-1.2-3.7.1-2.6s1.4 1 .9-.6c-.4-1-1.1-2.4-1.6-3.1-.6-.7-.4-1.4.3-1.9.9-.5.7-1.1-.7-2.2-1.6-1.3-1.7-1.4-.1-.9.9.4 1.7.2 1.7-.3 0-.6-.5-1-1.1-1-.8 0-.7-.6.2-1.7 1.1-1.3 1.1-1.5.1-.9-.9.5-1.3.3-1.1-.5.3-2.5-.1-4-.9-3.5-.5.3-.9-.1-.9-.9s.4-1.2.9-.9c.4.3.8.1.8-.5 0-.5-.6-1.1-1.2-1.4-1-.3-.9-.8.2-2.2.8-1 1-1.6.4-1.2-1.5.9-1.5-4.6 0-5.5.7-.5.5-.8-.6-.8-1 0-1.8-.5-1.8-1.1 0-.5.4-.8.8-.5.5.3.9-.1.9-.8 0-.8-.7-1.2-1.5-.9-1.2.5-1.2.2-.2-1.6.6-1.3.9-2.5.6-2.9-.3-.3-.6 0-.6.6 0 .7-.4 1.2-1 1.2-.5 0-.7-.7-.3-1.6.3-.9 0-2-.8-2.5s-.9-.9-.3-.9c.6 0 1.2-1.1 1.2-2.5s-.5-2.2-1.1-1.8c-.6.4-.7.1-.2-.8.5-.7 1-2.2 1-3.3.2-1.9.2-1.9-1.2 0-1.3 1.7-1.4 1.7-.7-1 .6-2.3.4-2.7-.7-2.1-1.2.7-1.2.6-.1-.7 1-1.3 1-1.7 0-2-1-.4-1-.8-.1-1.9.9-1.1.7-2-.9-3.9-1.1-1.4-1.6-1.8-1.2-1 .4.8.3 1.2-.1.7-.5-.4-.9-2.3-1-4.2 0-1.8-.4-3.7-.9-4.2-.5-.4-.6-.3-.2.4.4.7.3 1.3-.2 1.3-1.5 0-2.2-2.8-.9-3.4.7-.2.4-.5-.5-.5-1-.1-1.9-.7-2-1.4 0-.6-.2-1.7-.2-2.2-.3-2-1.8-3.6-3-3.2-.7.3-1.3-.1-1.4-.9-.1-.8-.3-2.1-.4-2.9-.1-.8-1-1.5-2-1.5-1.1 0-1.6-.5-1.3-1 .3-.6-.1-1-.9-1-.9 0-1.6-.5-1.6-1.1 0-.5-.6-.7-1.2-.3-1 .6-1 .5-.1-.7 1-1.3 1-1.6-.2-1.6-.8 0-1.5.5-1.6 1.1-.1.6-.4 0-.8-1.4-.5-1.9-1.3-2.4-3-2.2-1.8.3-2.2 0-1.8-1.1.4-1.1 0-1.3-1.4-1-1.1.3-1.9 0-1.9-.7 0-1-.3-1-1.5 0-1.3 1.1-1.4 1-.9-.4.5-1.2.2-1.5-1.2-.9-1.2.4-1.5.3-1-.5.4-.7.3-1.2-.3-1.2-.5 0-1.2.6-1.4 1.2-.3.7-.6.4-.6-.7-.1-1.1-.5-1.6-.9-1-1 1.4-3.5 1.2-4.5-.3-.6-.9-1.2-1-2.1-.2-1 .7-1.7.6-2.7-.7-1.1-1.3-1.1-1.5-.1-.9s1.3.2 1.1-1.5c-.2-1.3 0-2.9.4-3.6.4-.6.2-1.5-.4-1.9-.8-.5-.9-.3-.4.6.5.9.4 1.1-.4.6-.9-.6-.9-1.1 0-2.2s.9-2.1 0-4c-.8-1.9-.8-2.4.1-1.8.8.5.9.2.5-1-.4-.9-.3-1.4.2-1.1.5.3 1.3 0 1.7-.6.4-.7.3-.9-.3-.6-.6.4-1.7-.1-2.4-1-.8-.9-.9-1.4-.3-1 .7.4 1.5 0 1.8-.9.3-.8.2-1.3-.3-1-.5.3-.8-.5-.8-1.9 0-1.5.4-2.2 1.1-1.9.6.3.2-.2-.8-1-1.8-1.5-1.5-2 .9-1.7.6.1.2-.5-.7-1.2-1-.8-1.5-1.7-1.1-2.1 1-1 1.1-4.6.1-4.6-.4 0-.8-.5-.8-1.1 0-.5.4-.8.9-.5 1 .7.9-2-.2-3-.3-.4-.2-1.5.4-2.6.5-1 .7-2.4.3-3-1.3-2-1.3-8.2-.1-9 .8-.5.6-.8-.6-.8-1 0-1.5-.5-1.2-1 .4-.6 1.1-.8 1.6-.5 1.5 1 1-.2-.8-1.6-1.4-1.2-1.6-1.2-.8 0 .6 1 .4 1.2-.4.6-.9-.5-1-1-.2-1.8 1.6-1.6 1.3-3-.4-2.3-.8.3-1.5.1-1.5-.4 0-.6.8-1 1.8-1 1.6-.1 1.6-.1 0-1.1-1-.5-1.8-1.5-1.8-2.1 0-.6.7-.5 1.8.3 1.5 1.2 1.5 1.1-.1-.8-1.4-1.6-1.5-2.2-.5-2.6 1-.4 1-.6-.1-.6-1.1-.1-1.1-.4-.1-1.6.9-1.1.9-1.5.1-1.5-.9 0-.9-.6 0-2.3 1.1-1.9 1-2-.3-1-1.2 1-1.4 1-1.3-.5 0-.9.4-2.3.8-2.9.4-.7-.1-1.4-1.4-1.8-1.7-.6-1.9-.9-.8-1.6 1.1-.6 1.1-1.1.2-2-.8-.8-.9-1.8-.2-3.1s.6-1.8-.3-1.8c-.9 0-.9-.3.2-1 1.2-.8 1.2-1 .1-1-1.1 0-1.1-.3 0-1.7 1-1.1 1-1.4.2-.9-.9.5-1.2.1-1.1-1.1.3-3.8-.3-5.3-1.9-5.4-1.2 0-1.3-.2-.5-.6 1-.4 1-.8.1-1.9-.8-1-.8-1.4 0-1.4.7 0 .8-.8.2-2.3-.4-1.2-.6-2.8-.3-3.6.3-1 0-1.2-1.4-.7-1 .4-1.5.4-1.2 0 .4-.4.3-1.6-.3-2.7-.8-1.4-.8-1.8.1-1.2 1.3.8 1-2.6-.4-3.6-.4-.4-.3-1.5.3-2.6.8-1.5.7-2.5-.5-3.9-.9-1.1-1.2-1.3-.8-.5.5.9.3 1.2-.4.7-.9-.5-.9-1.3-.1-2.8 1-1.8.9-2-.4-1.5-1.1.4-1.4.2-1.1-.8.3-.7 0-2.4-.7-3.7-1.1-2.1-1.1-2.2.5-.9 1.4 1.2 1.6 1.2 1-.3-.3-.9-1-1.6-1.5-1.6s-.8-.3-.8-.8c.4-2.1-.2-3.2-1.3-2.6-.9.5-.9.2.1-.9.9-1.1 1-1.7.2-1.7-1.5 0-1.4-2.7.2-3.3.9-.4.9-.6-.1-.6-.7-.1-1-.6-.6-1.3.4-.6.3-.8-.2-.5-.6.3-1.6-.4-2.4-1.6-1.2-2-1.2-2.1.4-.8 1.4 1.2 1.6 1.2 1-.3-.3-.9-1.1-1.6-1.8-1.6-.6 0-.4-.5.4-1s1-1 .4-1-1-1.1-.9-2.5c.2-1.4-.1-2.3-.6-1.9-.5.3-.6 1-.3 1.6.4.7.2.8-.4.4-.6-.4-.8-1.4-.5-2.3.5-1.2.3-1.4-.8-.8-1.2.8-1.2.6 0-.8 1-1.3 1-1.7.1-1.7-1 0-1-.3 0-1.5.9-1 .9-1.5.1-1.5-.6 0-1.1-.9-1.1-2.1 0-1.1-.4-1.7-1-1.4-.6.4-1-1-1-3.4 0-2.9-.4-4.1-1.4-4.1-.9 0-1.2-.7-.9-2.3.4-1.8.3-1.9-.6-.7-.6.8-1.1 1-1.1.5 0-.6.5-1.6 1.2-2.3.9-.9.9-1.2-.3-1.3-.7-.1-1.8-.1-2.2 0-.5.1-.6-.3-.2-.9.3-.6 1-.8 1.4-.6.4.3.8-.1.8-.8 0-.8-.6-1.2-1.4-.9-.9.4-1.3-.4-1.3-2.7 0-3.3-2.2-6.4-3.6-5.2-.5.4-.2-.1.5-1.1.9-1.1 1-1.7.2-1.7-.6 0-1.1-.5-1.1-1.1 0-.5.5-.7 1.2-.3.7.5.8.3.4-.5-.5-.7-1.5-1-2.3-.7-.8.3-1.2.2-.8-.3.3-.5-.1-1.2-.7-1.5-.7-.3-.3-.3 1 0 1.2.3 2.2.1 2.2-.5s-.3-1-.7-1c-.5.1-1.5.1-2.3 0-1.3-.1-1.3-.2 0-1.1 1.3-.9 1.3-1 0-1s-1.3-.1 0-1c1.3-.8 1.2-1-.3-1-1 0-1.5-.5-1.2-1 .3-.6.2-1-.3-1-.6 0-1.3-.7-1.6-1.6-.3-.8-.2-1.3.2-1 .5.3.9-.1.9-.9s-.4-1.2-.9-.9c-.4.3-.8 0-.8-.6s-.5-.8-1.2-.4c-1 .6-.9.3 0-.8 1.1-1.4 1-2-.7-3.7-1.3-1.3-1.6-2.1-.8-2.1s.7-.3-.3-.9c-.8-.6-1.9-.7-2.5-.3-.5.3-.4-.2.4-1.1 1-1.3 1-1.7.1-1.7s-.9-.4.1-1.7c.8-.9.9-1.4.3-1-.7.4-1.5-.3-1.9-1.6-.4-1.2-.8-2.5-1-3-.6-1.8-.7-2.2-.6-2.9 0-.4-.7-.4-1.6-.1-1 .4-1.4.2-1-.4.4-.6.1-1.4-.5-1.6-1-.4-1-.6-.1-.6.9-.1.8-.7-.4-2-.9-1.1-2.1-1.7-2.6-1.4-.6.3-.7.1-.3-.6.4-.6 1.3-.8 1.9-.4.7.4.7 0-.1-1-.8-.9-1.1-2.1-.8-2.6.4-.6-.2-.8-1.3-.6-1.6.3-1.9-.1-1.5-2.2.3-1.7.1-2.2-.7-1.7-.9.5-1 .2-.5-1.1.5-1.4.4-1.6-.7-.7-1 .9-1.4.8-1.4-.3 0-.8.4-1.5.9-1.5.9 0 0-1.3-3.4-5.1-1.1-1.2-1.3-1.9-.6-1.9.6 0 .3-.6-.7-1.4-1.1-.8-2.4-1.2-2.9-.9-.5.4-.6.1-.2-.6.6-.9 1.1-.9 2.2 0 1.2 1 1.3.9.8-.4-.3-.9-1.6-1.9-2.7-2.3-2.2-.7-2.2-.7-.2-1.5 2-.7 2-.8-.1-.8-2.8-.1-3.6-1.1-2.3-2.8.9-1 .6-1.3-1.2-1.3-1.9 0-2.1-.2-.9-1 1-.6 1.1-1 .3-1-.7 0-1.3-.9-1.3-2s-.7-2-1.5-2c-1.7 0-3.8-3.4-2.7-4.5.4-.4-.2-.3-1.2.3-1.3.6-2.9.7-4.4.1-2.1-.8-2.3-.7-1.8.8.6 1.4.4 1.4-1.5-.3-1.2-1-1.9-1.4-1.6-.7zm.7 11.7c0 .2-.7.7-1.6 1-.8.3-1.2.2-.9-.4.6-1 2.5-1.4 2.5-.6zm-34.5 98.6c.3.6-.1.7-.9.4-1.8-.7-2.1-1.4-.7-1.4.6 0 1.3.4 1.6 1zm14.4 20.3c.8 1 .7 1.4-.2 1.4-.8 0-1.4-.6-1.4-1.4 0-.7.1-1.3.2-1.3.2 0 .8.6 1.4 1.3zm-207.5 17.3c.3.8.2 1.2-.4.9-.6-.3-1-1-1-1.6 0-1.4.7-1.1 1.4.7zm220.1 2.4c.3.6-.1.7-.9.4-1.8-.7-2.1-1.4-.7-1.4.6 0 1.3.4 1.6 1zm-175 21.8c-.3.3-1.6-.5-2.8-1.7l-2.2-2.3 2.8 1.7c1.5 1 2.5 2 2.2 2.3zm233.5 4.6c0 .2-.8 1-1.7 1.7-1.6 1.3-1.7 1.2-.4-.4 1.3-1.6 2.1-2.1 2.1-1.3zm30.5 8.6c.3.5.1 1-.4 1-.6 0-1.1-.5-1.1-1 0-.6.2-1 .4-1 .3 0 .8.4 1.1 1zm-99.5 8.5c0 .5-.5.3-1-.5s-1-2-1-2.5c0-.6.5-.3 1 .5s1 1.9 1 2.5zm77.1 37.2c1.3 1.6 1.2 1.7-.3.4-1.7-1.3-2.2-2.1-1.4-2.1.2 0 1 .8 1.7 1.7zm-155.6 9.1c-.3.3-1.1 0-1.8-.7-.9-1-.8-1.1.6-.5 1 .3 1.5.9 1.2 1.2zm158 11.2c.3.6-.1.7-.9.4-1.8-.7-2.1-1.4-.7-1.4.6 0 1.3.4 1.6 1zm-102 4.8c-.3.3-1.1 0-1.8-.7-.9-1-.8-1.1.6-.5 1 .3 1.5.9 1.2 1.2zm15.5 17.8c0 .2-.7.4-1.5.4s-1.5-.4-1.5-1c0-.5.7-.7 1.5-.4.8.4 1.5.8 1.5 1zm15.5 22.3c.3.5.2 1.2-.3 1.5-.5.3-.9-.1-.9-.9 0-1.7.3-1.9 1.2-.6zm137 11.1c.3.5.1 1-.4 1-.6 0-1.1-.5-1.1-1 0-.6.2-1 .4-1 .3 0 .8.4 1.1 1zm8.9 17.8c.3.5-.1.9-.9.9s-1.2-.4-.9-.9c.3-.4.7-.8.9-.8.2 0 .6.4.9.8zM1368.5 598c.3.5.1 1-.4 1-.6 0-1.1-.5-1.1-1 0-.6.2-1 .4-1 .3 0 .8.4 1.1 1zm-58.2 15.5c-.3.9-.8 1.4-1 1.1-.3-.3-.2-.9.2-1.5.9-1.6 1.5-1.3.8.4zm-380.9 24.1c.3.8.2 1.2-.4.9-.6-.3-1-1-1-1.6 0-1.4.7-1.1 1.4.7zm-16.9 5.2c-.3.3-1.1 0-1.8-.7-.9-1-.8-1.1.6-.5 1 .3 1.5.9 1.2 1.2zM1610 710c0 .5-.2 1-.4 1-.3 0-.8-.5-1.1-1-.3-.6-.1-1 .4-1 .6 0 1.1.4 1.1 1zm-21 105.5c0 1.2-1.9 1.2-2.3 0-.4-.9-.1-1.2.9-.8.7.3 1.4.7 1.4.8zm-3.5 39.5c.3.6-.1.7-.9.4-1.8-.7-2.1-1.4-.7-1.4.6 0 1.3.4 1.6 1zm105.5 25c0 .5-.2 1-.4 1-.3 0-.8-.5-1.1-1-.3-.6-.1-1 .4-1 .6 0 1.1.4 1.1 1zM599.3 905.5c-.3.9-.8 1.4-1 1.1-.3-.3-.2-.9.2-1.5.9-1.6 1.5-1.3.8.4zm-3.6 2c0 .8-.4 1.2-.9.9-.5-.3-.6-1-.3-1.5.9-1.3 1.2-1.1 1.2.6zm-5.7 4.1c0 .8-.5 1.2-1 .9-.6-.4-.8-1.1-.5-1.6.9-1.4 1.5-1.1 1.5.7zm988.5 1.4c-.3.5-1.2 1-1.8 1-.7 0-.6-.4.3-1 1.9-1.2 2.3-1.2 1.5 0zm4.5 9.6c0 .8-1.9 1.3-2.4.6-.3-.5.1-.9.9-.9s1.5.2 1.5.3zm38.4 7.2c.3.5-.1.9-.9.9s-1.2-.4-.9-.9c.3-.4.7-.8.9-.8.2 0 .6.4.9.8zm-3 86c.2.4.1 1.4-.3 2.1-.6.9-1.1 1-1.5.2-.4-.6-.1-1.1.6-1.1.9 0 .9-.3-.2-1-.9-.6-1-1-.3-1 .6 0 1.4.4 1.7.8zm42.4 32.7c-.3.3-.9-.2-1.2-1.2-.6-1.4-.5-1.5.5-.6.7.7 1 1.5.7 1.8zM1453 1155.4c0 .3-.4.8-1 1.1-.5.3-1 .1-1-.4 0-.6.5-1.1 1-1.1.6 0 1 .2 1 .4zm228.5 10.6c.3.6-.1.7-.9.4-1.8-.7-2.1-1.4-.7-1.4.6 0 1.3.4 1.6 1zm-20.8 21.5c0 .8-.4 1.2-.9.9-.5-.3-.6-1-.3-1.5.9-1.3 1.2-1.1 1.2.6zm-257.2 32.5c-.3.5-1.2 1-1.8 1-.7 0-.6-.4.3-1 1.9-1.2 2.3-1.2 1.5 0zm-50.2 61.5c-.3.9-.8 1.4-1 1.1-.3-.3-.2-.9.2-1.5.9-1.6 1.5-1.3.8.4zm-907.2 15.8c-1 .9-1.1.8-.5-.6.3-1 .9-1.5 1.2-1.2.3.3 0 1.1-.7 1.8zm1.3 8.7c-.6.6-1 .3-1-1s.4-1.6 1-1c.7.7.7 1.3 0 2zm821.6 90.4c0 .2-.7.7-1.6 1-.8.3-1.2.2-.9-.4.6-1 2.5-1.4 2.5-.6z"/><path d="M1456 287.9c0 .6.4 1.3 1 1.6.6.3.7-.1.4-.9-.7-1.8-1.4-2.1-1.4-.7zM1371 329.4c0 .2.7.7 1.6 1 .8.3 1.2.2.9-.4-.6-1-2.5-1.4-2.5-.6zM1241.6 368.9c-.3.5.2 1.5 1.2 2.2 1.5 1.2 1.6 1.2.5-.2-.7-.9-1-1.9-.6-2.2.3-.4.4-.7 0-.7-.3 0-.8.4-1.1.9zM1519 398c0 .5.5 1 1.1 1 .5 0 .7-.5.4-1-.3-.6-.8-1-1.1-1-.2 0-.4.4-.4 1zM1295.5 428c-.3.5-.1 1 .4 1 .6 0 1.1-.5 1.1-1 0-.6-.2-1-.4-1-.3 0-.8.4-1.1 1zM1531.5 498.9c-.3.5-.2 1.2.3 1.5.5.3.9-.1.9-.9 0-1.7-.3-1.9-1.2-.6zM1410.6 559.3c.3 1 .9 1.5 1.2 1.2.3-.3 0-1.1-.7-1.8-1-.9-1.1-.8-.5.6zM1222 621.1c0 .5.5.7 1 .4.6-.3 1-.8 1-1.1 0-.2-.4-.4-1-.4-.5 0-1 .5-1 1.1zM1588.5 625c1 1.1 2 2 2.2 2 .2 0-.2-.9-.9-2s-1.7-2-2.2-2c-.5 0-.1.9.9 2zM985.1 626.6c.6.7 1.7 1 2.5.7 2.2-.8 1.6-1.9-1.1-1.9-1.8 0-2.2.3-1.4 1.2zM1606 683.4c0 .2.8 1 1.8 1.7 1.5 1.3 1.6 1.2.3-.4s-2.1-2.1-2.1-1.3zM1659.3 744.3c0 .8.6 1.4 1.4 1.4.9 0 1-.4.2-1.4-.6-.7-1.2-1.3-1.4-1.3-.1 0-.2.6-.2 1.3zM729.6 765.6c-2.3 2.3-2 3 .4.9 1.1-1 2-2 2-2.2 0-.7-.9-.2-2.4 1.3zM683 820.1c0 .5.5.7 1 .4.6-.3 1-.8 1-1.1 0-.2-.4-.4-1-.4-.5 0-1 .5-1 1.1zM1775 831.4c0 .2.7.9 1.5 1.6 1.3 1.1 1.4 1 .9-.4-.5-1.4-2.4-2.3-2.4-1.2zM1763.3 851.5c0 .8.4 1.5.9 1.5.4 0 .8-.4.8-.9 0-.6-.4-1.2-.8-1.5-.5-.3-.9.1-.9.9zM1565.1 924.6c0 1.1.3 1.4.6.6.3-.7.2-1.6-.1-1.9-.3-.4-.6.2-.5 1.3zM1546.5 975c-.3.5-.2 1 .4 1 .5 0 1.3-.5 1.6-1 .3-.6.2-1-.4-1-.5 0-1.3.4-1.6 1zM1738.5 1017.1c-.4.6-.5 1.2-.2 1.5.2.3.7-.2 1-1.1.7-1.7.1-2-.8-.4zM1656.5 1032c-.3.5-.1 1 .4 1 .6 0 1.1-.5 1.1-1 0-.6-.2-1-.4-1-.3 0-.8.4-1.1 1zM450.6 1075.3c.3 1 .9 1.5 1.2 1.2.3-.3 0-1.1-.7-1.8-1-.9-1.1-.8-.5.6zM1456 1148.4c0 .2.8 1 1.8 1.7 1.5 1.3 1.6 1.2.3-.4s-2.1-2.1-2.1-1.3zM1665.6 1203.3c.3 1 .9 1.5 1.2 1.2.3-.3 0-1.1-.7-1.8-1-.9-1.1-.8-.5.6zM449 1245.9c0 .7-.5.9-1.2.5-.7-.5-.8-.3-.3.5.5.9 1 1 1.8.2.6-.6.8-1.4.4-1.8-.4-.3-.7-.1-.7.6zM444.5 1274c.2 2.7 1 3.3 1.2 1 .1-1.1-.2-2.2-.6-2.4-.4-.3-.7.4-.6 1.4zM444.4 1279.4c.1.8.5 1.8.8 2.2.4.3.5-.1.4-1-.1-.8-.5-1.8-.8-2.2-.4-.3-.5.1-.4 1zM447.7 1331.1c.7.7 1.5 1 1.8.7.3-.3-.2-.9-1.2-1.2-1.4-.6-1.5-.5-.6.5zM503 1436.4c0 .2.7.7 1.6 1 .8.3 1.2.2.9-.4-.6-1-2.5-1.4-2.5-.6zM573.1 1479.6c0 1.1.3 1.4.6.6.3-.7.2-1.6-.1-1.9-.3-.4-.6.2-.5 1.3z"/></svg>