<svg xmlns="http://www.w3.org/2000/svg" width="519.555" height="342.98" version="1.0"><defs><clipPath id="logo_black_svg__a"><path d="M92.566 95.109h144.05v342.98H92.566Z"/></clipPath></defs><path fill="#dd523c" d="m178.237 59.463 17.285-23.512c.543-.703.62-1.48.23-2.414-.464-.781-1.09-1.246-2.023-1.246h-5.215c-.781 0-1.402.308-1.87.933L171.074 54.4q-.236.47-.7.235c-.313 0-.47-.235-.47-.621V34.627c0-.625-.233-1.168-.698-1.637q-.705-.699-1.637-.7h-4.125c-.703 0-1.246.235-1.715.7-.468.469-.62 1.012-.62 1.637v52.398c0 .699.152 1.246.62 1.714.47.465 1.012.622 1.715.622h4.125c.62 0 1.168-.157 1.637-.622.465-.468.7-1.015.7-1.714V71.064c0-.157 0-.313.077-.39l1.325-1.712c.078-.156.234-.312.464-.312.157 0 .313.156.547.312l14.324 19.465q.702.933 1.87.934h5.216c.934 0 1.559-.39 2.024-1.246.39-.856.312-1.633-.23-2.414l-17.286-23.512c-.312-.391-.39-.86-.39-1.325 0-.468.078-.933.39-1.402z" style="fill:#4e4e4e;fill-opacity:1"/><path fill="#ee8038" d="M210.378 32.291h-4.281q-.935 0-1.637.7c-.47.468-.621.933-.621 1.558v52.555c0 .62.152 1.168.62 1.637.47.464 1.013.62 1.638.62h4.28c.622 0 1.09-.156 1.56-.62q.698-.705.699-1.637V34.549c0-.625-.235-1.09-.7-1.559-.468-.465-.937-.699-1.558-.699" style="fill:#4e4e4e;fill-opacity:1"/><path fill="#f6b64b" d="M254.452 32.291h-4.203c-.625 0-1.168.234-1.637.7-.47.468-.7.933-.7 1.558v32c0 .465-.233.777-.624.855-.543.157-.855 0-1.012-.465l-15.57-33.324c-.39-.859-1.09-1.324-2.027-1.324h-5.992q-.935.001-1.637.7c-.47.468-.621.933-.621 1.558v52.555c0 .621.152 1.168.62 1.637.47.465 1.013.62 1.638.62h4.203c.62 0 1.168-.155 1.637-.62q.697-.705.699-1.637v-32c0-.469.234-.703.699-.855q.702-.117.938.464l15.57 33.324c.39.934 1.09 1.325 2.023 1.325h5.996q.932-.001 1.637-.7c.386-.39.62-.937.62-1.558V34.549c0-.625-.234-1.09-.698-1.559-.47-.465-.938-.699-1.56-.699z" style="fill:#4e4e4e;fill-opacity:1"/><path fill="#9cc278" d="M273.285 32.291h-6.54q-.934 0-1.636.7c-.47.468-.62.933-.62 1.558v52.555c0 .62.15 1.168.62 1.637.469.464 1.012.62 1.637.62h6.539c4.203 0 7.94-.699 11.367-2.257 3.348-1.48 6.23-3.504 8.566-6.152a27.2 27.2 0 0 0 5.45-9.032 32.5 32.5 0 0 0 1.945-11.133c0-3.894-.7-7.629-1.945-11.055a27.2 27.2 0 0 0-5.45-9.035c-2.336-2.566-5.218-4.594-8.566-6.148-3.426-1.48-7.164-2.258-11.367-2.258m0 45.859V43.423c0-.621.234-1.246.7-1.71.468-.47 1.089-.626 1.87-.548a17.95 17.95 0 0 1 6.618 2.18 18.5 18.5 0 0 1 4.828 4.36 18.6 18.6 0 0 1 2.879 5.995c.625 2.258 1.01 4.594 1.01 7.086s-.385 4.907-1.01 7.164a18.6 18.6 0 0 1-2.88 5.993c-1.324 1.714-2.96 3.195-4.827 4.285-1.946 1.168-4.125 1.867-6.618 2.18q-1.169.234-1.87-.47c-.466-.464-.7-1.01-.7-1.788" style="fill:#4e4e4e;fill-opacity:1"/><path fill="#cbdfed" d="M336.416 38.83v-4.281c0-.625-.234-1.09-.7-1.559-.468-.465-.933-.699-1.558-.699h-23.512q-.935 0-1.637.7c-.468.468-.62.933-.62 1.558v52.555c0 .62.152 1.168.62 1.636.47.465 1.012.622 1.637.622h23.512c.625 0 1.09-.157 1.559-.622q.698-.703.699-1.636v-4.281c0-.625-.234-1.09-.7-1.559-.468-.469-.933-.7-1.558-.7h-14.714c-.62 0-1.168-.155-1.637-.624-.464-.465-.62-1.012-.62-1.633V61.33c0-.621.156-1.09.62-1.555q.705-.703 1.637-.703h9.73c.626 0 1.169-.23 1.637-.7s.7-1.01.7-1.636v-4.203c0-.621-.23-1.09-.7-1.558q-.7-.699-1.636-.7h-9.73c-.622 0-1.17-.156-1.638-.62-.464-.47-.62-1.016-.62-1.637v-4.672c0-.621.156-1.09.62-1.559q.705-.699 1.637-.7h14.715c.625 0 1.09-.155 1.559-.62.465-.469.699-1.012.699-1.637z" style="fill:#4e4e4e;fill-opacity:1"/><path fill="#beb1d6" d="M359.3 32.291h-12.844c-.625 0-1.168.234-1.637.7-.468.468-.62.933-.62 1.558v52.555c0 .62.152 1.168.62 1.637.469.464 1.012.62 1.637.62h4.28c.622 0 1.09-.156 1.56-.62q.698-.705.699-1.637V74.647c0-.625.156-1.09.62-1.559q.706-.698 1.638-.699h3.113c1.09 0 1.793.543 2.18 1.48l5.062 14.013c.313 1.011 1.09 1.48 2.18 1.48h4.438q1.167 0 1.87-.934c.465-.625.544-1.324.31-2.101L368.8 70.909c-.39-.934-.157-1.711.625-2.414 1.71-1.633 3.113-3.66 4.125-6.149a25.4 25.4 0 0 0 1.867-7.71 27.9 27.9 0 0 0-.465-8.02c-.625-2.645-1.56-4.98-2.883-7.16-1.398-2.106-3.113-3.817-5.215-5.14-2.18-1.325-4.671-2.024-7.554-2.024zm-6.305 29.039V43.346c0-.621.157-1.09.62-1.559q.706-.697 1.638-.699h4.203c1.637 0 3.04.625 4.13 1.715s1.866 2.488 2.413 4.125c.543 1.71.856 3.504.856 5.45 0 1.948-.313 3.737-.856 5.374-.625 1.711-1.402 3.113-2.492 4.203s-2.492 1.633-4.05 1.633h-4.204c-.621 0-1.168-.152-1.637-.621-.464-.469-.62-1.012-.62-1.637z" style="fill:#4e4e4e;fill-opacity:1"/><path fill="#f9f6f0" d="M175.042 112.431c-4.594 0-8.02 1.246-10.277 3.66-2.336 2.489-3.426 5.914-3.426 10.355 0 1.633.156 3.114.469 4.516.312 1.398.934 2.8 1.715 4.203.777 1.402 1.867 2.8 3.19 4.203 1.247 1.402 2.88 2.96 4.829 4.516q2.216 1.869 3.735 3.504c1.01 1.09 1.87 2.027 2.492 2.96.625.934 1.012 1.868 1.324 2.801.234.934.39 1.95.39 2.883 0 2.023-.468 3.426-1.324 4.203-.86.856-2.023 1.246-3.503 1.246-1.56 0-2.727-.39-3.504-1.246-.856-.777-1.246-2.18-1.246-4.203v-2.258c0-.469-.235-.86-.547-1.168-.387-.312-.778-.547-1.246-.547h-5.293c-.465 0-.934.235-1.247.547-.312.309-.464.7-.464 1.168v1.711c0 4.516 1.168 8.02 3.504 10.434 2.335 2.414 5.76 3.582 10.355 3.582 4.515 0 7.94-1.168 10.277-3.582 2.335-2.414 3.503-5.918 3.503-10.434 0-1.555-.234-3.113-.546-4.515s-.856-2.723-1.637-4.125c-.777-1.403-1.867-2.805-3.192-4.207-1.324-1.399-2.957-2.957-4.828-4.594-1.554-1.242-2.8-2.336-3.812-3.426a24 24 0 0 1-2.414-3.035c-.625-.934-1.09-1.79-1.324-2.727-.313-.933-.391-1.867-.391-2.957q0-2.919 1.168-4.203c.78-.86 1.95-1.324 3.504-1.324 1.48 0 2.648.465 3.426 1.324q1.169 1.284 1.168 4.203v.547c0 .543.156 1.012.468 1.32.313.313.778.469 1.325.469h5.214c.47 0 .934-.156 1.247-.469.312-.308.546-.777.546-1.32 0-4.441-1.168-7.867-3.425-10.355-2.336-2.414-5.684-3.66-10.203-3.66m36.588 0h-12.844c-.625 0-1.168.234-1.637.7-.468.468-.62.933-.62 1.558v52.555c0 .62.152 1.168.62 1.637.469.464 1.012.62 1.637.62h4.28c.622 0 1.09-.156 1.56-.62q.698-.705.699-1.637v-12.457c0-.625.156-1.09.62-1.559q.706-.698 1.638-.699h4.047c3.582 0 6.543-.934 8.957-2.96 2.414-1.946 4.203-4.438 5.449-7.395 1.168-2.961 1.789-6.23 1.789-9.657s-.621-6.695-1.79-9.652c-1.245-2.96-3.034-5.453-5.448-7.476-2.414-1.946-5.375-2.957-8.957-2.957zm.156 31.297h-4.202c-.62 0-1.168-.152-1.637-.621-.464-.469-.62-1.012-.62-1.637v-17.984c0-.62.156-1.09.62-1.558q.705-.699 1.637-.7h4.203c1.637 0 3.04.625 4.13 1.715s1.866 2.488 2.413 4.125c.543 1.711.856 3.504.856 5.45 0 1.949-.313 3.738-.856 5.374-.625 1.711-1.402 3.114-2.492 4.203s-2.492 1.633-4.05 1.633zm30.442-31.297h-4.281q-.935 0-1.637.7c-.47.468-.621.933-.621 1.558v52.555c0 .62.152 1.168.62 1.637.47.464 1.013.62 1.638.62h4.28c.622 0 1.09-.156 1.56-.62q.698-.705.699-1.637v-52.555c0-.625-.235-1.09-.7-1.559-.468-.465-.937-.699-1.558-.699m38.078 6.539v-4.281c0-.625-.234-1.09-.7-1.559-.468-.465-.933-.699-1.558-.699h-23.512q-.935 0-1.637.7c-.468.468-.62.933-.62 1.558v52.555c0 .62.152 1.168.62 1.636.47.465 1.012.622 1.637.622h23.512c.625 0 1.09-.157 1.559-.621q.698-.705.699-1.637v-4.281c0-.625-.234-1.09-.7-1.559-.468-.469-.933-.7-1.558-.7h-14.714c-.62 0-1.168-.155-1.637-.624-.464-.465-.62-1.012-.62-1.633V141.47c0-.621.156-1.09.62-1.555q.705-.702 1.637-.703h9.73c.626 0 1.169-.23 1.637-.7s.7-1.01.7-1.636v-4.203c0-.621-.23-1.09-.7-1.558q-.7-.699-1.636-.7h-9.73c-.622 0-1.17-.156-1.638-.62-.464-.47-.62-1.016-.62-1.637v-4.672c0-.621.156-1.09.62-1.559q.705-.699 1.637-.7h14.715c.625 0 1.09-.155 1.559-.62q.698-.702.699-1.637zm31.529 41.734h-12.691c-.621 0-1.168-.156-1.637-.625-.465-.465-.62-1.012-.62-1.633v-43.758c0-.625-.235-1.09-.7-1.558-.47-.465-.938-.7-1.56-.7h-4.28c-.625 0-1.168.235-1.637.7-.468.468-.62.933-.62 1.558v52.555c0 .621.152 1.168.62 1.637.47.465 1.012.621 1.637.621h21.488c.62 0 1.09-.156 1.559-.621q.698-.704.699-1.637v-4.28c0-.626-.234-1.09-.7-1.56-.468-.468-.937-.699-1.558-.699m23.977-48.273c-4.594 0-8.02 1.246-10.277 3.66-2.336 2.489-3.426 5.914-3.426 10.355 0 1.633.156 3.114.469 4.516.312 1.398.934 2.8 1.715 4.203.777 1.402 1.867 2.8 3.19 4.203 1.247 1.402 2.88 2.96 4.829 4.516q2.216 1.869 3.735 3.504c1.01 1.09 1.87 2.027 2.492 2.96.625.934 1.012 1.868 1.324 2.801.234.934.39 1.95.39 2.883 0 2.023-.468 3.426-1.324 4.203-.86.856-2.023 1.246-3.503 1.246-1.56 0-2.727-.39-3.504-1.246-.856-.777-1.246-2.18-1.246-4.203v-2.258c0-.469-.235-.86-.547-1.168-.387-.312-.778-.547-1.246-.547h-5.293c-.465 0-.934.235-1.247.547-.312.309-.464.7-.464 1.168v1.711c0 4.516 1.168 8.02 3.504 10.434 2.335 2.414 5.76 3.582 10.355 3.582 4.515 0 7.94-1.168 10.277-3.582 2.335-2.414 3.503-5.918 3.503-10.434 0-1.555-.234-3.113-.546-4.515s-.856-2.723-1.637-4.125c-.777-1.403-1.867-2.805-3.192-4.207-1.324-1.399-2.957-2.957-4.828-4.594-1.554-1.242-2.8-2.336-3.812-3.426a24 24 0 0 1-2.414-3.035c-.625-.934-1.09-1.79-1.324-2.727-.313-.933-.391-1.867-.391-2.957q0-2.919 1.168-4.203c.78-.86 1.95-1.324 3.504-1.324 1.48 0 2.648.465 3.426 1.324q1.169 1.284 1.168 4.203v.547c0 .543.156 1.012.468 1.32.313.313.778.469 1.325.469h5.214c.47 0 .934-.156 1.247-.469.312-.308.546-.777.546-1.32 0-4.441-1.168-7.867-3.425-10.355-2.336-2.414-5.684-3.66-10.203-3.66m53.643 6.539v-4.281c0-.625-.234-1.09-.703-1.559-.465-.465-1.012-.699-1.633-.699h-27.562q-.935 0-1.637.7c-.468.468-.62.933-.62 1.558v4.281c0 .625.152 1.168.62 1.637.47.465 1.012.62 1.637.62h7.16c.625 0 1.09.235 1.559.7.469.469.7.938.7 1.559v43.758c0 .62.155 1.168.624 1.636.465.465 1.012.621 1.633.621h4.207c.62 0 1.168-.156 1.633-.62q.702-.705.703-1.637v-43.758c0-.621.156-1.09.62-1.559.47-.465 1.013-.7 1.638-.7h7.086c.62 0 1.168-.155 1.632-.62.47-.47.703-1.012.703-1.637m39.47 50.531h4.439c.703 0 1.324-.234 1.793-.855.464-.625.542-1.247.386-2.024-.386-1.324-.7-2.336-.855-3.117-.156-.7-.313-1.324-.47-1.945-.151-.547-.386-1.168-.542-1.793-.156-.621-.47-1.555-.777-2.801-.313-1.246-.782-2.883-1.325-4.906a607 607 0 0 1-2.101-8.02c-.938-3.27-2.027-7.394-3.352-12.3-1.32-4.829-2.88-10.747-4.672-17.599-.152-.465-.386-.933-.777-1.246q-.699-.464-1.402-.465h-5.606q-.816 0-1.398.465c-.47.313-.703.781-.781 1.246-.465 1.48-1.012 3.504-1.711 6.152-.703 2.649-1.48 5.528-2.336 8.797-.86 3.27-1.793 6.696-2.727 10.277a983 983 0 0 1-2.8 10.512c-.938 3.426-1.794 6.54-2.57 9.5-.782 2.957-1.481 5.371-1.95 7.243-.23.777-.074 1.398.39 2.023.47.621 1.012.855 1.794.855h4.437c1.09 0 1.79-.546 2.18-1.714.234-.778.465-1.79.777-2.957.313-1.09.625-2.415 1.012-3.817.312-1.09 1.09-1.71 2.258-1.71h12.457c1.09 0 1.87.62 2.257 1.71.47 1.871.782 3.274 1.09 4.364.313 1.09.547 1.867.703 2.41.313 1.168 1.09 1.714 2.18 1.714zm-17.362-21.879c.469-1.637.855-3.27 1.324-4.984.469-1.633.934-3.27 1.403-4.98.156-.548.386-.934.855-1.247a2.1 2.1 0 0 1 1.324-.469c.465 0 .856.157 1.324.469.387.313.7.7.856 1.246.469 1.867.933 3.66 1.402 5.293.465 1.715.856 3.27 1.324 4.672.153.777.075 1.402-.39 2.023-.47.625-1.09.86-1.793.86h-5.45c-.777 0-1.324-.235-1.79-.86-.467-.62-.624-1.246-.39-2.023zm40.722-35.191h-6.54q-.934 0-1.636.7c-.47.468-.62.933-.62 1.558v52.555c0 .62.15 1.168.62 1.637.469.464 1.012.62 1.637.62h6.539c4.203 0 7.94-.699 11.367-2.257 3.348-1.48 6.23-3.504 8.566-6.152a27.2 27.2 0 0 0 5.45-9.032 32.5 32.5 0 0 0 1.945-11.133c0-3.894-.7-7.629-1.945-11.055a27.2 27.2 0 0 0-5.45-9.035c-2.335-2.566-5.218-4.594-8.566-6.148-3.426-1.48-7.164-2.258-11.367-2.258m0 45.859v-34.727c0-.621.234-1.246.7-1.71.468-.47 1.089-.626 1.87-.548a17.95 17.95 0 0 1 6.618 2.18 18.5 18.5 0 0 1 4.828 4.36 18.6 18.6 0 0 1 2.879 5.995c.625 2.258 1.01 4.594 1.01 7.086s-.385 4.907-1.01 7.164a18.6 18.6 0 0 1-2.88 5.993c-1.324 1.714-2.96 3.195-4.827 4.285-1.946 1.168-4.125 1.867-6.618 2.18q-1.169.234-1.87-.47c-.466-.464-.7-1.01-.7-1.788m67.27-39.32v-4.281c0-.625-.234-1.09-.703-1.559q-.7-.698-1.633-.699h-27.562c-.625 0-1.168.234-1.637.7-.468.468-.62.933-.62 1.558v4.281c0 .625.152 1.168.62 1.637.47.465 1.012.62 1.637.62h7.16c.625 0 1.09.235 1.559.7.469.469.7.938.7 1.559v43.758c0 .62.155 1.168.624 1.636.465.465 1.012.621 1.633.621h4.207c.62 0 1.168-.156 1.633-.62q.703-.705.703-1.637v-43.758c0-.621.156-1.09.62-1.559.47-.465 1.013-.7 1.638-.7h7.086c.62 0 1.168-.155 1.632-.62.47-.47.703-1.012.703-1.637M178.767 227.951c9.09 0 15.152-6.063 15.152-15.152 0-9.094-6.063-15.156-15.152-15.156-9.094 0-15.152 6.063-15.152 15.156 0 9.09 6.059 15.152 15.152 15.152m0-2.813c-7.402 0-12.34-4.937-12.34-12.34 0-7.406 4.938-12.34 12.34-12.34s12.34 4.934 12.34 12.34c0 7.403-4.938 12.34-12.34 12.34m3.465-36.109c-1.301 0-2.168.864-2.168 2.165 0 1.297.867 2.164 2.168 2.164 1.297 0 2.164-.867 2.164-2.164 0-1.301-.867-2.164-2.164-2.164zm-9.528 2.122c0 1.297.868 2.164 2.165 2.164 1.3 0 2.168-.867 2.168-2.164 0-1.301-.868-2.164-2.168-2.164-1.297 0-2.165.863-2.165 2.164m29.954 36.8h3.03v-12.988c0-.867.435-1.3 1.73-1.3h13.857v14.288h3.03v-30.309h-3.03v12.988H206.99c-.867 0-1.301.434-1.301.434v-13.423h-3.031zm34.28 0V217.56c0-.867.868-1.3 1.73-1.3h4.767c1.297 0 1.946.39 2.899 1.82l5.672 9.87h3.507l-6.925-12.034c4.285-.91 6.968-3.813 6.968-8.747 0-6.105-4.113-9.527-10.262-9.527h-11.387v30.31zm0-27.277h8.357c4.59 0 7.449 2.207 7.449 6.496 0 4.285-3.16 6.059-7.45 6.059h-7.054c-.867 0-1.3.433-1.3.433zm28.23 27.277h3.03v-30.309h-3.03zm12.64-30.309v30.309h3.03v-26.453l18.618 26.453v-30.309h-3.03v19.441c0 .258-.13.434-.345.434-.132 0-.347-.13-.566-.434l-13.68-19.441zm34.066 15.2c0-7.406 4.934-12.34 12.34-12.34 4.89 0 8.7 2.164 10.734 5.8l2.555-1.343c-2.47-4.543-7.187-7.273-13.29-7.273-9.093 0-15.155 6.062-15.155 15.156 0 9.09 6.063 15.152 15.156 15.152 5.367 0 9.696-2.121 12.336-5.758v5.715h2.817l.043-17.32h-16.496v3.03h12.297c.777 0 1.296.044 1.168 1.302-.868 6.191-5.5 10.219-12.164 10.219-7.407 0-12.34-4.938-12.34-12.34zm37.094-15.2v30.309h21.648v-3.031h-18.617v-9.957c0-.953.867-1.301 1.73-1.301h14.724v-3.031H353.3c-.868 0-1.301.433-1.301.433v-9.09q0-1.3 1.3-1.3h17.317v-3.031zm31.26 0v30.309h3.03v-26.453l18.618 26.453v-30.309h-3.03v19.441c0 .258-.13.434-.345.434-.132 0-.347-.13-.566-.434l-13.68-19.441zm49.52 0v30.309h21.648v-3.031h-18.617v-9.957c0-.953.867-1.301 1.73-1.301h14.724v-3.031H434.08c-.868 0-1.301.433-1.301.433v-9.09q0-1.3 1.3-1.3h17.317v-3.031zm35.582 28.145c0-1.3-.867-2.164-2.168-2.164-1.297 0-2.164.863-2.164 2.164 0 1.297.867 2.164 2.164 2.164 1.3 0 2.168-.867 2.168-2.164m12.81-28.145h-3.202l11.043 30.309h3.203l11.04-30.309h-3.204l-9.437 25.891zm36.02 28.145c0-1.3-.867-2.164-2.168-2.164-1.297 0-2.164.863-2.164 2.164 0 1.297.867 2.164 2.164 2.164 1.3 0 2.168-.867 2.168-2.164" style="fill:#4e4e4e;fill-opacity:1"/><g fill="#4e4e4e" clip-path="url(#logo_black_svg__a)" transform="translate(-92.616 -95.109)"><path d="M236.55 140.42c-3.348-5.582-8.281-9.758-14.152-12.203a58 58 0 0 0-.723-7.523v-.11a11 11 0 0 0-.324-1.472c-.215-.688-.539-1.372-1.078-1.91-.723-.72-1.512-1.04-2.34-1.079.215-7.195-2.054-14.754-5.691-20.766-.29-.504-1.367-.25-1.113.395 3.019 6.91 4.351 13.46 5.003 20.62a11 11 0 0 0-1.656.723c-1.008-6.37-3.894-12.672-8.36-16.848-.25-.246-1.077-.105-.823.364 2.234 3.957 4.574 7.629 5.906 12.055.574 1.87.972 3.777 1.262 5.687-.254.184-.473.36-.688.504-3.855-7.015-10.945-12.383-18.473-14.539-.574-.183-1.191.574-.469.863 7.707 3.024 13.145 8.383 16.926 15.191-5.91 3.739-13.289 3.739-21.102 3.703-7.96-.035-16.172-.035-22.836 4.247-3.527 2.304-6.3 5.617-8.965 8.82-3.425 4.137-6.664 8.027-11.344 9.715-.468.183-.972.324-1.44.468-1.728.54-3.493 1.079-4.825 2.48-2.453 2.634-1.8 6.915.246 9.505.687.828 1.48 1.62 2.453 2.305.035.035.07.035.106.07-1.618 2.195-2.805 4.5-3.493 6.91a17 17 0 0 0-.468 2.23c-.645 4.61.543 9.215 3.386 12.423 1.582 1.793 3.711 3.199 6.196 4.097-2.415 7.2-7.961 13.352-13.324 19.293-1.512 1.656-3.063 3.383-4.504 5.11-18.941 22.312-27.188 54.023-21.57 82.883-1.407 1.37-2.774 2.773-4 4.25-.395.464-.75.933-1.114 1.402-3.168 4.035-5.691 8.496-7.457 13.176-.25.644-.468 1.332-.714 2.012a48 48 0 0 0-1.915 8.062c-.433 2.914-.539 5.867-.398 8.781.043.614.078 1.188.148 1.766.364 4.246 1.368 8.457 2.88 12.379.183.469.398.937.574 1.402 1.8 4.25 4.253 8.172 7.316 11.59.105.149.25.254.355.395.36.398.723.793 1.118 1.156 4.25 4.316 9.293 7.664 14.55 10.617.43.254.864.465 1.298.719 2.769 1.511 5.62 2.953 8.425 4.355 2.2 1.078 4.395 2.227 6.594 3.383.61.32 1.219.645 1.836.973 2.41 1.332 4.785 2.695 7.02 4.21 1.117.755 2.199 1.512 3.277 2.297.578.434 1.117.868 1.691 1.336a68.7 68.7 0 0 1 9.004 8.672c.504.543.973 1.117 1.442 1.692a70.4 70.4 0 0 1 6.085 8.71 42 42 0 0 1 1.043 1.836c1.551 2.77 2.883 5.614 4.07 8.567.29.723.544 1.402.794 2.125 1.941 5.36 3.277 10.977 3.89 16.699a1 1 0 0 0 .903.898h.105c.434 0 .828-.289.973-.683 1.62-4.895 2.16-10.22 1.726-15.656-.07-.649-.105-1.336-.218-1.98a50.5 50.5 0 0 0-2.621-10.724c-.22-.578-.434-1.152-.688-1.73a54 54 0 0 0-3.781-7.485 85 85 0 0 0-1.985-3.058 65 65 0 0 0-1.183-1.66c-3.496-4.715-7.563-8.848-11.703-12.45-.617-.539-1.227-1.078-1.871-1.581-4.29-3.567-8.578-6.551-12.355-9-.578-.36-1.118-.723-1.66-1.079-.106-.07-.215-.148-.356-.218-1.55-1.008-3.133-1.942-4.719-2.914-2.304-1.438-4.68-2.88-6.984-4.426-.617-.395-1.192-.793-1.766-1.188-3.097-2.086-6.054-4.32-8.789-6.8a26 26 0 0 1-1.406-1.336 18 18 0 0 1-1.402-1.473c-2.524-2.66-4.575-5.504-6.125-8.383-.32-.582-.61-1.156-.864-1.73-1.152-2.446-1.945-4.93-2.375-7.38a29 29 0 0 1-.25-1.796c-.043-.29-.043-.578-.078-.903a21.8 21.8 0 0 1 1.012-7.777c.25-.715.504-1.437.789-2.12 1.48-3.419 3.82-6.368 6.664-8.31a15 15 0 0 1 1.871-1.12c.219-.106.399-.176.617-.286.176.215.32.395.504.578.176.176.325.325.469.465q.484.428.969.867c.219.141.433.32.648.465a16.4 16.4 0 0 0 2.742 1.477c2.805 1.222 5.832 1.687 8.57 2.015 7.239.829 14.653.715 21.856.645 11.344-.176 23.047-.32 33.852 3.277l.324.106c1.332.468 2.703.937 4.21.793 1.372-.106 2.888-.828 3.602-2.051.22-.36.399-.793.47-1.258v-.074c.472.11.976.215 1.444.328.973.21 1.907.355 2.88.504.652.105 2.878.355 4.324-.723.609-.469 1.007-1.078 1.113-1.836.183-1.187-.469-2.195-.938-2.843-1.726-2.375-4.101-4.102-5.761-5.184a45.8 45.8 0 0 0-16.207-6.617c-2.23-.469-4.5-.758-6.77-.867-.176 0-.36-.036-.539-.036.145-.183.328-.324.469-.504 3.742-3.996 6.734-8.855 8.754-14.18 3.488-9.21 4.39-20.047 2.66-32.145a78 78 0 0 0-.504-3.125c-.504-3.242-1.078-6.625-1.043-9.898.035-3.172.61-6.406 1.695-9.898 1.262.144 2.516.07 3.778-.215l3.785-.07c6.156-.114 12.82 1.253 15.086 5.218q.598 1.073.758 2.375c.11.934 0 1.942-.07 3.02-.114 1.043-.184 2.12-.075 3.207.04.465.145.933.29 1.402a4.85 4.85 0 0 0 1.296 2.05c1.043.934 2.41 1.333 3.926 1.044 1.871-.328 3.602-1.617 4.43-3.242 1.441-2.844.824-6.118.109-8.672-2.922-10.402-9.438-19.215-15.773-27.746-2.523-3.383-5.152-6.914-7.457-10.473-1.336-2.051-2.809-4.426-3.207-7.02-.504-3.023.398-6.406 2.809-10.582 2.488-4.316 5.726-8.316 8.824-12.168 2.703-3.308 5.511-6.761 7.851-10.473 3.203-5.035 5.582-10.613 7.059-16.406a64 64 0 0 1 1.621 3.489c2.484 6.046 3.887 12.273 5.219 18.64.148.723 1.406.547 1.371-.175-.32-8.348-2.988-17.602-7.383-25.445.07-.29.11-.613.18-.899.035-.148.07-.254.07-.398a.24.24 0 0 0 0-.219c.149-.894.29-1.793.36-2.73 1.335 1.617 2.632 3.238 3.82 4.93 2.703 3.777 4.789 7.952 7.453 11.77.398.538 1.516.285 1.262-.47-2.375-6.73-7.133-13.136-12.316-18.57.109-1.437.18-2.878.18-4.355 5.003 2.625 9.292 6.406 12.64 11.086.29.645 1.801.176 1.297-.61"/><path d="M190.85 137.97c.86 1.047.684 2.594-.36 3.457l-.148.11c-1.043.863-2.59.68-3.453-.364l-3.133-3.887c-.867-1.043-.687-2.586.36-3.453l.144-.105c1.043-.863 2.594-.688 3.457.355zm29.492-5.648c-1.008-.97-2.012-1.942-2.988-2.84-.47-.434-1.582.105-1.043.68a153 153 0 0 1 3.925 4.28 63 63 0 0 1-.433 3.712c-1.656-2.555-3.457-4.93-5.473-7.02-.394-.398-1.586-.035-1.191.61 1.836 2.992 3.746 5.87 5.476 8.855-1.082 1.191-2.34 2.2-4.035 2.555-3.097.687-5.254-1.078-7.453-2.989-.324-.285-1.367-.175-1.187.434 1.62 5.254 8.535 6.047 12.676 3.312-1.442 5.579-3.711 10.941-6.809 15.797-2.27 3.602-5.04 6.985-7.707 10.297-3.168 3.922-6.441 7.95-9 12.414-2.633 4.606-3.602 8.383-3.062 11.914.468 2.985 2.054 5.618 3.527 7.81 2.379 3.6 5.008 7.124 7.531 10.542 6.23 8.39 12.676 17.027 15.445 27.066.613 2.2 1.156 4.969.035 7.2-.539 1.081-1.726 1.905-2.949 2.124-.613.106-1.48.106-2.195-.539-.149-.148-.293-.289-.364-.433.47-.11.938-.254 1.368-.504 1.117-.614 2.703-1.985 2.199-3.422-.184-.574-1.047-.719-1.403-.215-.582.723-.937 1.617-1.73 2.164-.324.211-.652.39-.973.465-.11-.863 0-1.906.07-2.988.11-1.114.215-2.27.075-3.383a8.6 8.6 0 0 0-.938-2.989c-1.62-2.984-5.836-6.656-16.965-6.44l-5.543.108c-3.027-.648-5.836-1.261-8.605-3.238-3.133-2.27-5.043-5.363-6.629-8.82-.29-.61-1.512-.32-1.402.36.863 5.792 6.441 11.808 12.602 13.53-1.118 3.602-1.657 6.985-1.692 10.262-.035 3.489.504 6.906 1.047 10.254.18 1.047.32 2.055.469 3.098 1.687 11.77.86 22.242-2.523 31.129-2.305 6.082-5.942 11.48-10.516 15.621-.075.07-.145.184-.22.289-7.238 3.852-15.554 4.75-23.515 2.305-.899-.29-1.692.937-.649 1.328 8.39 3.203 17.793 2.449 25.426-2.121h.215c2.992 0 5.945.289 8.86.898 5.546 1.113 10.84 3.277 15.449 6.332 2.453 1.625 4.035 3.063 5.222 4.68.434.578.614 1.008.574 1.336-.035.21-.105.355-.28.465-.548.398-1.661.539-2.817.359-1.836-.285-3.672-.648-5.473-1.152-4.863-4.856-12.062-7.77-18.688-8.168-.613-.035-1.152.828-.36 1.007 7.204 1.618 12.567 4.82 17.786 9.36-.211.824-1.254 1.367-2.156 1.437-1.118.075-2.231-.289-3.422-.683l-.325-.11c-11.125-3.707-23.012-3.523-34.535-3.382-7.128.109-14.48.214-21.57-.61-3.386-.398-7.273-1.082-10.37-3.133a10 10 0 0 1-1.192-.937 9 9 0 0 1-.645-1.367c-.902-2.192-1.05-4.39-1.335-6.766-.075-.644-1.047-.469-1.223.035-.652 2.016-.54 4.25.07 6.371-.758.325-1.511.684-2.234 1.118-4.324-2.559-7.777-5.872-9.649-10.691a51 51 0 0 1 5.079-5.47c.246-.253.359-.609.324-.937-5.727-28.434 2.34-59.746 21.027-81.699 1.445-1.687 2.992-3.418 4.465-5.07 5.585-6.191 11.344-12.562 13.832-20.301 11.562 2.16 22.94-7.738 23.984-19.254.035-.574-.903-.648-1.008-.11-1.192 4.934-3.89 9.544-7.887 12.743-4.824 3.922-10.555 4.605-16.496 4.28-2.125-.788-3.96-1.98-5.293-3.487-2.844-3.207-3.781-8.098-2.484-12.742a17.8 17.8 0 0 1 2.16-4.786l.035-.039a49 49 0 0 1 1.84-2.23c3.742-4.285 8.101-8.063 12.605-11.516.539-.399-.113-.903-.582-.649a54.5 54.5 0 0 0-13.25 10.113c-.899-.644-1.656-1.332-2.23-2.05-1.477-1.872-2.055-5.04-.364-6.84.937-1.008 2.375-1.442 3.926-1.91.504-.141 1.043-.32 1.547-.5 5.226-1.875 8.789-6.157 12.246-10.328 2.558-3.098 5.187-6.266 8.46-8.387 5.731-3.672 12.97-3.922 20.099-3.922h1.617c6.918 0 14.016.035 20.027-2.809a9.7 9.7 0 0 0 3.133 1.188c.398.074.828.144 1.226.18.356.039.715.039 1.078.039.215 0 .469 0 .688-.04 1.906-.144 3.742-.792 5.183-1.94.22 1.546.36 3.128.43 4.714-.723-.254-1.473-.469-2.23-.688-.723-.175-1.442.758-.579 1.043.973.329 1.91.688 2.844 1.121.035 1.043 0 2.192-.035 3.31zm-113.98 189.38c-3.39-1.618-6.34-3.957-9.113-6.622a47.4 47.4 0 0 1 6.695-12.453c1.8 4.32 4.898 8.204 8.894 10.543-2.769 2.165-5.039 5.114-6.476 8.532m1.04 21.883c-2.915 1.66-6.157 2.664-9.54 2.878a45.2 45.2 0 0 1-2.957-11.516 20.1 20.1 0 0 0 9.902.645c.469 2.668 1.336 5.367 2.594 7.992zm7.386 10.543c-2.414 2.375-5.293 4.175-8.57 5.183a18 18 0 0 1-1.118-1.219 39.1 39.1 0 0 1-6.594-10.227c3.422-.14 6.813-1.043 9.797-2.62 1.621 3.09 3.82 6.077 6.485 8.882zm2.844 2.808c2.878 2.63 6.046 4.969 9.293 7.164a19.3 19.3 0 0 1-5.442 6.262c-5.078-2.809-9.941-5.938-14.082-9.86a21.76 21.76 0 0 0 8.793-4.933c.43.469.934.934 1.438 1.367m11.02 8.317c2.265 1.476 4.578 2.914 6.843 4.32a403 403 0 0 1 4.934 3.055c-.977 2.015-2.055 3.957-3.316 5.757a450 450 0 0 0-6.91-3.558c-2.376-1.192-4.829-2.41-7.204-3.707a17 17 0 0 0 5.653-5.867m13.863 8.746c3.672 2.375 7.82 5.289 11.96 8.742a15 15 0 0 1-4.394 3.852 71 71 0 0 0-4.215-3.06 92 92 0 0 0-6.808-4.07c1.37-1.687 2.558-3.523 3.457-5.464m13.797 10.328c3.847 3.382 7.632 7.199 10.91 11.555a33 33 0 0 1-6.086 1.472 73 73 0 0 0-9.399-9.394c1.766-.938 3.313-2.156 4.574-3.633zm14.332 16.555c1.332 2.23 2.52 4.5 3.453 6.84-1.836.32-3.672.468-5.473.433a77 77 0 0 0-6.082-9.105 25.7 25.7 0 0 0 5.941-1.48 54 54 0 0 1 2.16 3.312zm6.734 18.68c-1.227-.11-2.45-.325-3.676-.578a70.5 70.5 0 0 0-4.105-9.036c1.73.043 3.496-.105 5.187-.468a45.4 45.4 0 0 1 2.594 10.082m-.148 12.199a72 72 0 0 0-2.77-10.688 31 31 0 0 0 3.133.504c.324 3.488.219 6.906-.363 10.184M95.089 323.83c.324-2.23.828-4.465 1.476-6.621 2.664 2.73 5.656 5.148 8.965 6.695a23.3 23.3 0 0 0-1.113 8.672l.105 1.297c-3.238.644-6.625.504-9.797-.617-.21-3.165-.105-6.332.364-9.426m141.46-183.4c-3.348-5.582-8.282-9.758-14.152-12.203a58 58 0 0 0-.723-7.524v-.07c-.07-.469-.176-.973-.324-1.477-.215-.683-.54-1.367-1.078-1.906-.723-.722-1.512-1.043-2.34-1.078.215-7.2-2.055-14.758-5.692-20.77-.289-.504-1.367-.25-1.113.395 3.02 6.91 4.352 13.46 5.004 20.62a9.4 9.4 0 0 0-1.621.723c-1.008-6.37-3.89-12.668-8.352-16.848-.258-.246-1.086-.105-.832.364 2.235 3.957 4.574 7.628 5.906 12.055.575 1.87.973 3.78 1.262 5.687-.254.184-.469.36-.687.543-3.848-7.02-10.945-12.379-18.473-14.543-.575-.176-1.192.574-.47.867 7.708 3.02 13.146 8.383 16.93 15.188-5.913 3.742-13.292 3.742-21.104 3.703-7.961-.035-16.172-.035-22.832 4.246-3.531 2.305-6.305 5.618-8.969 8.82-3.426 4.141-6.664 8.028-11.344 9.716-.469.183-.973.328-1.437.468-1.73.504-3.496 1.082-4.828 2.489-2.45 2.625-1.801 6.906.253 9.496.68.828 1.477 1.62 2.446 2.304.035.036.07.036.11.07-1.622 2.2-2.81 4.5-3.497 6.915a19 19 0 0 0-.469 2.23c-.644 4.606.582 9.215 3.387 12.418 1.582 1.797 3.71 3.2 6.195 4.098-2.414 7.2-7.957 13.355-13.324 19.297-1.511 1.652-3.062 3.379-4.504 5.11-18.94 22.308-27.188 53.983-21.57 82.886-1.402 1.364-2.773 2.766-4 4.243-.394.468-.75.933-1.113 1.402-3.168 4.035-5.691 8.496-7.457 13.176a31 31 0 0 0-.715 2.015 47.7 47.7 0 0 0-1.914 8.06c-.433 2.917-.539 5.87-.39 8.784.035.614.07 1.188.14 1.762.399 4.246 1.371 8.457 2.879 12.379.184.469.363.937.582 1.406 1.8 4.246 4.246 8.168 7.309 11.59.105.145.214.25.359.395.36.394.719.793 1.117 1.152 4.246 4.32 9.293 7.664 14.547 10.617.43.254.863.469 1.297.723 2.77 1.507 5.621 2.949 8.426 4.351a185 185 0 0 1 6.594 3.383c.61.328 1.222.649 1.836.973 2.41 1.332 4.785 2.699 7.02 4.176a98 98 0 0 1 3.28 2.304c.575.426 1.114.86 1.688 1.328 3.246 2.63 6.27 5.508 9.004 8.676.504.54.972 1.113 1.445 1.692a70.4 70.4 0 0 1 6.082 8.707 42 42 0 0 1 1.043 1.835c1.55 2.774 2.922 5.618 4.07 8.567.29.722.543 1.402.793 2.125 1.946 5.363 3.278 10.977 3.89 16.699.036.469.434.863.903.902h.106c.433 0 .828-.293.972-.687 1.621-4.895 2.196-10.22 1.73-15.656-.073-.649-.109-1.328-.214-1.98a50.7 50.7 0 0 0-2.629-10.724c-.219-.578-.433-1.152-.687-1.73a54 54 0 0 0-3.782-7.485 91 91 0 0 0-1.98-3.058 65 65 0 0 0-1.188-1.657c-3.492-4.71-7.562-8.851-11.703-12.453-.617-.539-1.226-1.078-1.87-1.582-4.29-3.566-8.571-6.55-12.356-9-.574-.359-1.113-.714-1.66-1.043q-.156-.103-.32-.218c-1.551-1.004-3.133-1.942-4.719-2.914-2.305-1.438-4.68-2.88-6.984-4.426-.618-.395-1.192-.793-1.766-1.184-3.098-2.09-6.05-4.324-8.79-6.804a26 26 0 0 1-1.401-1.332 18 18 0 0 1-1.407-1.477c-2.523-2.66-4.57-5.504-6.125-8.383a20 20 0 0 1-.859-1.73c-1.152-2.446-1.945-4.926-2.379-7.375a38 38 0 0 1-.25-1.801c-.035-.29-.035-.574-.07-.899a21.6 21.6 0 0 1 1.008-7.773 33 33 0 0 1 .793-2.125c1.472-3.418 3.812-6.371 6.656-8.313a14 14 0 0 1 1.879-1.117c.175-.11.39-.18.609-.285.18.211.363.395.504.574.18.176.324.325.504.47.324.288.652.573.973.862.218.141.43.32.648.47.867.573 1.8 1.077 2.738 1.472 2.809 1.187 5.832 1.691 8.57 2.015 7.239.829 14.657.723 21.856.645 11.348-.176 23.055-.32 33.859 3.277l.355.114c1.332.464 2.7.894 4.215.785 1.367-.106 2.879-.828 3.601-2.082.215-.364.399-.797.47-1.262v-.074c.468.11.972.215 1.437.328.972.21 1.91.355 2.879.504.652.105 2.886.36 4.324-.723.613-.469 1.008-1.078 1.113-1.836.184-1.187-.465-2.195-.934-2.844-1.726-2.375-4.105-4.101-5.757-5.18-4.864-3.202-10.414-5.472-16.207-6.62a43 43 0 0 0-6.77-.868c-.183 0-.36-.035-.543-.035.145-.183.324-.324.465-.504 3.75-3.996 6.734-8.855 8.754-14.18 3.496-9.21 4.398-20.047 2.668-32.14-.148-1.044-.328-2.087-.469-3.13-.504-3.242-1.082-6.625-1.047-9.898.035-3.168.614-6.406 1.692-9.898a11.2 11.2 0 0 0 3.785-.215l3.781-.07c6.16-.11 12.816 1.253 15.086 5.218a6.3 6.3 0 0 1 .758 2.375c.105.938 0 1.942-.07 3.02-.11 1.043-.18 2.12-.075 3.207.04.469.145.933.286 1.402a4.9 4.9 0 0 0 1.296 2.05c1.051.938 2.418 1.333 3.93 1.044 1.871-.32 3.602-1.617 4.43-3.242 1.437-2.84.828-6.114.105-8.672-2.879-10.402-9.433-19.215-15.773-27.746-2.515-3.383-5.148-6.914-7.449-10.473-1.336-2.051-2.816-4.426-3.21-7.02-.47-3.023.394-6.406 2.812-10.582 2.48-4.316 5.722-8.308 8.82-12.164 2.7-3.308 5.512-6.765 7.852-10.477 3.207-5.035 5.582-10.613 7.058-16.406a60 60 0 0 1 1.621 3.489c2.489 6.047 3.89 12.273 5.223 18.64.145.723 1.406.548 1.371-.175-.328-8.348-2.992-17.602-7.387-25.445.07-.29.11-.613.184-.899a1.3 1.3 0 0 0 .07-.398.22.22 0 0 0 0-.211c.14-.902.285-1.836.36-2.738 1.336 1.617 2.625 3.242 3.816 4.93 2.7 3.777 4.793 7.953 7.457 11.77.395.538 1.512.285 1.258-.47-2.379-6.726-7.129-13.136-12.316-18.57a59 59 0 0 0 .18-4.355c5.007 2.625 9.293 6.406 12.645 11.086.105.61 1.617.14 1.113-.644"/></g><path fill="#d9d9d9" d="M124.694 34.371a54 54 0 0 1 2.992 2.84c.035-1.117.07-2.23.035-3.344a28 28 0 0 0-2.843-1.121c-.864-.285-.145-1.254.578-1.043.757.219 1.507.433 2.23.687a52 52 0 0 0-.433-4.714c-1.438 1.148-3.274 1.797-5.188 1.941-.21.035-.47.035-.68.035-.363 0-.722 0-1.078-.035a12 12 0 0 1-1.226-.184 9.6 9.6 0 0 1-3.133-1.183c-6.012 2.844-13.11 2.844-20.027 2.808h-1.617c-7.133 0-14.371.25-20.098 3.922-3.274 2.121-5.907 5.29-8.465 8.387-3.453 4.172-7.02 8.453-12.242 10.324-.504.184-1.008.363-1.547.504-1.516.469-2.988.902-3.926 1.91-1.695 1.8-1.113 4.969.363 6.84a10.2 10.2 0 0 0 2.23 2.05 54.3 54.3 0 0 1 13.25-10.112c.47-.254 1.087.215.575.61-4.535 3.417-8.855 7.233-12.602 11.52a35 35 0 0 0-1.836 2.23l-.04.035a19 19 0 0 0-2.155 4.789c-1.297 4.64-.36 9.535 2.484 12.742 1.332 1.508 3.168 2.73 5.293 3.488 5.942.36 11.633-.363 16.492-4.285 3.96-3.203 6.7-7.805 7.89-12.742.107-.5 1.044-.465 1.005.113-1.004 11.516-12.418 21.414-23.98 19.254-2.488 7.735-8.246 14.11-13.832 20.301-1.512 1.653-3.063 3.383-4.465 5.07-18.652 21.989-26.72 53.302-21.027 81.7.07.363-.043.718-.328.937-1.836 1.723-3.527 3.523-5.074 5.469-2.848 3.848-6.16 9.43-7.746 13.855-5.438 14.938-1.946 33.148 8.965 44.266.796-.246.796-.211 0 0 11.672 10.906 26.473 15.984 39.652 24.223 15.09 10.297 28.488 29.152 31.402 48.19.574-3.276.687-6.694.363-10.183-2.594-27.86-29.281-44.305-50.711-57.477-13.973-8.711-27.328-25.41-20.56-42.398 1.477-3.418 5.548-7.63 8.317-9.785a16.6 16.6 0 0 1 2.235-1.121c-.65-2.122-.723-4.352-.07-6.368.14-.504 1.148-.644 1.222-.035.285 2.34.434 4.531 1.336 6.766.176.469.39.933.644 1.367.399.36.793.645 1.192.937 3.098 2.086 6.984 2.77 10.37 3.125 7.09.833 14.478.723 21.57.618 11.524-.184 23.41-.325 34.536 3.382l.324.106c1.19.398 2.34.793 3.422.687.902-.074 1.945-.613 2.156-1.445-5.254-4.531-10.62-7.734-17.785-9.351-.793-.184-.22-1.043.36-1.008 6.585.355 13.824 3.273 18.688 8.168 1.8.468 3.636.863 5.472 1.148 1.156.184 2.27.035 2.817-.355.175-.149.28-.29.28-.508.04-.32-.14-.754-.573-1.328-1.153-1.621-2.77-3.063-5.223-4.68-4.61-3.062-9.938-5.219-15.45-6.332-2.913-.582-5.866-.902-8.858-.902H80.4c-7.633 4.605-17.035 5.328-25.426 2.12-1.043-.394-.25-1.616.648-1.331 7.96 2.449 16.277 1.55 23.516-2.297.074-.113.11-.184.219-.293 4.574-4.137 8.176-9.535 10.516-15.617 3.387-8.895 4.246-19.367 2.523-31.133-.148-1.043-.328-2.055-.468-3.098-.543-3.344-1.082-6.8-1.047-10.254.035-3.312.613-6.656 1.69-10.258-6.16-1.691-11.737-7.738-12.601-13.53-.11-.688 1.113-.973 1.402-.36 1.55 3.453 3.457 6.55 6.63 8.816 2.769 1.98 5.577 2.59 8.605 3.239l5.543-.11c11.094-.21 15.344 3.492 16.965 6.445.644 1.223.898 2.34.937 2.989.106 1.113 0 2.265-.074 3.379-.105 1.117-.18 2.12-.07 2.988.32-.11.683-.25.972-.469.793-.539 1.114-1.437 1.73-2.156.395-.469 1.22-.324 1.403.215.469 1.437-1.082 2.84-2.2 3.418-.43.254-.897.394-1.366.504.11.144.215.324.363.43.68.652 1.582.652 2.195.546 1.223-.218 2.41-1.086 2.95-2.129 1.12-2.23.578-5-.036-7.195-2.804-10.008-9.25-18.68-15.445-27.066-2.558-3.418-5.191-6.945-7.53-10.543-1.474-2.234-3.06-4.824-3.528-7.808-.54-3.532.394-7.309 3.062-11.914 2.559-4.465 5.832-8.497 9-12.414 2.668-3.278 5.438-6.7 7.707-10.297 3.098-4.86 5.368-10.223 6.809-15.801-4.14 2.734-11.09 1.945-12.676-3.309-.18-.617.863-.688 1.187-.434 2.2 1.907 4.356 3.637 7.454 2.985 1.695-.36 2.953-1.367 4.035-2.551-1.73-2.988-3.602-5.871-5.477-8.856-.394-.613.797-1.007 1.192-.613 1.98 2.086 3.816 4.461 5.472 7.02.18-1.223.328-2.446.434-3.707a149 149 0 0 0-3.926-4.282c-.574-.468.54-1.007 1.004-.574zM97.87 46.316l-.148.11c-1.043.863-2.59.68-3.454-.364l-3.132-3.887c-.868-1.043-.688-2.586.359-3.453l.145-.105c1.043-.863 2.593-.688 3.457.355l3.132 3.887c.86 1.047.684 2.629-.36 3.457z"/></svg>